<?xml version="1.0" encoding="utf-8"?>
<!-- Generator: Adobe Illustrator 17.0.0, SVG Export Plug-In . SVG Version: 6.00 Build 0)  -->
<!DOCTYPE svg PUBLIC "-//W3C//DTD SVG 1.1//EN" "http://www.w3.org/Graphics/SVG/1.1/DTD/svg11.dtd">
<svg version="1.1" id="Layer_1" xmlns="http://www.w3.org/2000/svg" xmlns:xlink="http://www.w3.org/1999/xlink" x="0px" y="0px"
	 width="1250px" height="430px" viewBox="0 0 1250 430" enable-background="new 0 0 1250 430" xml:space="preserve">
<g>
	<g id="XMLID_1_">
		<path fill="#595959" d="M218.424,143.06h12.044l25.716,60.221h-13.672l-5.534-13.346h-25.391l-5.534,13.346h-13.346
			L218.424,143.06z M232.422,178.216l-7.812-19.531l-7.813,19.531H232.422z"/>
		<path fill="#595959" d="M263.997,157.383h13.021v9.115c2.604-6.185,6.836-10.417,14.648-10.091v13.672h-0.651
			c-8.789,0-13.997,5.208-13.997,16.276v16.927h-13.021V157.383z"/>
		<path fill="#595959" d="M299.154,212.396l4.557-9.766c4.557,2.604,9.44,4.232,15.625,4.232c8.789,0,13.021-4.232,13.021-12.37
			v-2.279c-3.906,4.557-8.138,7.487-14.974,7.487c-10.742,0-20.182-7.812-20.182-21.484v-0.326c0-13.672,9.766-21.484,20.182-21.484
			c7.161,0,11.393,2.93,14.648,6.836v-5.859h13.021v35.482c0,8.138-1.953,14.323-5.859,17.904
			c-4.232,4.232-10.742,6.185-19.857,6.185C311.849,216.953,305.013,215.326,299.154,212.396z M332.031,178.216L332.031,178.216
			c0-6.51-4.883-10.742-11.068-10.742s-11.068,4.232-11.068,10.742v0.326c0,6.185,4.883,10.742,11.068,10.742
			S332.031,184.401,332.031,178.216z"/>
		<path fill="#595959" d="M354.492,180.495L354.492,180.495c0-13.346,9.44-24.089,22.786-24.089
			c15.299,0,22.135,11.719,22.135,24.74c0,0.977,0,2.279-0.326,3.255h-31.901c1.302,5.859,5.534,9.115,11.068,9.115
			c4.232,0,7.487-1.302,11.068-4.557l7.487,6.51c-4.232,5.208-10.417,8.464-18.555,8.464
			C364.583,204.258,354.492,194.492,354.492,180.495z M386.719,176.914c-0.651-5.859-4.232-9.766-9.766-9.766
			s-8.789,3.906-9.766,9.766H386.719z"/>
		<path fill="#595959" d="M408.854,157.383h13.021v6.51c2.93-3.906,6.836-7.487,13.346-7.487c9.766,0,15.625,6.51,15.625,16.927
			v29.622h-13.021v-25.391c0-6.185-2.93-9.44-7.812-9.44s-8.138,3.255-8.138,9.44v25.391h-13.021L408.854,157.383L408.854,157.383z"
			/>
		<path fill="#595959" d="M464.518,190.26v-21.81h-5.534v-11.068h5.534v-11.719h13.021v11.719h10.742v11.068h-10.742v19.531
			c0,2.93,1.302,4.557,4.232,4.557c2.279,0,4.557-0.651,6.51-1.628v10.417c-2.604,1.628-5.859,2.604-10.091,2.604
			C469.727,203.932,464.518,201.003,464.518,190.26z"/>
		<path fill="#595959" d="M498.047,140.781h13.672v11.393h-13.672V140.781z M498.372,157.383h13.021v45.898h-13.021V157.383z"/>
		<path fill="#595959" d="M523.438,157.383h13.021v6.51c2.93-3.906,6.836-7.487,13.346-7.487c9.766,0,15.625,6.51,15.625,16.927
			v29.622h-13.021v-25.391c0-6.185-2.93-9.44-7.812-9.44s-8.138,3.255-8.138,9.44v25.391h-13.021L523.438,157.383L523.438,157.383z"
			/>
		<path fill="#595959" d="M573.893,189.935L573.893,189.935c0-10.091,7.487-14.648,18.555-14.648c4.557,0,7.812,0.651,11.068,1.953
			v-0.651c0-5.534-3.255-8.464-9.766-8.464c-4.883,0-8.464,0.977-12.695,2.604l-3.255-9.766c4.883-2.279,10.091-3.581,17.904-3.581
			c7.161,0,12.37,1.953,15.625,5.208s4.883,8.464,4.883,14.648v26.693h-12.695v-4.883c-3.255,3.581-7.487,5.859-13.997,5.859
			C581.055,204.258,573.893,199.049,573.893,189.935z M603.841,187.005v-2.279c-2.279-0.977-5.208-1.628-8.138-1.628
			c-5.534,0-9.115,2.279-9.115,6.185v0.326c0,3.581,2.93,5.534,7.161,5.534C599.609,195.143,603.841,191.888,603.841,187.005z"/>
		<path fill="#595959" d="M626.953,189.609h13.997v13.672h-13.997V189.609z"/>
		<path fill="#595959" d="M651.042,212.396l4.557-9.766c4.557,2.604,9.44,4.232,15.625,4.232c8.789,0,13.021-4.232,13.021-12.37
			v-2.279c-3.906,4.557-8.138,7.487-14.974,7.487c-10.742,0-20.182-7.812-20.182-21.484v-0.326c0-13.672,9.766-21.484,20.182-21.484
			c7.161,0,11.393,2.93,14.648,6.836v-5.859h13.021v35.482c0,8.138-1.953,14.323-5.859,17.904
			c-4.232,4.232-10.742,6.185-19.857,6.185C664.062,216.953,656.901,215.326,651.042,212.396z M684.245,178.216L684.245,178.216
			c0-6.51-4.883-10.742-11.068-10.742s-11.068,4.232-11.068,10.742v0.326c0,6.185,4.883,10.742,11.068,10.742
			C679.362,188.633,684.245,184.401,684.245,178.216z"/>
		<path fill="#595959" d="M706.38,180.495L706.38,180.495c0-13.346,10.742-24.089,24.74-24.089c14.323,0,24.74,10.417,24.74,23.763
			v0.326c0,13.021-10.742,23.763-24.74,23.763C716.797,204.258,706.38,193.841,706.38,180.495z M743.164,180.495L743.164,180.495
			c0-6.836-4.883-12.695-12.044-12.695c-7.487,0-11.719,5.859-11.719,12.37v0.326c0,6.836,4.883,12.695,12.044,12.695
			C738.607,193.19,743.164,187.331,743.164,180.495z"/>
		<path fill="#595959" d="M778.32,197.422v5.859h-13.021v-62.5h13.021v23.112c3.255-4.232,7.487-7.487,14.323-7.487
			c10.742,0,20.833,8.464,20.833,23.763v0.326c0,15.299-10.091,23.763-20.833,23.763C785.807,204.258,781.25,201.003,778.32,197.422
			z M800.456,180.495L800.456,180.495c0-7.812-5.208-12.695-11.068-12.695c-6.185,0-11.068,4.883-11.068,12.695v0.326
			c0,7.487,4.883,12.695,11.068,12.695C795.247,193.19,800.456,187.982,800.456,180.495z"/>
		<path fill="#595959" d="M821.615,189.609h13.997v13.672h-13.997L821.615,189.609L821.615,189.609z"/>
		<path fill="#595959" d="M843.75,189.935L843.75,189.935c0-10.091,7.487-14.648,18.555-14.648c4.557,0,7.812,0.651,11.068,1.953
			v-0.651c0-5.534-3.255-8.464-9.766-8.464c-4.883,0-8.464,0.977-12.695,2.604l-3.255-9.766c4.883-2.279,10.091-3.581,17.904-3.581
			c7.161,0,12.37,1.953,15.625,5.208c3.255,3.255,4.883,8.464,4.883,14.648v26.693h-12.695v-4.883
			c-3.255,3.581-7.487,5.859-13.997,5.859C850.911,204.258,843.75,199.049,843.75,189.935z M873.698,187.005v-2.279
			c-2.279-0.977-5.208-1.628-8.138-1.628c-5.534,0-9.115,2.279-9.115,6.185v0.326c0,3.581,2.93,5.534,7.161,5.534
			C869.466,195.143,873.698,191.888,873.698,187.005z"/>
		<path fill="#595959" d="M897.135,157.383h13.021v9.115c2.604-6.185,6.836-10.417,14.648-10.091v13.672h-0.651
			c-8.789,0-13.997,5.208-13.997,16.276v16.927h-13.021V157.383z"/>
	</g>
	<g>
		<path fill="#0072BC" d="M198.568,246.25h23.437c13.997,0,22.786,7.812,22.786,19.857v0.326c0,13.346-10.742,20.508-23.763,20.508
			H209.31v19.206h-10.742V246.25z M221.354,277.174c7.813,0,13.021-4.557,13.021-10.742v-0.326c0-7.161-4.883-10.742-13.021-10.742
			h-12.37v21.484L221.354,277.174L221.354,277.174z"/>
		<path fill="#0072BC" d="M254.232,260.898h10.417v10.091c2.93-6.836,8.138-11.393,15.951-11.068v11.068h-0.651
			c-9.115,0-15.299,5.859-15.299,17.904v17.253h-10.417C254.232,306.146,254.232,260.898,254.232,260.898z"/>
		<path fill="#0072BC" d="M287.109,283.685L287.109,283.685c0-13.021,9.115-23.763,22.135-23.763
			c14.323,0,21.484,11.393,21.484,24.414c0,0.977,0,1.953-0.326,2.93h-32.878c0.977,7.487,6.185,11.393,13.021,11.393
			c4.883,0,8.789-1.953,12.37-5.534l6.185,5.534c-4.232,5.208-10.091,8.464-18.555,8.464
			C297.201,306.797,287.109,297.357,287.109,283.685z M320.638,280.104c-0.651-6.51-4.557-11.719-11.393-11.719
			c-6.185,0-10.742,4.883-11.719,11.719H320.638z"/>
		<path fill="#0072BC" d="M337.565,299.961l4.557-7.161c4.883,3.581,10.091,5.534,14.648,5.534c4.557,0,7.161-1.953,7.161-4.883
			v-0.326c0-3.581-4.883-4.557-10.091-6.185c-6.51-1.953-13.997-4.557-13.997-13.346v-0.326c0-8.464,7.161-13.672,15.951-13.672
			c5.534,0,11.719,1.953,16.602,5.208l-4.232,7.487c-4.232-2.604-9.115-4.232-12.695-4.232c-3.906,0-6.185,1.953-6.185,4.557v0.326
			c0,3.255,4.883,4.557,10.091,6.185c6.51,1.953,13.997,4.883,13.997,13.021v0.326c0,9.44-7.487,14.323-16.602,14.323
			C350.26,306.797,343.099,304.518,337.565,299.961z"/>
		<path fill="#0072BC" d="M384.115,243.971h11.068v9.766h-11.068V243.971z M384.766,260.898h10.417v45.247h-10.417V260.898z"/>
		<path fill="#0072BC" d="M406.25,283.359L406.25,283.359c0-14.974,10.091-23.438,20.833-23.438c7.487,0,12.044,3.906,15.299,7.812
			V243.32h10.417v62.5h-10.417v-7.487c-3.255,4.557-8.138,8.464-15.299,8.464C416.341,306.797,406.25,298.333,406.25,283.359z
			 M442.708,283.359L442.708,283.359c0-8.789-6.185-14.648-13.021-14.648c-7.161,0-13.021,5.534-13.021,14.323v0.326
			c0,8.789,5.859,14.323,13.021,14.323C436.523,298.008,442.708,292.148,442.708,283.359z"/>
		<path fill="#0072BC" d="M463.216,283.685L463.216,283.685c0-13.021,9.115-23.763,22.135-23.763
			c14.323,0,21.484,11.393,21.484,24.414c0,0.977,0,1.953-0.326,2.93h-33.203c0.977,7.487,6.185,11.393,13.021,11.393
			c4.883,0,8.789-1.953,12.37-5.534l6.185,5.534c-4.232,5.208-10.091,8.464-18.555,8.464
			C473.307,306.797,463.216,297.357,463.216,283.685z M496.745,280.104c-0.651-6.51-4.557-11.719-11.393-11.719
			c-6.185,0-10.742,4.883-11.719,11.719H496.745z"/>
		<path fill="#0072BC" d="M517.253,260.898h10.417v7.161c2.93-4.232,7.161-7.813,13.997-7.813c10.091,0,15.951,6.836,15.951,17.253
			v28.646h-10.417V280.43c0-7.161-3.581-11.068-9.766-11.068c-5.859,0-10.091,4.232-10.091,11.068v25.391h-10.417v-44.922H517.253z"
			/>
		<path fill="#0072BC" d="M567.708,283.685L567.708,283.685c0-13.021,9.766-23.763,23.438-23.763c8.464,0,13.997,3.255,17.904,7.812
			l-6.51,6.836c-3.255-3.255-6.51-5.534-11.719-5.534c-7.487,0-13.021,6.51-13.021,14.323l0,0c0,8.138,5.534,14.648,13.346,14.648
			c4.883,0,8.464-2.279,11.719-5.534l6.185,6.185c-4.557,4.883-9.766,8.464-18.555,8.464
			C577.799,306.797,567.708,296.38,567.708,283.685z"/>
		<path fill="#0072BC" d="M619.141,243.971h11.068v9.766h-11.068V243.971z M619.792,260.898h10.417v45.247h-10.417V260.898z"/>
		<path fill="#0072BC" d="M671.224,305.82v-5.534c-2.93,3.581-7.812,6.51-14.648,6.51c-8.464,0-15.951-4.883-15.951-13.997v-0.326
			c0-10.091,7.812-14.648,18.229-14.648c5.534,0,9.115,0.651,12.37,1.953v-0.977c0-6.185-3.906-9.766-11.068-9.766
			c-4.883,0-8.789,0.977-13.021,2.93l-2.604-8.138c4.883-2.279,9.766-3.906,17.253-3.906c13.346,0,19.857,7.161,19.857,19.206
			v26.693H671.224z M671.224,286.94c-2.604-0.977-6.185-1.953-10.417-1.953c-6.51,0-10.417,2.604-10.417,7.161v0.326
			c0,4.232,3.906,6.51,8.789,6.51c6.836,0,12.044-3.906,12.044-9.44V286.94z"/>
		<path fill="#0072BC" d="M717.122,283.359L717.122,283.359c0-14.974,10.091-23.438,20.833-23.438
			c7.487,0,12.044,3.906,15.299,7.812V243.32h10.417v62.5h-10.417v-7.487c-3.255,4.557-8.138,8.464-15.299,8.464
			C727.214,306.797,717.122,298.333,717.122,283.359z M753.581,283.359L753.581,283.359c0-8.789-6.185-14.648-13.021-14.648
			c-7.161,0-13.021,5.534-13.021,14.323v0.326c0,8.789,5.859,14.323,13.021,14.323C747.396,298.008,753.581,292.148,753.581,283.359
			z"/>
		<path fill="#0072BC" d="M774.089,283.685L774.089,283.685c0-13.021,9.115-23.763,22.135-23.763
			c14.323,0,21.484,11.393,21.484,24.414c0,0.977,0,1.953-0.326,2.93h-32.878c0.977,7.487,6.185,11.393,13.021,11.393
			c4.883,0,8.789-1.953,12.37-5.534l6.185,5.534c-4.232,5.208-10.091,8.464-18.555,8.464
			C784.18,306.797,774.089,297.357,774.089,283.685z M807.617,280.104c-0.651-6.51-4.557-11.719-11.393-11.719
			c-6.185,0-10.742,4.883-11.719,11.719H807.617z"/>
		<path fill="#0072BC" d="M854.492,243.646h10.417v62.5h-10.417V243.646z"/>
		<path fill="#0072BC" d="M905.924,305.82v-5.534c-2.93,3.581-7.812,6.51-14.648,6.51c-8.464,0-15.951-4.883-15.951-13.997v-0.326
			c0-10.091,7.812-14.648,18.229-14.648c5.534,0,9.115,0.651,12.37,1.953v-0.977c0-6.185-3.906-9.766-11.068-9.766
			c-4.883,0-8.789,0.977-13.021,2.93l-2.93-8.138c4.883-2.279,9.766-3.906,17.253-3.906c13.346,0,19.857,7.161,19.857,19.206v26.693
			H905.924z M906.25,286.94c-2.604-0.977-6.185-1.953-10.417-1.953c-6.51,0-10.417,2.604-10.417,7.161v0.326
			c0,4.232,3.906,6.51,8.789,6.51c6.836,0,12.044-3.906,12.044-9.44V286.94z"/>
		<path fill="#0072BC" d="M955.078,246.25h9.766l31.901,41.341V246.25h10.417v59.896h-8.789l-32.878-42.643v42.643h-10.417
			L955.078,246.25L955.078,246.25z"/>
		<path fill="#0072BC" d="M1049.154,305.82v-5.534c-2.93,3.581-7.812,6.51-14.648,6.51c-8.464,0-15.951-4.883-15.951-13.997v-0.326
			c0-10.091,7.812-14.648,18.229-14.648c5.534,0,9.115,0.651,12.37,1.953v-0.977c0-6.185-3.906-9.766-11.068-9.766
			c-4.883,0-8.789,0.977-13.021,2.93l-2.93-8.138c4.883-2.279,9.766-3.906,17.253-3.906c13.346,0,19.857,7.161,19.857,19.206v26.693
			H1049.154z M1049.479,286.94c-2.604-0.977-6.185-1.953-10.417-1.953c-6.51,0-10.417,2.604-10.417,7.161v0.326
			c0,4.232,3.906,6.51,8.789,6.51c6.836,0,12.044-3.906,12.044-9.44V286.94z"/>
		<path fill="#0072BC" d="M1069.336,283.685L1069.336,283.685c0-13.021,9.766-23.763,23.438-23.763
			c8.464,0,13.997,3.255,17.904,7.812l-6.51,6.836c-3.255-3.255-6.51-5.534-11.719-5.534c-7.487,0-13.021,6.51-13.021,14.323l0,0
			c0,8.138,5.534,14.648,13.346,14.648c4.883,0,8.464-2.279,11.719-5.534l6.185,6.185c-4.557,4.883-9.766,8.464-18.555,8.464
			C1079.102,306.797,1069.336,296.38,1069.336,283.685z"/>
		<path fill="#0072BC" d="M1120.768,243.971h11.068v9.766h-11.068V243.971z M1121.094,260.898h10.417v45.247h-10.417V260.898z"/>
		<path fill="#0072BC" d="M1142.578,283.685L1142.578,283.685c0-13.021,10.091-23.763,24.089-23.763s24.089,10.417,24.089,23.438
			l0,0c0,12.695-10.091,23.438-24.089,23.438S1142.578,296.38,1142.578,283.685z M1180.339,283.685L1180.339,283.685
			c0-8.138-5.859-14.648-13.997-14.648s-13.672,6.51-13.672,14.323l0,0c0,7.812,5.859,14.648,13.672,14.648
			C1174.805,298.008,1180.339,291.497,1180.339,283.685z M1171.549,241.042l9.44,4.232l-10.417,9.766h-8.138L1171.549,241.042z"/>
		<path fill="#0072BC" d="M1201.172,260.898h10.417v7.161c2.93-4.232,7.161-7.813,13.997-7.813c10.091,0,15.95,6.836,15.95,17.253
			v28.646h-10.417V280.43c0-7.161-3.581-11.068-9.766-11.068c-5.859,0-10.091,4.232-10.091,11.068v25.391h-10.091V260.898z"/>
	</g>
	<g>
		<g>
			<path fill="#FFFFFF" d="M71.615,299.961c-31.25,0-55.339-34.18-55.339-74.544h110.677
				C126.953,266.107,103.19,299.961,71.615,299.961"/>
		</g>
		<g>
			<path fill="#231F20" d="M83.984,132.643h0.977c0,0-0.651-3.906-7.812-3.581h-1.628l-0.651,2.279l4.883-0.326
				C79.427,131.016,83.008,130.69,83.984,132.643"/>
		</g>
		<g>
			<path fill="#231F20" d="M75.846,135.247c0-0.326,0.977-1.302,0.977-1.302h0.326c0,0.326-0.326,0.326-0.326,0.651
				c0,0.651,0.326,1.302,1.302,1.628c0.326,0,1.302,0,1.302,0c0.651-0.326,1.302-0.977,1.302-1.628c0-0.326,0-0.326,0-0.651
				c0.651,0,1.302,0.651,1.628,1.302h1.628c0,0-0.977-3.906-7.812-2.93c0,0-1.628,2.279-1.628,2.604
				C74.219,135.573,75.846,135.573,75.846,135.247"/>
		</g>
		<g>
			<path fill="#231F20" d="M60.221,135.247l1.628-0.326c0.326-0.651,0.977-0.977,1.628-1.302c0,0.326,0,0.326,0,0.326
				c0,0.977,0.326,1.628,1.302,1.628c0,0,0.977,0,1.302,0c0.651-0.326,1.302-0.977,1.302-1.628c0,0,0,0,0-0.326
				c0.326,0,0.326,0,0.326,0l0.977,0.977c0,0.326,1.628,0.326,1.628,0c0-0.326-1.628-2.604-1.628-2.604
				C61.198,131.341,60.221,135.247,60.221,135.247"/>
		</g>
		<g>
			<path fill="#231F20" d="M64.453,131.016l5.208,0.326c0,0-0.651-1.953-0.651-2.279h-1.302c-7.812-0.326-8.464,3.581-8.464,3.581
				h0.977C61.198,130.69,64.453,131.016,64.453,131.016"/>
		</g>
		<g>
			<path fill="#231F20" d="M79.102,184.401h-0.326C79.102,184.401,79.102,184.727,79.102,184.401"/>
		</g>
		<g>
			<path fill="#231F20" d="M77.799,310.052c5.208-0.651,21.159-7.487,26.693-12.044c6.185,0.651,8.464-4.232,12.695-6.51
				c-0.326-0.326-0.651-0.651-1.302-0.651c2.604-1.628,3.906-3.581,6.51-5.859c-0.326-0.326-1.302-0.651-2.279-0.651
				c4.232-1.302,1.302-2.93,5.208-5.859c0-0.326-0.326-0.326-0.651-0.326c2.604-1.628,2.604-4.232,4.883-6.836
				c-0.651-0.326-1.302-0.651-2.279-0.651c4.557-1.302,4.232-4.557,6.836-7.487c-0.326,0-0.977,0-1.953-0.326
				c2.604-1.953,1.628-4.557,3.581-7.487c-0.651-0.326-1.628-0.651-2.604-0.326c3.906-1.628,3.581-5.534,5.534-9.115
				c-0.326-0.326-0.977-0.326-1.628-0.326c3.255-3.255-0.977-1.953,1.628-8.464c-0.651-0.326-1.628-0.326-2.604,0.326
				c3.255-2.604,2.604-5.859,4.557-10.091c-2.279-0.326-7.161,2.93-8.464,5.859v-0.326c0.326-0.977,0.977-1.953,2.93-3.255
				c4.883-3.581,2.93-6.836,4.232-11.393c-2.279-0.326-6.51,3.581-7.487,6.51c0-0.326,0-0.651-0.326-0.977
				c0.651-1.302,0.977-2.93,3.581-4.232c4.232-2.279,2.93-6.51,4.232-11.068c-0.651,0-1.628,0-2.279,0.651
				c0.977-2.93-0.977-5.208-0.651-8.789c-2.279,0-5.208,4.232-5.534,7.161c0-0.326-0.326-0.651-0.651-1.302
				c0.326-0.977,0.651-2.604,2.604-3.906c4.232-4.883,0.651-7.487,1.302-12.37c-0.651,0-0.977,0-1.302,0.326
				c-0.326-2.279-1.953-3.906-2.279-6.836c-2.279,0.326-4.557,4.557-4.232,7.487c-0.326-0.326-0.651-0.977-0.977-1.302
				c0.326-0.977,0.326-2.604,2.279-4.232c2.279-4.557,0-6.836-0.326-11.393c-0.651,0-1.302,0.326-2.279,0.977
				c0-2.93-1.628-4.557-2.604-7.812c-1.628,0.326-2.93,2.279-3.581,4.557c0-0.977,0.326-1.953,0.651-3.255
				c0-6.185-2.279-6.51-4.232-11.393c-0.651,0.651-1.302,1.953-1.953,3.581c-0.651-3.906-2.279-5.208-4.557-8.789
				c-1.302,1.302-1.953,5.208-1.628,7.812c-0.326-0.977-0.651-1.953-0.326-3.581c-0.651-4.883-2.93-6.185-5.208-9.115
				c0.977,0,2.279-0.326,3.581-1.302c0,0-1.953,0.326-3.255-0.326c-1.302-0.651-1.953-1.953-3.255-2.279
				c-1.302-0.651-2.604,0.326-4.557-1.302l12.044-2.604l-11.719-2.279c0,0,0.651-0.651,1.953-0.977c0.977,0,2.604,0,3.581-1.302
				c0.326-0.651,1.953-2.279,5.534-1.953c-2.604-1.628-4.232-0.977-6.51-0.326c-1.628,0.977-2.604,0.326-5.208,0.326l9.766-6.185
				l-11.719,2.604c1.953-2.93,3.581-1.628,4.883-4.883c0.326-0.651,1.628-2.279,3.581-3.255c-2.279-0.651-4.557,0.651-6.836,3.255
				c-0.326-0.326-2.279,0.326-3.581,0.651l6.51-9.766c0,0-6.836,4.883-10.091,6.51l0,0c0.326-2.604,2.279-2.279,2.604-5.208
				c-0.326-0.977,0-3.255,2.279-5.534c-2.604,0.651-3.906,2.604-4.883,5.534c-0.651,0.977-1.953,1.628-3.255,2.93l2.279-11.719
				l-6.836,9.766c0,0-0.651-0.326-0.326-1.628c0.977-1.953,0.977-2.93,0.651-3.906c-0.651-1.628-1.628-3.581,0-6.185
				c-3.906,2.279-1.953,5.534-2.93,7.812c-0.326,0.977-1.302,2.279-1.628,3.255l-1.953-11.719l-2.279,11.719
				c-1.302-1.953-0.651-2.604-1.302-4.557c-0.977-2.279-2.93-1.628-2.93-6.51c-0.651,1.628-1.628,2.93,0.326,7.487
				c0.326,0.651-0.326,2.604,0,4.232l-6.51-9.766l2.279,11.719c-1.628,0-1.953-2.604-2.93-3.581
				c-1.628-1.302-3.906-0.977-5.208-4.883c-0.651,2.604,0.326,4.232,2.93,6.51c0.977,1.302,1.302,3.255,1.953,4.557l-10.091-6.51
				l6.836,9.766c-2.279,0.326-2.279-2.604-6.836-2.604c-2.93,0-4.557-2.604-4.232-1.953c1.302,5.208,4.883,3.581,6.185,5.534
				c0.326,0.326,1.953,1.953,2.279,2.604l-11.719-2.604l10.091,6.51c-1.628,0.977-3.906-1.302-5.859-0.326
				c-3.906,1.953-5.534,0-5.859,0c2.279,2.93,3.906,2.279,6.185,2.279c1.628,0,2.93,0.977,4.883,1.628l-11.719,2.279l11.719,2.279
				c-1.302,1.302-3.581,0.326-5.208,1.628c-3.581,3.906-7.161,1.953-5.859,2.604c2.93,1.953,4.557,1.628,6.51,0.977
				c-1.302,0.977-2.279,1.628-2.93,2.93c-0.326-0.977-0.326-1.628-0.977-1.953c-2.279,3.255-4.883,3.581-5.859,7.812
				c-0.326-0.977-0.651-1.953-1.302-2.604c-1.953,3.581-4.232,4.232-4.883,8.138c-0.326-0.977-0.651-1.953-1.302-2.279
				c-2.604,4.557-5.859,5.534-4.883,11.393c0.651,1.628,0.651,2.604,0.326,3.255c-0.326-2.279-1.302-4.883-2.93-5.208
				c-1.628,2.604-2.93,4.557-3.255,7.487c-0.651-0.326-0.977-0.651-1.628-0.651c-0.326,4.557-3.906,6.185-0.651,11.393
				c1.953,1.628,1.628,2.93,1.628,4.232c-0.326,0-0.326,0.326-0.651,0.651c0.326-2.93-2.279-7.161-4.557-7.487
				c-0.326,3.255-1.953,4.883-1.628,7.812c-0.651-0.326-0.977-0.651-1.628-0.651c0.651,4.557-2.93,6.51,1.302,11.068
				c1.953,1.302,2.279,2.604,2.604,3.906c-0.326,0.326-0.651,0.651-0.651,1.302c-0.326-2.93-3.255-6.836-5.534-6.836
				c0.651,5.534-1.953,5.208-0.326,8.789c-0.977-0.651-1.628-0.651-2.279-0.651c1.302,4.557-0.326,8.464,4.232,11.068
				c2.604,1.302,2.604,2.93,3.581,3.906c-0.326,0.326-0.326,0.651-0.326,0.977c-0.977-2.93-5.208-6.51-7.487-6.51
				c0.977,3.906,0.326,7.487,2.604,10.091c-1.302-0.651-2.604-1.302-3.906-0.977c2.279,4.557,0.977,7.161,5.208,10.742
				c-1.302-0.651-2.604-0.977-3.581-0.326c1.302,3.255,0.651,5.534,1.953,7.813c-0.651,0-1.302,0.326-1.628,0.326
				c2.279,3.581,1.628,6.51,5.208,8.789c-0.977,0-1.628,0-2.279,0.326c1.628,2.604,1.628,4.883,2.93,7.161
				c-0.651,0-0.977,0.326-1.302,0.651c2.93,2.604,2.93,5.534,6.185,7.487c-0.977,0-1.628,0.326-1.953,0.651
				c2.279,2.279,2.93,4.557,5.208,6.185c-0.977,0-1.628,0.326-2.279,0.977c3.255,2.279,3.581,4.883,7.161,6.185
				c-0.977,0-1.628,0.326-2.279,0.651c4.232,3.255,1.302,4.557,5.208,5.859c-0.651,0-0.977,0-0.977,0.326
				c4.232,2.279,4.883,7.812,14.323,7.812l0,0c4.557,4.883,16.927,10.742,26.042,12.044L77.799,310.052L77.799,310.052z
				 M136.719,239.089c-0.977,2.93,0,4.883-2.604,7.161c-1.953,0.326-1.628,0.977-2.279,1.628c0.326-0.977,0.651-2.279,1.302-2.93
				c-0.651,0.326-1.302,0.977-1.953,1.953c-0.326-0.326-1.302-0.326-2.279-2.279c-1.302-2.604-0.326-3.581-0.651-6.185
				c1.302,2.279,3.255,4.232,3.581,5.859C132.812,242.018,135.742,238.763,136.719,239.089 M131.836,240.716
				c0.326-0.651,1.302-1.628,2.604-2.279c-1.302,0.977-1.953,2.279-2.604,3.255C131.836,241.367,131.836,241.042,131.836,240.716
				 M138.021,228.997c-1.302,3.255-0.326,4.557-3.255,7.487c-1.953,0.977-1.953,1.302-2.279,1.953
				c0.326-0.977,0.977-2.279,1.628-3.255c-0.977,0.651-1.628,1.302-2.279,2.279c-0.326-0.326-1.302,0-1.953-1.628
				c-1.302-2.279,0-3.255-0.326-5.534c1.302,1.628,3.255,3.255,3.255,4.883C133.464,232.578,137.044,228.997,138.021,228.997
				 M132.812,226.393c0.326-2.279,3.255-6.185,4.557-6.51c-0.977,3.255,0.326,4.557-2.279,7.487
				c-1.953,0.977-1.628,1.628-1.953,2.279c0-1.302,0.651-2.279,0.977-3.255c-0.651,0.651-1.302,1.628-1.628,2.604
				c-0.326-0.326-1.302,0.326-2.279-1.302c-1.628-1.953-0.651-3.255-1.302-5.534C129.883,223.464,132.161,224.766,132.812,226.393
				 M129.232,219.232c1.302,1.302,1.953,1.628,2.279,2.93c-0.651-0.651-1.628-1.302-2.279-1.953
				C129.232,219.883,129.232,219.557,129.232,219.232 M137.044,210.117c-0.651,3.255,0.651,4.557-2.279,7.487
				c-1.953,0.977-1.628,1.302-2.279,1.953c0.326-1.302,0.651-2.279,0.977-2.93c-0.651,0.651-1.302,1.302-1.628,2.279
				c-0.326-0.326-1.302,0-2.279-1.628c-1.628-1.953-0.651-3.255-1.302-5.534c1.628,1.628,3.906,2.93,4.232,4.232
				C133.138,213.698,136.068,210.117,137.044,210.117 M132.161,209.141c0-2.279,2.279-6.185,3.255-6.51
				c-0.326,3.255,1.302,4.232-0.651,7.487c-1.628,1.302-1.302,1.628-1.953,2.279c0-0.977,0.326-2.279,0.651-3.255
				c-0.651,0.651-1.302,1.628-1.302,2.604c-0.651-0.326-1.302,0.326-2.604-0.977c-1.953-1.628-1.302-2.93-2.279-4.883
				C128.906,206.862,131.51,207.839,132.161,209.141 M125.326,252.435c0-0.651,0.326-0.977,0.326-1.628c0,0.326,0,0.326,0,0.326
				c1.302,3.906,2.279,4.232,1.953,6.836l-0.326,0.326C127.93,256.341,126.628,254.062,125.326,252.435 M120.768,271.641
				c0-1.302-0.651-2.604-1.302-3.906c0.326-0.326,0.326-0.977,0.651-1.302C120.443,269.362,121.094,270.013,120.768,271.641
				 M124.674,270.99c-1.628,0.326-3.255,1.302-3.906,2.279c0-0.326,0-0.326,0-0.326C121.745,272.292,122.396,270.99,124.674,270.99
				 M117.188,265.456c0,0-9.766,1.628-22.135-6.51c0.977-1.302,1.302-4.557,0.977-6.51c-0.326-1.628-0.326-0.326-0.651,0.651
				c-1.302,2.93-1.953,3.255-3.255,4.232c-3.581-3.581-4.232-3.581-8.789-6.51c-3.255-1.628-3.581-2.93-5.534-4.232
				c-3.255,1.628-8.138,4.557-10.742,2.604c-2.279-0.977,2.279-2.279,4.232-5.208c1.628-2.279,3.581-2.604,6.185-2.279
				c4.883,0.977,7.487,2.93,14.648,6.185c9.115,0.651,15.625,3.255,24.74,5.208c1.628,0.326,3.906,0.651,4.883,0.651
				C120.768,257.969,119.466,260.573,117.188,265.456 M77.799,255.69c2.604,2.93,5.208,3.581,6.836,7.161
				c-0.651,0.977-1.628,1.302-2.604,0.651c-3.906-4.557-7.812-5.208-6.185-7.487c-0.651,0-1.628,0.977-1.302,1.628
				c0.651,3.255,4.232,4.557,5.208,7.161c-0.326,2.279-4.883,0.326-6.836-5.534v-0.326c-0.651,1.628-1.628,2.279,1.302,5.534
				c0.651,1.302,0.977,2.604-0.977,2.279c0.326,0.326-0.977,0-0.326,0h0.326c0,0,0,0-0.326-0.326
				c0.977-5.534-4.232-4.557-3.906-4.557c0.651-1.953-2.279-3.906-5.208-2.604c0.326-1.628-2.604-3.906-6.836-2.279
				c-0.651-1.628-4.557-2.93-8.138,1.628c-6.51,0.651-16.927,6.185-23.438,3.581c-0.326,0.326-3.906-10.417-4.232-10.742
				c7.487-0.651,24.414-1.953,30.599-4.557c4.557-2.93,13.672-4.557,15.625-3.581c0,1.628-3.906,4.557-1.953,6.185
				c3.255,3.255,8.464,1.628,12.37-0.326c3.581,3.906,9.766,4.232,12.044,9.44l-0.651,1.628c-1.302,0.977-1.302,0.977-2.93-1.302
				c-3.581-4.883-6.836-3.581-7.487-6.836C76.823,253.411,77.799,254.714,77.799,255.69 M60.221,265.456
				c-1.302,0.651,0.651-0.651,0.977-0.977l0.651-0.651c1.302-0.977,2.604-2.279,3.581-0.326c0.651,1.302-3.906,3.906-4.557,4.232
				c-0.651,0.326-0.977,0.326-1.302-0.326C59.245,266.107,59.57,265.456,60.221,265.456 M56.315,264.805
				c-0.651,0.326-1.302,0.326-1.953-0.326c-0.326-0.977,0.977-2.279,1.628-2.93c0.326-0.651,0.977-0.651,0.977-0.651l0.651-0.651
				c1.628-0.326,1.628,0,1.953,0.651C60.221,261.549,57.292,264.805,56.315,264.805 M67.057,265.781c0,0,1.628-1.953,2.604,0.651
				c0.326,0.977-1.628,2.279-3.255,2.93C65.43,268.711,63.151,268.711,67.057,265.781 M52.083,261.875
				c-0.651,0.326-1.953-0.977-1.302-1.302l0.651-1.302c1.302-0.326,1.953-0.977,2.279-0.326
				C54.362,259.596,52.409,261.549,52.083,261.875 M23.437,266.432c-0.326,0.651-0.326,0.977-0.651,1.302
				C22.786,267.409,23.112,266.758,23.437,266.432L23.437,266.432 M22.135,271.641c-0.651-0.651-1.302-1.302-2.604-1.628
				c0.977,0.326,1.628,0.651,2.279,0.977C22.135,271.315,22.135,271.315,22.135,271.641 M15.625,256.992
				C15.625,256.667,15.625,256.667,15.625,256.992c-0.651-2.93,0.326-3.255,1.628-6.836c0,0.651,0.326,0.977,0.326,1.628
				C16.602,253.411,15.625,255.365,15.625,256.992 M16.276,203.607c-0.651,0.326-1.302,0.651-1.953,0.977
				c0.326-0.326,0.977-0.977,1.953-1.628C16.602,203.281,16.276,203.281,16.276,203.607 M16.927,226.393H69.01v15.299
				c-2.279-0.326-6.51-0.651-9.766,0c-9.44,1.628-6.51,6.51-39.388,6.836C16.602,238.438,16.927,226.393,16.927,226.393
				 M49.154,150.547c0.326-0.651,0.977-0.651,1.302-2.604c1.302-4.232,3.581-3.581,6.51-5.534c0.977,1.302-2.604,5.859-4.557,7.161
				c1.302-0.326,3.255,1.628,5.208,2.279c-2.279,0.326-3.255,1.628-5.534,0.977c-1.628-0.651-1.628-1.302-1.953-1.953
				c0.651-0.651,1.302-1.628,1.953-2.279C51.107,149.245,50.13,149.896,49.154,150.547 M88.867,149.245
				c-0.977,0-1.628-0.326-2.604-0.651c1.302-0.326,2.604-0.977,3.581-1.628c2.279,0.326,4.232,1.628,4.232,3.581
				c-1.953-0.651-2.279,0.651-5.208,1.302c-2.604,0.651-3.906-0.977-6.185-1.302c-0.651-0.326-0.977-0.977-0.977-1.302
				c0.977,0.326,2.279,0.326,3.581,0v0.326C86.263,149.57,87.565,149.57,88.867,149.245 M80.404,145.99
				c1.302,0,2.279-0.326,3.581-0.651c-0.651,0-1.628,0-2.604,0c1.628-0.977,2.604-2.279,4.883-2.279c2.93,0,2.93,1.628,4.557,0.977
				C91.146,145.339,82.682,149.245,80.404,145.99 M76.497,145.339c1.302,0.326,2.604,2.93,4.232,4.557
				c-2.279-0.651-3.255,0-5.208-1.628c-1.302-1.302-1.302-1.953-1.302-2.604c0.977-0.326,1.628-0.977,2.279-1.628
				c-0.977,0.651-1.953,0.977-2.93,0.977c0.651-0.326,0.977-0.326,1.953-1.953c2.604-2.604,3.906-0.977,7.161-1.953
				C82.031,142.409,78.451,145.013,76.497,145.339 M69.661,145.99c1.302,0,2.93,2.279,4.883,3.255c-2.279,0-3.255,0.651-5.208-0.326
				c-1.628-0.977-1.628-1.628-1.953-2.279c0.977-0.651,1.302-1.302,1.953-1.953c-0.651,0.651-1.953,1.302-2.93,1.628
				c0.651-0.651,0.977-0.326,1.628-2.279c2.279-2.93,3.255-1.953,6.51-3.255C74.544,141.758,71.615,145.339,69.661,145.99
				 M64.779,150.221c-2.279,0-3.255,0.977-5.534,0c-1.628-0.651-1.628-1.628-1.953-1.953c0.651-0.651,1.302-1.302,1.953-2.279
				c-0.651,0.651-1.628,1.302-2.93,1.953c0.651-0.651,0.977-0.651,1.628-2.604c2.279-3.255,3.906-2.279,6.836-3.906
				c0,0.977-2.93,4.557-5.208,5.859C61.198,147.292,63.151,148.919,64.779,150.221 M102.539,160.964c0.326,0,0.651,0,0.977,0
				C103.19,160.964,102.865,161.289,102.539,160.964C102.539,161.289,102.539,160.964,102.539,160.964 M121.745,187.331
				c0.651,0.326,0.977,0.651,1.302,0.977c-0.326,0-0.977-0.326-1.302-0.326C121.745,187.656,121.745,187.656,121.745,187.331
				 M94.401,245.599c-5.208-0.977-11.719-6.836-19.531-6.51v-13.021h51.758c0,1.628-0.977,15.625-3.581,25.065
				C112.305,251.133,102.865,245.273,94.401,245.599 M126.953,202.956c0.977,0.651,1.628,1.302,2.279,1.628
				c-0.651-0.326-1.302-0.651-1.953-0.977C126.953,203.281,126.953,203.281,126.953,202.956 M132.812,193.19
				c-0.326,3.255,1.302,4.232-0.651,7.487c-1.628,0.977-1.302,1.628-1.628,2.279c0-0.977,0-2.279,0.651-3.255
				c-0.651,0.651-0.977,1.628-1.302,2.279c-0.326,0-1.302,0.326-2.604-0.977c-1.953-1.628-1.302-2.93-2.279-5.208
				c1.953,1.628,4.557,2.604,5.208,3.906C129.557,197.096,131.836,193.19,132.812,193.19 M127.93,192.865
				c-0.326-2.279,0.977-6.185,1.953-6.836c0.326,3.255,2.279,4.232,0.651,7.487c-1.302,1.302-0.977,1.628-1.302,2.279
				c-0.326-0.977-0.326-2.279,0-3.255c-0.651,0.977-0.977,1.628-0.977,2.604c-0.651,0-1.302,0.326-2.93-0.651
				c-2.279-1.302-1.953-2.93-3.255-4.883C124.023,190.911,126.953,191.562,127.93,192.865 M125.326,176.914
				c0.326,3.255,2.279,4.232,0.651,7.487c-1.628,1.302-0.977,1.628-1.302,2.279c-0.326-0.977-0.326-2.279,0-3.255
				c-0.326,0.651-0.977,1.628-0.977,2.604c-0.651,0-1.302,0.326-2.93-0.977c-2.279-1.628-1.953-2.93-3.255-4.883
				c1.953,1.302,4.883,1.953,5.859,3.255C123.047,181.146,124.349,177.24,125.326,176.914 M121.094,170.078
				c0.977,3.255,2.93,3.906,1.953,7.161c-1.302,1.302-0.651,1.953-0.977,2.604c-0.326-0.977-0.651-2.279-0.651-3.255
				c-0.326,0.977-0.651,1.628-0.326,2.604c-0.651,0-1.302,0.651-2.93-0.326c-2.604-1.302-2.604-2.604-4.232-4.557
				c2.279,0.977,5.208,1.628,6.51,2.604C119.466,174.635,120.117,170.729,121.094,170.078 M118.815,174.961
				c-0.326-0.651-0.977-0.977-1.628-1.302C117.513,173.984,118.164,174.31,118.815,174.961L118.815,174.961 M114.909,161.289
				c1.302,3.255,2.604,2.93,2.279,6.836c-0.651,1.953-0.326,2.279-0.326,3.255c-0.651-0.977-0.977-2.279-1.302-3.255
				c0,0.977,0,1.953,0.326,3.255c-0.651,0-0.977,0.977-2.604,0.326c-2.279-0.651-2.604-2.279-4.232-3.581
				c2.279,0.326,4.883,0,5.859,0.977C113.932,166.497,114.258,161.94,114.909,161.289 M109.701,162.917
				c-0.977-1.953-1.302-6.185-0.651-7.161c1.628,2.93,2.93,2.279,3.255,6.185c-0.651,1.953,0,2.279,0,3.255
				c-0.651-0.977-1.302-1.953-1.628-3.255c0,0.977,0,1.953,0.651,2.93c-0.651,0.326-0.651,0.977-2.604,0.651
				c-2.604-0.326-2.93-1.628-4.883-2.93C106.12,162.917,108.398,161.94,109.701,162.917 M101.237,148.919
				c1.953,2.93,3.906,2.604,4.232,6.51c-0.326,1.953,0,2.279,0.326,2.93c-0.651-0.977-1.302-1.953-1.628-2.93
				c0,0.977,0.326,1.953,0.651,2.93c-0.651,0-0.651,0.977-2.604,0.977c-2.604,0-2.93-1.628-4.883-2.604
				c2.279,0,4.883-0.977,6.185-0.326C101.562,154.453,100.586,149.896,101.237,148.919 M99.935,146.641
				c0,0.326-0.326,0.651-0.326,1.302c-0.326-0.651-0.651-0.977-1.302-1.302C98.958,146.641,99.609,146.641,99.935,146.641
				 M99.284,149.57c-0.326,2.279,0.326,2.279,0.651,3.255c-0.326,0-0.326,0-0.651,0c-0.651-0.977-1.628-1.953-1.953-2.279
				c0.326,1.628,0.326,2.279,0.977,3.255c-0.326,0.326-0.651,0.651-1.628,0.651c-2.93,0.326-3.581-0.326-4.883-0.977
				c1.953-0.977,2.93-1.953,4.883-1.302c0,0,0-0.326-0.326-0.651l0,0l0,0c-0.326-0.651-0.977-1.302-1.628-2.279
				c-0.977-1.628-1.628-3.255-1.302-3.906C96.029,146.966,98.307,145.99,99.284,149.57 M97.331,144.036h-2.604
				c-0.326-0.326-0.651-0.651-0.977-0.651C95.052,143.385,96.68,144.036,97.331,144.036 M52.409,142.083
				c2.279-0.977,2.93-1.953,2.93-1.953l-7.161-1.953l7.487-1.628c0,0-0.326-0.326-4.557-1.628c-0.977-0.326,0-0.977-3.581-1.953
				c1.302-0.326,0.977,0.326,3.255,0.651c1.628,0,2.93,0.326,5.534-0.326c0,0-4.232-3.255-7.161-4.883c0,0,4.883,1.302,8.464,2.279
				c0-0.326-2.93-2.604-4.883-5.208c-0.326-0.651-0.651-0.977-0.977-1.302c1.953,0.651,1.953,1.302,3.255,1.953
				c1.302,0.326,3.581,1.953,4.557,1.628c-2.279-2.93-5.208-7.487-5.208-7.487l7.487,5.208c-0.326-1.953-1.628-3.581-1.953-4.232
				c-0.977-3.255-0.651-2.93-1.302-4.232c1.953,2.93,2.93,4.883,5.859,6.51l-1.302-9.44l4.557,8.138
				c0.326-1.302,0-3.581-0.326-4.232c0.326-4.232,0.326-1.628,0-4.883c0.651,1.628,0.651,1.302,0.651,3.581
				c0.977,1.953,1.302,3.255,2.604,4.883l1.953-8.789l1.302,8.789c0.977-1.953,0.977-2.93,1.628-4.232
				c0.977-1.302,1.628-3.255,1.628-3.255c-0.651,3.581-0.651,2.279-0.977,4.232c0,1.953,0,4.557,0.326,4.883l5.534-7.812
				l-2.279,9.115c0.651-0.326,2.93-2.93,4.883-4.557c0.651-0.651,1.628-1.953,1.628-1.953c-1.302,1.628-1.628,2.604-2.279,3.906
				c-0.977,2.279-0.651,1.302-1.628,4.557l7.812-5.208l-5.208,7.487c0,0,0.326,0.326,3.906-1.628
				c1.953-0.651,3.581-1.302,4.883-1.953c-2.604,2.279-3.581,1.953-7.161,6.51l8.789-1.628c0,0-7.161,4.232-7.487,4.557
				c0.326,0.326,3.581-0.326,5.534,0c1.953,0,1.953,0,3.906-0.326c-2.279,0.651-2.93,0.326-5.534,1.302
				c-0.977,0.651-3.255,1.302-3.581,1.953l8.789,1.628c0,0-8.464,1.953-10.091,2.604c-0.651,0-0.977,0-1.628,0
				c-0.326,0-0.651,0-0.977,0c0.326-0.651,0.651-1.302,0.326-1.953c-2.93,0.651-5.534,0-7.812,0.651
				c0.326-0.651,0.326-1.302,0-1.628c-3.581,1.628-6.51,0.977-9.766,3.255c0-0.651,0-1.628-0.326-2.279
				c-3.255,1.628-5.859,0.651-8.138,2.604c0-0.651,0-1.302,0-1.628c-3.255,1.302-5.859,1.628-8.138,4.232
				c-0.651,0-1.302-0.326-1.953-0.326c0,0,0-0.326-0.326-0.326l-0.326,0.326c-0.326,0-0.977,0-1.628,0
				C49.479,143.06,51.107,142.734,52.409,142.083 M42.318,152.5c0.977-3.581,2.93-2.93,5.208-5.208
				c0.651,0.977-1.302,5.208-2.93,6.51c1.302-0.326,3.581,0.977,5.859,1.302c-2.279,0.651-2.604,1.953-5.208,1.628
				c-1.953-0.326-1.953-0.977-2.604-1.302c0.651-0.651,0.977-1.628,0.977-2.604c-0.326,0.977-1.302,1.628-1.953,2.279
				C41.992,154.453,42.318,154.453,42.318,152.5 M46.875,152.826L46.875,152.826C46.549,152.826,46.549,152.826,46.875,152.826
				L46.875,152.826z M36.784,157.057c0.326-3.906,2.279-3.581,4.232-6.185c0.651,0.977-0.326,5.534-1.628,7.161
				c1.302-0.651,3.581,0.326,5.859,0.326c-1.953,0.977-2.279,2.279-4.883,2.279c-1.953,0-2.279-0.651-2.604-0.977
				c0.326-0.977,0.651-1.953,0.651-2.93c-0.326,0.977-0.977,1.953-1.628,2.93C36.784,159.01,37.435,159.01,36.784,157.057
				 M35.156,159.987c0,0.651-0.326,0.977-0.326,1.302l0,0C34.831,161.289,35.156,160.638,35.156,159.987 M30.273,161.94
				c0.326-3.906,1.302-3.581,3.255-6.51c0.651,0.977,0.326,5.208-0.651,7.161c1.302-0.651,3.581,0,5.859,0
				c-1.953,1.302-2.279,2.604-4.557,2.93c-1.953,0.326-2.279-0.651-2.604-0.651c0.326-0.977,0.326-1.953,0.326-2.93
				c-0.326,0.977-0.651,1.953-1.628,2.93C30.599,164.219,30.924,164.219,30.273,161.94 M27.669,161.615
				c0.651,0.977,0.651,5.534-0.326,7.487c0.977-0.977,3.581-0.651,5.859-0.977c-1.953,1.302-1.953,2.93-4.232,3.581
				c-1.628,0.326-1.953-0.326-2.604-0.326c0.326-0.977,0.326-1.953,0.326-2.93c-0.326,0.977-0.651,2.279-1.302,3.255
				c0-0.977,0.651-0.977-0.326-2.93C25.065,164.87,26.367,164.87,27.669,161.615 M24.089,175.286
				c0.326-0.326,0.651-0.651,0.977-0.651C24.74,174.635,24.089,175.286,24.089,175.286
				C24.089,175.612,24.089,175.286,24.089,175.286 M21.484,170.729c0.977,0.326,1.628,4.557,0.651,6.836
				c1.302-1.302,3.906-1.628,6.51-2.604c-1.628,1.953-1.628,3.255-4.232,4.232c-1.953,0.977-2.604,0.326-2.93,0.651
				c0-0.977,0-1.628-0.326-2.604c0,0.977-0.326,1.953-0.651,2.93c0-0.651,0.326-0.977-0.977-2.279
				C18.555,174.635,20.833,173.659,21.484,170.729 M16.602,184.727c-1.628-3.255,0.326-4.232,0.651-7.161
				c0.977,0.326,2.279,4.232,1.953,6.51c0.977-0.977,3.581-1.953,5.534-3.255c-1.302,1.953-0.977,3.255-3.255,4.883
				c-1.628,1.302-2.279,0.651-2.93,0.977c0-0.977-0.326-1.628-0.977-2.604c0.326,0.977,0,1.953,0,2.93
				C17.904,186.029,18.229,185.703,16.602,184.727 M21.484,187.331c0,0.326-0.326,0.651-0.326,0.651
				c-0.977,0.651-1.628,0.977-2.604,1.302C19.206,188.633,20.182,188.307,21.484,187.331 M13.672,186.354
				c0.977,0.326,2.279,4.557,1.953,6.51c0.977-1.302,3.581-1.953,5.534-2.93c-1.302,1.953-0.977,3.255-3.255,4.557
				c-1.628,1.302-2.279,0.651-2.93,0.977c0-0.977-0.326-1.953-0.651-2.604c0.326,0.977,0,1.953,0,3.255c0-0.651,0-0.977-1.302-2.279
				C11.393,190.26,13.346,189.284,13.672,186.354 M11.068,200.352c-1.953-2.93-0.326-4.232-0.651-7.161
				c1.302,0.326,3.255,4.232,3.255,6.185c0.651-1.302,3.255-2.279,4.883-3.906c-0.977,2.279-0.326,3.255-2.279,5.208
				c-1.302,1.302-1.953,0.977-2.604,1.302c-0.326-0.977-0.651-1.628-1.302-2.279c0.326,0.977,0.651,1.953,0.651,3.255
				C12.695,201.979,13.021,201.328,11.068,200.352 M7.812,202.63c1.302,0.326,3.255,4.232,3.255,6.51
				c0.651-1.302,3.255-2.279,4.883-3.581c-0.977,2.279-0.326,3.255-2.279,4.883c-1.302,1.302-1.953,0.977-2.604,0.977
				c-0.326-0.977-0.651-1.628-1.302-2.279c0.326,0.977,0.651,1.953,0.651,3.255c-0.326-0.651,0-0.977-1.628-2.279
				C6.51,206.862,8.138,205.56,7.812,202.63 M11.393,218.255c-0.326-0.977-0.977-1.628-1.628-2.279
				c0.651,0.977,0.977,1.953,0.977,3.255c-0.651-0.651-0.326-0.977-1.953-1.953c-2.604-2.93-1.628-3.581-2.279-6.51
				c0.977,0,3.906,3.581,4.557,5.534c0.326-1.302,2.604-2.604,4.232-4.232c-0.651,2.279,0.326,3.255-1.302,5.208
				C12.695,218.255,11.719,217.93,11.393,218.255 M14.323,218.906v0.977c-0.977,0.651-1.628,1.302-2.279,1.953
				C12.37,220.534,13.021,220.208,14.323,218.906 M6.185,219.883c0.977,0.326,4.232,3.581,4.557,5.859
				c0.326-1.302,2.604-2.604,3.906-4.232c-0.651,2.279,0.326,3.581-1.302,5.208c-0.977,1.302-1.953,0.977-2.279,1.302
				c-0.326-0.977-0.977-1.628-1.628-2.279c0.651,0.977,0.977,1.953,0.977,3.255c-0.326-0.651-0.326-0.977-1.953-2.279
				C5.859,224.115,7.161,223.138,6.185,219.883 M10.742,231.602L10.742,231.602c-0.651-0.651-1.628-1.953-2.93-3.255
				C9.766,229.323,10.417,230.625,10.742,231.602 M5.859,229.323c0.977,0,4.232,2.93,5.208,4.883c0-1.302,1.953-2.93,3.255-4.883
				c0,2.279,0.977,3.581-0.326,5.534c-0.651,1.628-1.628,1.302-1.953,1.628c-0.651-0.651-1.628-1.302-2.279-1.953
				c0.651,0.977,1.302,1.953,1.628,2.93c-0.651-0.651-0.326-0.977-2.279-1.953C4.557,231.602,9.115,236.81,5.859,229.323
				 M11.719,240.065c0,0.326,0,0.326,0,0.651c-0.651-1.302-1.628-2.279-2.93-3.255C10.091,238.438,11.068,239.414,11.719,240.065
				 M11.393,243.32c0.326-1.628,2.279-3.581,3.581-5.859c-0.326,2.279,0.651,3.581-0.651,5.859
				c-0.977,1.953-1.628,1.953-1.953,2.279c-0.326-0.977-0.977-1.302-1.953-1.953c0.651,0.651,0.977,1.628,1.302,2.93
				c-0.651-0.651-0.326-0.977-2.279-1.628c-2.604-1.953-1.628-2.93-2.604-6.185C7.812,238.763,10.742,241.367,11.393,243.32
				 M7.487,246.25c0.977-0.326,4.557,1.953,5.534,3.906c0-1.302,1.628-3.581,2.604-6.185c0,2.279,1.302,3.255,0.326,5.859
				c-0.651,1.953-1.302,1.953-1.628,2.604c-0.651-0.651-1.302-1.302-2.279-1.628c0.651,0.651,1.302,1.628,1.953,2.604
				c-0.977-0.326-0.977-0.977-2.93-0.977C8.138,250.807,9.115,248.854,7.487,246.25 M16.276,259.271
				c0-1.302,1.628-3.581,2.279-5.859c0,2.279,1.302,3.255,0.326,5.859c-0.651,1.953-1.302,1.953-1.628,2.279
				c-0.651-0.651-1.302-0.977-2.279-1.302c0.651,0.326,1.302,1.302,1.953,2.279c-0.651-0.326-0.651-0.977-2.604-0.977
				c-3.255-1.628-2.279-3.581-3.906-6.185C11.393,255.039,14.974,257.318,16.276,259.271 M12.37,262.526
				c0.977-0.651,5.208,1.302,6.51,2.93c-0.326-1.302,0.977-3.906,1.628-6.185c0.651,2.279,1.628,2.93,1.302,5.534
				c-0.326,1.953-0.977,2.279-1.302,2.604c-0.651-0.651-1.628-0.977-2.604-0.977c0.977,0.326,1.628,1.302,2.279,1.953
				c-0.651-0.326-0.651-0.977-2.604-0.651C13.997,266.758,14.648,264.805,12.37,262.526 M16.276,270.664
				c0.977-0.326,5.208,1.302,6.51,3.255c-0.326-1.302,0.977-3.581,1.628-5.859c0.326,2.279,1.628,2.93,1.302,5.534
				c-0.326,1.953-0.977,1.953-1.302,2.604c-0.651-0.651-1.628-0.977-2.604-1.302c0.977,0,1.628,0.977,2.279,1.953
				c-0.651-0.326-0.651-0.977-2.604-0.651C17.904,274.896,18.555,272.943,16.276,270.664 M19.531,277.174
				c0.977-0.651,5.534,0.651,7.161,1.953c-0.651-0.977,0.326-3.255,0.651-5.534c0.977,2.279,2.279,2.604,2.279,4.883
				c0,1.953-0.977,1.953-0.977,2.604c-0.977-0.326-1.628-0.651-2.604-0.651c0.977,0.326,1.953,0.977,2.604,1.628
				c-0.651-0.326-0.977-0.651-2.93-0.326C21.81,281.081,22.135,279.453,19.531,277.174 M29.622,284.01
				c0,0.326,0.326,0.651,0.326,0.977c-0.977-0.651-2.279-1.302-3.581-1.628C27.669,283.359,28.646,283.685,29.622,284.01
				 M23.763,284.336c0.977-0.651,5.534,0.977,7.161,2.604c-0.651-1.302,0.651-3.581,0.977-5.859
				c0.977,2.279,2.279,2.604,1.953,5.208c0,1.953-0.977,1.953-0.977,2.604c-0.977-0.651-1.953-0.651-2.93-0.977
				c0.977,0.326,1.953,1.302,2.604,1.953c-0.651-0.326-0.977-0.651-2.93-0.651C26.042,288.242,26.367,286.615,23.763,284.336
				 M40.365,296.055c-0.651-0.651-1.628-1.302-2.93-0.977c-3.906-0.326-4.883-2.93-8.138-4.557c0.977-0.651,5.859,0.326,7.812,1.628
				c-0.651-0.977,0-3.255-0.326-5.534c1.302,1.953,2.93,2.279,2.93,4.557c0.326,1.953,0.326,2.93,0.651,4.232
				c-0.651-0.651-1.302-0.977-2.279-1.302C39.062,294.427,39.714,295.078,40.365,296.055 M35.482,290.195L35.482,290.195
				L35.482,290.195L35.482,290.195z M61.198,306.471c-8.789-2.604-16.276-6.836-18.229-9.766c-0.651-1.628-0.977-3.581-1.302-5.859
				c0,0,0,0,0-0.326c6.185,5.208,13.021,9.115,20.182,10.742h-0.651C58.594,304.193,59.896,305.82,61.198,306.471 M71.289,299.31
				c-23.763-0.651-38.086-19.857-43.294-29.297c-0.977-0.977,13.672-5.534,16.927-6.51l3.906-0.977c0,1.628,3.255,2.279,2.93,1.628
				c0.651,0.326-0.326,1.628,1.628,2.93c1.953,1.302,3.255,0.651,3.255,0.326c-1.302,1.302,2.93,3.581,5.534,1.953
				c-0.326,1.302,1.628,1.628,2.279,1.628c0.977,0.651,2.93,0.977,4.557,0v13.021c0.326,2.604,0.326,2.93,1.628,3.581
				c5.208,0.326,4.232-1.302,4.883-2.93c-0.651-5.859-0.651-13.997-0.651-13.997c3.581-0.326,2.604-1.302,4.232-1.628
				c1.628,0.326,2.279,0.326,3.581-1.628c1.953,0.326,3.581-0.326,4.232-1.953c1.628,0.651,3.906-0.977,5.208-3.906
				c3.581,0.977,16.276,7.812,22.461,9.766C111.654,275.872,96.68,299.31,71.289,299.31 M112.956,285.638
				c0.651-0.326,1.302-0.651,1.953-0.651c-0.977,0.326-1.628,0.651-2.279,1.302C112.63,285.964,112.956,285.638,112.956,285.638
				 M107.096,291.497L107.096,291.497L107.096,291.497 M100.911,291.823c-0.326,2.279-0.651,3.906-0.977,5.534
				c-2.279,4.232-13.346,7.812-17.904,9.115c1.302-1.302,2.279-3.906,0.326-5.208h-0.326
				C88.542,299.635,95.052,296.055,100.911,291.823C100.911,291.497,100.911,291.497,100.911,291.823 M106.445,295.729
				c-1.628-0.326-2.93,0.651-3.906,1.302c0.651-0.977,1.302-1.953,2.279-2.604c-0.977,0.326-1.628,0.651-2.279,0.977
				c0-0.977,0-1.953,0.326-3.255c0.326-2.279,1.953-2.604,3.255-4.557c-0.326,2.279,0.651,4.557-0.326,5.859
				c1.953-1.302,7.161-2.279,8.138-1.628C110.352,293.451,110.352,295.404,106.445,295.729 M112.63,290.521
				c-1.953-0.326-2.279,0.326-2.93,0.651c0.977-0.651,1.953-1.302,2.93-1.953c-0.977,0.326-1.953,0.326-2.93,0.977
				c-0.326-0.651-0.977-0.651-0.977-2.604c0-2.604,1.302-2.93,2.279-5.208c0.326,2.279,1.302,4.557,0.651,5.859
				c1.628-1.628,6.51-3.255,7.487-2.604C116.211,287.917,116.536,289.544,112.63,290.521 M117.188,283.359
				c-1.953-0.326-2.279,0-2.93,0.326c0.977-0.651,1.628-1.628,2.93-1.953c-0.977,0-1.953,0.326-2.93,0.651
				c-0.326-0.651-0.977-0.651-0.977-2.604c0-2.604,1.302-2.93,2.279-5.208c0.326,2.279,1.302,4.557,0.651,6.185
				c1.628-1.628,6.185-2.93,7.161-2.279C120.768,280.755,121.094,282.708,117.188,283.359 M121.419,277.5
				c-1.953,0-1.953,0.326-2.93,0.651c0.651-0.977,1.302-1.628,2.279-2.279c-0.977,0.326-1.953,0.651-2.604,1.302
				c-0.326-0.651-1.302-0.651-1.628-2.604c-0.651-2.604,0.651-3.255,1.302-5.534c0.651,2.279,1.953,4.557,1.628,6.185
				c1.302-1.953,5.534-3.906,6.51-3.255C124.349,274.57,125,276.523,121.419,277.5 M125.977,269.036
				c-1.953-0.326-1.953,0.326-2.604,0.651c0.651-0.977,1.302-1.628,2.279-2.279c-0.977,0.326-1.953,0.651-2.604,0.977
				c-0.326-0.651-0.977-0.651-1.302-2.604c-0.326-2.604,0.977-3.255,1.302-5.534c0.651,2.279,1.953,4.883,1.628,6.185
				c1.302-1.628,5.534-3.581,6.51-2.93C128.906,266.107,129.232,268.06,125.977,269.036 M128.906,262.526
				c-1.953,0-1.953,0.651-2.604,0.977c0.651-0.977,0.977-1.953,1.953-2.604c-0.977,0.326-1.628,0.651-2.279,1.628
				c-0.326-0.326-1.302-0.651-1.628-2.604c-0.977-2.604,0.326-3.581,0.326-5.859c0.977,2.279,2.604,4.557,2.604,6.185
				c0.977-1.953,4.883-4.232,5.859-3.906C131.51,259.271,132.161,261.224,128.906,262.526 M129.883,256.341
				c0.326-0.326,0.977-0.651,1.628-0.651C130.859,255.69,130.208,255.69,129.883,256.341 M132.161,253.411
				c-1.953,0-1.953,0.651-2.604,0.977c0.651-0.977,0.977-1.953,1.953-2.604c-0.977,0.326-1.628,0.651-2.279,1.302
				c-0.326-0.326-0.977-0.326-1.953-2.279c-0.977-2.604,0.326-3.581,0.326-5.859c0.977,2.279,2.604,4.557,2.604,6.185
				c0.977-1.953,4.557-4.557,5.534-4.232C134.44,249.831,135.417,251.784,132.161,253.411"/>
		</g>
		<g>
			<path fill="#FACC63" d="M52.409,142.083c2.279-0.977,2.93-1.953,2.93-1.953l-7.161-1.953l7.487-1.628
				c0,0-0.326-0.326-4.557-1.628c-0.977-0.326,0-0.977-3.581-1.953c1.302-0.326,0.977,0.326,3.255,0.651
				c1.628,0,2.93,0.326,5.534-0.326c0,0-4.232-3.255-7.161-4.883c0,0,4.883,1.302,8.464,2.279c0-0.326-2.93-2.604-4.883-5.208
				c-0.326-0.651-0.651-0.977-0.977-1.302c1.953,0.651,1.953,1.302,3.255,1.953c1.302,0.326,3.581,1.953,4.557,1.628
				c-2.279-2.93-5.208-7.487-5.208-7.487l7.487,5.208c-0.326-1.953-1.628-3.581-1.953-4.232c-0.977-3.255-0.651-2.93-1.302-4.232
				c1.953,2.93,2.93,4.883,5.859,6.51l-1.302-9.44l4.557,8.138c0.326-1.302,0-3.581-0.326-4.232c0.326-4.232,0.326-1.628,0-4.883
				c0.651,1.628,0.651,1.628,0.651,3.581c0.977,1.953,1.302,3.255,2.604,4.883l1.953-8.789l1.302,8.789
				c0.977-1.953,0.977-2.93,1.628-4.232c0.977-1.302,1.628-3.255,1.628-3.255c-0.651,3.581-0.651,2.279-0.977,4.232
				c0,1.953,0,4.557,0.326,4.883l5.534-7.812l-2.279,9.115c0.651-0.326,2.93-2.93,4.883-4.557c0.651-0.651,1.628-1.953,1.628-1.953
				c-1.302,1.628-1.628,2.604-2.279,3.906c-0.977,2.279-0.651,1.302-1.628,4.557l7.812-5.208l-5.208,7.487
				c0,0,0.326,0.326,3.906-1.628c1.953-0.651,3.581-1.302,4.883-1.953c-2.604,2.279-3.581,1.953-7.161,6.51l8.789-1.628
				c0,0-7.161,4.232-7.487,4.557c0.326,0.326,3.581-0.326,5.534,0c1.953,0,1.953,0,3.906-0.326c-2.279,0.651-2.93,0.326-5.208,1.302
				c-0.977,0.651-3.255,1.302-3.581,1.953l8.789,1.628c0,0-8.464,1.953-10.091,2.604c-0.326,0-0.977,0-1.628,0
				c-0.326,0-0.651,0-0.977,0c0.326-0.651,0.651-1.302,0.326-1.953c-2.93,0.651-5.534,0-7.812,0.651
				c0.326-0.651,0.326-1.302,0-1.628c-3.581,1.628-6.51,0.977-9.766,3.255c0-0.651,0-1.628-0.326-2.279
				c-3.255,1.628-5.859,0.651-8.138,2.604c0-0.651,0-1.302,0-1.628c-3.255,1.302-5.859,1.628-8.138,4.232
				c-0.651,0-1.302-0.326-1.953-0.326l-0.326-0.326l-0.326,0.326c-0.326,0-0.977,0-1.628,0
				C49.479,143.06,51.107,142.734,52.409,142.083"/>
		</g>
		<g>
			<path fill="#231F20" d="M83.984,132.643h0.977c0,0-0.651-3.906-7.812-3.581h-1.628l-0.651,2.279l4.883-0.326
				C79.427,131.016,83.008,130.69,83.984,132.643"/>
		</g>
		<g>
			<path fill="#231F20" d="M75.846,135.247c0-0.326,0.977-1.302,0.977-1.302h0.326c0,0.326,0,0.326,0,0.651
				c0,0.651,0.326,1.302,1.302,1.628c0.326,0,1.302,0,1.302,0c0.651-0.326,1.302-0.977,1.302-1.628c0-0.326,0-0.326,0-0.651
				c0.651,0,1.302,0.651,1.953,1.302h1.628c0,0-0.977-3.906-7.812-2.93c0,0-1.628,2.279-1.628,2.604
				C74.219,135.573,75.846,135.573,75.846,135.247"/>
		</g>
		<g>
			<path fill="#231F20" d="M60.221,135.247l1.628-0.326c0.326-0.651,1.302-0.977,1.628-1.302c0,0.326,0,0.326,0,0.326
				c0,0.977,0.326,1.628,1.302,1.628c0,0,0.977,0,1.302,0c0.651-0.326,1.302-0.977,1.302-1.628c0,0,0,0,0-0.326
				c0.326,0,0.326,0,0.326,0l0.977,0.977c0,0.326,1.628,0.326,1.628,0c0-0.326-1.628-2.604-1.628-2.604
				C61.198,131.341,60.221,135.247,60.221,135.247"/>
		</g>
		<g>
			<path fill="#231F20" d="M64.453,131.016l5.208,0.326c0,0-0.651-1.953-0.651-2.279h-1.302c-7.812-0.326-8.464,3.255-8.464,3.255
				h0.977C61.198,130.365,64.453,131.016,64.453,131.016"/>
		</g>
		<g>
			<path fill="#0B9E5C" d="M136.719,239.089c-0.977,2.93,0,4.883-2.604,7.161c-1.628,0.326-1.628,0.977-2.279,1.628
				c0.326-0.977,0.651-2.279,1.302-2.93c-0.651,0.651-1.302,0.977-1.953,1.953c-0.326-0.326-0.977-0.326-2.279-2.279
				c-1.302-2.604-0.326-3.581-0.977-6.185c1.302,2.279,3.255,4.232,3.581,5.859C132.812,242.018,135.742,238.763,136.719,239.089"/>
		</g>
		<g>
			<path fill="#0B9E5C" d="M138.021,228.997c-1.302,3.255-0.326,4.557-3.255,7.487c-1.953,0.977-1.953,1.302-2.279,1.953
				c0.326-1.302,0.977-2.279,1.628-3.255c-0.977,0.651-1.628,1.302-2.279,2.279c-0.326-0.326-1.302,0-1.953-1.628
				c-1.302-2.279,0-3.255-0.326-5.859c1.302,1.953,3.255,3.581,3.255,4.883C133.464,232.578,137.044,228.997,138.021,228.997"/>
		</g>
		<g>
			<path fill="#0B9E5C" d="M132.812,226.393c0.651-2.279,3.255-6.185,4.557-6.51c-0.977,3.255,0.326,4.557-2.279,7.487
				c-1.953,0.977-1.628,1.628-2.279,2.279c0.326-1.302,0.651-2.279,1.302-3.255c-0.651,0.651-1.302,1.628-1.953,2.279
				c-0.326-0.326-1.302,0.326-2.279-1.302c-1.628-1.953-0.651-3.255-1.302-5.534C130.208,223.464,132.161,224.766,132.812,226.393"
				/>
		</g>
		<g>
			<path fill="#0B9E5C" d="M137.044,210.117c-0.977,3.255,0.326,4.557-2.279,7.487c-1.953,0.977-1.628,1.302-2.279,1.953
				c0.326-0.977,0.651-2.279,0.977-2.93c-0.651,0.651-1.302,1.302-1.953,2.279c-0.326-0.326-1.302,0-2.604-1.628
				c-1.628-1.953-0.651-2.93-1.302-5.534c1.628,1.628,3.906,2.93,4.232,4.232C133.138,214.023,136.068,210.117,137.044,210.117"/>
		</g>
		<g>
			<path fill="#0B9E5C" d="M132.161,209.141c0-2.279,2.279-6.185,3.255-6.51c-0.326,3.255,1.302,4.232-0.651,7.487
				c-1.628,1.302-1.302,1.628-1.628,2.279c0-0.977,0-2.279,0.651-3.255c-0.651,0.651-1.302,1.628-1.302,2.604
				c-0.651,0-1.302,0.326-2.604-0.977c-1.953-1.628-1.302-2.93-2.279-4.883C128.906,206.862,131.51,207.839,132.161,209.141"/>
		</g>
		<g>
			<path fill="#0B9E5C" d="M49.154,150.547c0.326-0.651,0.977-0.651,1.302-2.604c1.302-4.232,3.581-3.581,6.51-5.534
				c0.977,1.302-2.604,5.859-4.557,7.161c1.302-0.326,3.255,1.628,5.208,2.279c-2.279,0.326-3.255,1.628-5.534,0.651
				c-1.628-0.651-1.628-1.302-1.953-1.628c0.651-0.651,1.302-1.628,1.953-2.604C51.107,149.57,50.13,150.221,49.154,150.547"/>
		</g>
		<g>
			<path fill="#0B9E5C" d="M88.867,149.245c-0.977,0-1.628-0.326-2.604-0.651c1.302-0.326,2.604-0.977,3.581-1.628
				c2.279,0.326,4.232,1.628,4.232,3.581c-1.953-0.651-2.279,0.651-5.208,0.977c-2.604,0.651-3.906-0.977-6.185-1.302
				c-0.651-0.651-0.977-0.977-0.977-1.628c1.302,0.326,2.279,0.326,3.581,0v0.326C86.589,149.57,87.565,149.57,88.867,149.245"/>
		</g>
		<g>
			<path fill="#0B9E5C" d="M80.404,145.99c1.302,0,2.279-0.326,3.255-0.651c-0.651,0.326-1.628,0-2.604,0
				c1.628-0.977,2.604-2.279,4.883-2.279c2.93,0,2.93,1.628,4.883,0.977C91.146,145.339,82.682,149.245,80.404,145.99"/>
		</g>
		<g>
			<path fill="#0B9E5C" d="M76.497,145.339c1.302,0.326,2.604,2.93,4.232,4.557c-2.279-0.651-3.255,0-5.208-1.628
				c-1.628-1.302-1.302-1.953-1.302-2.604c0.977-0.326,1.628-0.977,2.279-1.628c-0.977,0.651-1.953,0.977-2.93,0.977
				c0.651-0.326,0.977-0.326,1.953-1.953c2.604-2.604,3.906-0.977,7.161-1.953C82.031,142.409,78.451,145.013,76.497,145.339"/>
		</g>
		<g>
			<path fill="#0B9E5C" d="M69.661,145.99c1.302,0.326,2.93,2.279,4.883,3.581c-2.279-0.326-3.255,0.651-5.534-0.651
				c-1.628-0.977-1.302-1.628-1.628-2.279c0.977-0.651,1.302-1.302,1.953-2.279c-0.651,0.651-1.953,1.302-2.93,1.628
				c0.651-0.651,0.977-0.651,1.628-2.279c2.279-2.93,3.255-1.953,6.51-3.255C74.544,142.083,71.615,145.339,69.661,145.99"/>
		</g>
		<g>
			<path fill="#0B9E5C" d="M65.104,150.221c-2.279,0-3.255,0.977-5.534,0c-1.628-0.651-1.628-1.302-1.953-1.953
				c0.977-0.651,1.302-1.302,1.953-2.279c-0.651,0.651-1.953,1.302-2.93,1.953c0.651-0.651,0.977-0.326,1.628-2.604
				c2.279-3.255,3.581-2.279,6.836-3.906c0,0.977-2.93,4.883-5.208,5.859C61.198,147.292,63.151,149.245,65.104,150.221"/>
		</g>
		<g>
			<path fill="#0B9E5C" d="M132.812,193.19c-0.326,3.255,1.302,4.232-0.651,7.487c-1.628,0.977-1.302,1.628-1.628,2.279
				c0-0.977,0-2.279,0.651-3.255c-0.651,0.651-0.977,1.628-1.302,2.604c-0.651-0.326-1.302,0-2.604-1.302
				c-1.953-1.628-1.302-2.93-2.604-5.208c1.953,1.628,4.557,2.604,5.208,3.906C129.557,197.422,131.836,193.19,132.812,193.19"/>
		</g>
		<g>
			<path fill="#0B9E5C" d="M127.93,192.865c-0.326-2.279,0.977-6.185,1.953-6.836c0.326,3.255,2.279,4.232,0.651,7.487
				c-1.302,1.302-0.977,1.628-1.302,2.279c-0.326-0.977-0.326-2.279,0-3.255c-0.326,0.651-0.651,1.628-0.977,2.604
				c-0.651,0-1.302,0.326-2.93-0.651c-2.279-1.302-1.953-2.93-3.255-4.883C124.349,190.911,126.953,191.562,127.93,192.865"/>
		</g>
		<g>
			<path fill="#0B9E5C" d="M125.326,176.914c0.326,3.255,2.279,4.232,0.651,7.487c-1.302,1.302-0.977,1.628-1.302,2.279
				c-0.326-0.977-0.326-2.279,0-3.255c-0.326,0.651-0.977,1.628-0.977,2.604c-0.651,0-1.302,0.326-2.93-0.977
				c-2.279-1.628-1.953-2.93-3.255-4.883c1.953,1.302,4.883,1.953,5.859,3.255C123.047,181.146,124.349,177.24,125.326,176.914"/>
		</g>
		<g>
			<path fill="#0B9E5C" d="M121.094,170.078c0.977,2.93,2.93,3.906,1.953,7.161c-1.302,1.302-0.651,1.953-0.977,2.604
				c-0.326-0.977-0.651-1.953-0.651-3.255c-0.326,0.977-0.651,1.628-0.326,2.604c-0.651,0-0.977,0.326-2.93-0.651
				c-2.604-1.302-2.604-2.604-4.232-4.557c2.279,0.977,5.208,1.628,6.185,2.604C119.466,174.961,120.117,170.729,121.094,170.078"/>
		</g>
		<g>
			<path fill="#0B9E5C" d="M114.909,161.289c1.302,3.255,2.604,2.93,2.279,6.836c-0.651,1.953-0.326,2.279-0.326,3.255
				c-0.651-0.977-0.977-2.279-1.302-3.255c0,0.977,0,1.953,0.326,3.255c-0.651,0-0.977,0.977-2.604,0.326
				c-2.279-0.651-2.604-2.279-4.232-3.581c2.279,0.326,4.883,0,5.859,0.977C113.932,166.497,114.258,161.94,114.909,161.289"/>
		</g>
		<g>
			<path fill="#0B9E5C" d="M109.701,162.917c-1.302-1.953-1.628-6.185-0.651-7.161c1.628,2.93,2.93,2.279,2.93,6.185
				c-0.326,1.953,0,2.279,0,2.93c-0.651-0.977-1.302-1.953-1.628-2.93c0,0.977,0,1.953,0.651,2.93
				c-0.651,0.326-0.651,0.977-2.604,0.651c-2.604-0.326-2.93-1.628-4.883-2.93C106.12,162.917,108.398,162.266,109.701,162.917"/>
		</g>
		<g>
			<path fill="#0B9E5C" d="M101.237,148.919c1.953,2.604,3.906,2.604,4.232,6.51c-0.651,1.953,0,2.279,0,2.93
				c-0.651-0.977-1.302-1.953-1.628-2.93c0,0.977,0.326,1.953,0.651,2.93c-0.651,0.326-0.651,0.977-2.604,0.977
				c-2.604,0-2.93-1.302-4.883-2.604c2.279,0,4.883-0.977,6.185-0.326C101.562,154.453,100.586,149.896,101.237,148.919"/>
		</g>
		<g>
			<path fill="#0B9E5C" d="M99.284,149.57c-0.326,2.279,0.326,1.953,0.651,2.93c-0.326,0-0.326,0-0.651,0
				c-0.651-0.977-1.628-1.953-1.953-2.279c0.326,1.628,0.326,2.279,0.977,3.255c-0.326,0.326-0.651,0.651-1.628,0.651
				c-3.255,0.326-3.581-0.651-4.883-1.302c1.953-0.977,2.93-1.953,4.883-1.302c0-0.326,0-0.326-0.326-0.651l0,0l0,0
				c-0.326-0.651-0.977-1.302-1.628-2.279c-0.977-1.628-1.628-3.255-1.302-3.906C96.029,146.966,98.307,145.99,99.284,149.57"/>
		</g>
		<g>
			<path fill="#0B9E5C" d="M42.318,152.5c0.977-3.581,2.93-2.93,4.883-5.208c0.651,0.977-0.977,5.208-2.604,6.836
				c1.302-0.326,3.581,0.977,6.185,1.302c-2.279,0.651-2.93,1.953-5.208,1.628c-1.953-0.326-1.953-0.977-2.604-1.302
				c0.651-0.651,0.977-1.628,0.977-2.604c-0.326,0.977-1.302,1.628-1.953,2.279C41.992,154.453,42.318,154.453,42.318,152.5"/>
		</g>
		<g>
			<path fill="#0B9E5C" d="M36.784,157.057c0.326-3.581,2.279-3.581,4.232-6.185c0.651,0.977-0.326,5.534-1.628,7.487
				c1.302-0.651,3.581,0,5.859,0.326c-1.953,0.977-2.279,2.279-4.883,2.279c-1.953,0-2.279-0.651-2.604-0.977
				c0.326-0.977,0.651-1.953,0.651-2.93c-0.326,0.977-0.977,1.953-1.628,2.93C36.784,159.01,37.435,159.01,36.784,157.057"/>
		</g>
		<g>
			<path fill="#0B9E5C" d="M30.599,162.266c0.326-3.906,1.302-3.581,2.93-6.51c0.651,0.977,0.326,5.534-0.651,7.161
				c1.302-0.651,3.581,0,5.859,0c-1.953,1.302-2.279,2.604-4.557,2.93c-1.953,0-2.279-0.651-2.604-0.651
				c0.326-0.977,0.326-1.953,0.326-2.93c-0.326,0.977-0.651,2.279-1.628,2.93C30.599,164.219,30.924,164.219,30.599,162.266"/>
		</g>
		<g>
			<path fill="#0B9E5C" d="M27.669,161.615c0.651,0.977,0.977,5.534-0.326,7.487c1.302-0.977,3.581-0.651,5.859-0.977
				c-1.953,1.302-1.953,2.93-4.232,3.581c-1.628,0.326-2.279-0.326-2.604-0.326c0.326-0.977,0.326-1.953,0.326-2.93
				c-0.326,0.977-0.651,2.279-1.302,3.255c0-0.651,0.326-0.977-0.326-2.93C25.065,164.87,26.367,164.87,27.669,161.615"/>
		</g>
		<g>
			<path fill="#0B9E5C" d="M21.81,170.729c0.977,0.326,1.628,4.557,0.651,6.836c0.977-0.977,3.906-1.628,6.185-2.604
				c-1.628,1.953-1.628,3.255-4.232,4.557c-1.953,0.977-2.279,0.326-2.93,0.651c0-0.977,0-1.953-0.326-2.604
				c0,0.977-0.326,2.279-0.651,3.255c0-0.651,0.326-0.977-0.977-2.604C18.555,174.635,20.833,173.659,21.81,170.729"/>
		</g>
		<g>
			<path fill="#0B9E5C" d="M16.602,184.727c-1.628-3.255,0.326-4.232,0.651-7.161c0.977,0.326,2.604,4.232,1.953,6.51
				c0.977-1.302,3.581-1.953,5.859-3.255c-1.302,1.953-0.977,3.255-3.255,4.883c-1.628,1.302-2.279,0.651-2.93,0.977
				c0-0.977-0.326-1.628-0.977-2.604c0.326,0.977,0.326,1.953,0,2.93C17.904,186.354,18.229,185.703,16.602,184.727"/>
		</g>
		<g>
			<path fill="#0B9E5C" d="M13.672,186.354c0.977,0.326,2.279,4.232,1.953,6.51c0.977-1.302,3.581-1.953,5.859-2.93
				c-1.628,1.953-0.977,3.255-3.255,4.557c-1.953,0.977-2.604,0.651-3.255,0.977c0-0.977-0.326-1.628-0.977-2.604
				c0.326,0.977,0,1.953,0,3.255c-0.326-0.651,0.326-1.302-1.302-2.279C11.393,190.26,13.346,189.284,13.672,186.354"/>
		</g>
		<g>
			<path fill="#0B9E5C" d="M11.393,200.352c-1.953-2.93-0.326-4.232-0.651-7.161c0.977,0,3.255,3.906,3.255,6.185
				c0.651-1.302,3.255-2.279,4.883-3.906c-0.977,2.279-0.326,3.255-2.279,5.208c-1.628,1.302-2.279,0.977-2.93,1.302
				c-0.326-0.977-0.651-1.628-1.302-2.279c0.651,0.651,0.651,1.953,0.651,2.93C12.695,201.979,13.021,201.654,11.393,200.352"/>
		</g>
		<g>
			<path fill="#0B9E5C" d="M8.138,202.63c0.977,0.326,3.255,4.232,3.255,6.51c0.651-1.302,3.255-2.279,4.883-3.581
				c-0.977,2.279-0.326,3.255-2.279,4.883c-1.628,1.302-2.279,0.977-2.604,0.977c-0.326-0.977-0.651-1.628-1.302-2.604
				c0.326,0.977,0.651,1.953,0.651,3.255c-0.326-0.651,0-0.977-1.628-2.279C6.836,206.862,8.138,205.885,8.138,202.63"/>
		</g>
		<g>
			<path fill="#0B9E5C" d="M11.393,218.255c-0.326-0.977-0.977-1.628-1.628-2.279c0.651,0.977,0.977,1.953,0.977,2.93
				c-0.326-0.651-0.326-0.977-1.953-1.953c-2.604-2.93-1.628-3.581-2.279-6.836c0.977,0,4.232,3.581,4.557,5.534
				c0.326-1.302,2.604-2.604,4.232-4.232c-0.651,2.279,0.326,3.255-1.302,5.208C12.695,218.255,11.719,217.93,11.393,218.255"/>
		</g>
		<g>
			<path fill="#0B9E5C" d="M6.185,219.883c0.977,0.326,4.232,3.581,4.557,5.859c0.326-1.302,2.604-2.604,3.906-4.232
				c-0.651,2.279,0.326,3.255-1.302,5.208c-0.977,1.628-1.953,0.977-2.279,1.302c-0.326-0.977-0.977-1.628-1.628-2.279
				c0.651,0.977,0.977,1.953,1.302,2.93c-0.651-0.651-0.326-0.977-1.953-1.953C6.185,224.115,7.161,223.138,6.185,219.883"/>
		</g>
		<g>
			<path fill="#0B9E5C" d="M5.859,229.323c0.977,0,4.232,2.93,5.208,4.883c0-1.302,1.953-2.93,3.255-4.883
				c0,2.279,0.977,3.581-0.326,5.534c-0.977,1.628-1.628,1.302-1.953,1.628c-0.651-0.651-1.628-1.302-2.279-1.953
				c0.651,0.651,1.302,1.953,1.628,2.93c-0.651-0.651-0.326-0.977-2.279-1.953C4.557,231.602,9.115,237.135,5.859,229.323"/>
		</g>
		<g>
			<path fill="#0B9E5C" d="M11.393,243.32c0-1.302,2.279-3.581,3.581-5.859c-0.326,2.279,0.651,3.581-0.651,5.859
				c-0.977,1.953-1.628,1.953-1.953,2.279c-0.651-0.651-0.977-1.302-1.953-1.953c0.651,0.651,0.977,1.953,1.302,2.93
				c-0.651-0.651-0.326-0.977-2.279-1.628c-2.604-1.953-1.302-2.93-2.604-5.859C8.138,238.763,10.742,241.367,11.393,243.32"/>
		</g>
		<g>
			<path fill="#0B9E5C" d="M7.487,246.25c0.977-0.326,4.557,1.953,5.534,4.232c0-1.302,1.628-3.906,2.604-6.185
				c0,2.279,1.302,3.255,0.326,5.859c-0.651,1.953-1.302,1.953-1.628,2.604c-0.651-0.651-1.302-1.302-2.279-1.628
				c0.977,0.651,1.302,1.628,1.953,2.604c-0.977-0.651-0.977-1.302-2.604-1.302C8.138,250.807,9.115,248.854,7.487,246.25"/>
		</g>
		<g>
			<path fill="#0B9E5C" d="M16.276,259.271c0-1.302,1.628-3.906,2.604-6.185c0,2.279,1.302,3.255,0.326,5.859
				c-0.651,1.953-1.302,1.953-1.628,2.604c-0.651-0.651-1.302-0.977-2.279-1.628c0.651,0.651,0.977,1.628,1.628,2.604
				c-0.651-0.326-0.651-0.977-2.604-0.977c-3.255-1.628-2.279-3.581-3.906-6.185C11.393,255.039,15.299,257.318,16.276,259.271"/>
		</g>
		<g>
			<path fill="#0B9E5C" d="M12.37,262.526c0.977-0.651,5.208,1.302,6.51,2.93c-0.326-1.302,0.977-3.906,1.302-6.185
				c0.651,2.279,1.953,2.93,1.302,5.534c-0.326,1.953-0.977,1.953-1.302,2.604c-0.651-0.651-1.628-0.977-2.604-0.977
				c0.977,0.651,1.628,1.302,2.279,1.953c-0.326-0.326-0.326-0.977-2.279-0.651C13.997,266.758,14.648,264.805,12.37,262.526"/>
		</g>
		<g>
			<path fill="#0B9E5C" d="M16.602,270.664c0.977-0.651,5.208,1.302,6.51,3.255c-0.326-1.302,0.977-3.581,1.628-5.859
				c0.326,2.279,1.628,2.93,1.302,5.534c-0.326,1.953-0.977,1.953-1.302,2.279c-0.651-0.651-1.628-0.977-2.604-1.302
				c0.651,0.326,1.302,1.302,1.953,2.279c-0.651-0.326-0.651-0.977-2.604-0.651C17.904,274.896,18.555,272.943,16.602,270.664"/>
		</g>
		<g>
			<path fill="#0B9E5C" d="M19.531,277.174c0.977-0.651,5.534,0.651,7.161,1.953c-0.651-0.977,0.326-3.255,0.651-5.534
				c0.977,2.279,2.279,2.604,2.279,5.208c0,1.953-0.977,1.953-0.977,2.604c-0.651-0.326-1.953-0.651-2.604-0.651
				c0.977,0.326,1.953,0.977,2.604,1.628c-0.651-0.326-0.977-0.651-2.93-0.326C21.81,281.081,22.135,279.453,19.531,277.174"/>
		</g>
		<g>
			<path fill="#0B9E5C" d="M23.763,284.336c0.977-0.651,5.534,0.977,7.161,2.604c-0.651-1.302,0.651-3.581,0.977-5.859
				c0.651,2.279,2.279,2.604,1.953,5.208c0,1.953-0.977,1.953-0.977,2.604c-0.977-0.651-1.953-0.651-2.93-0.977
				c0.977,0.326,1.953,1.302,2.604,1.953c-0.651-0.326-0.977-0.977-2.93-0.651C26.042,288.242,26.367,286.615,23.763,284.336"/>
		</g>
		<g>
			<path fill="#0B9E5C" d="M40.365,296.055c-0.651-0.651-1.628-1.302-2.93-0.977c-3.906-0.326-4.883-2.93-7.812-4.557
				c0.977-0.651,5.859,0.326,7.812,1.628c-0.651-1.302,0-3.581-0.326-5.859c1.302,1.953,2.604,2.279,2.93,4.557
				c0.326,1.953,0.326,3.255,0.651,4.232c-0.651-0.651-1.302-0.977-2.279-1.628C39.062,294.427,39.714,295.404,40.365,296.055"/>
		</g>
		<g>
			<path fill="#0B9E5C" d="M106.445,295.729c-1.628-0.326-2.93,0.651-3.581,1.302c0.651-0.977,1.302-1.953,2.279-2.604
				c-0.651,0-1.628,0.651-2.279,0.977c0-0.977,0-1.953,0.326-3.581c0.326-2.279,1.953-2.604,3.255-4.557
				c-0.326,2.279,0.326,4.557-0.326,5.859c1.953-1.302,6.836-2.279,7.813-1.628C110.352,293.451,110.352,295.404,106.445,295.729"/>
		</g>
		<g>
			<path fill="#0B9E5C" d="M112.63,290.521c-1.953-0.326-2.279,0.326-2.93,0.651c0.977-0.651,1.628-1.302,2.93-1.953
				c-0.977,0.326-1.953,0.651-2.93,0.977c-0.326-0.651-0.977-0.651-0.977-2.604c0-2.279,1.302-2.93,2.279-5.208
				c0.326,2.279,1.302,4.557,0.651,5.859c1.628-1.628,6.51-3.255,7.487-2.604C116.211,287.917,116.536,289.87,112.63,290.521"/>
		</g>
		<g>
			<path fill="#0B9E5C" d="M117.188,283.359c-1.953-0.326-2.279,0-2.93,0.326c0.977-0.651,1.628-1.628,2.93-1.953
				c-0.977,0-1.953,0.326-2.93,0.651c-0.326-0.651-0.977-0.651-0.977-2.604c0-2.604,1.302-2.93,2.279-5.208
				c0.326,2.279,1.302,4.883,0.651,6.185c1.628-1.628,6.185-2.93,7.161-2.279C120.768,280.755,121.094,282.708,117.188,283.359"/>
		</g>
		<g>
			<path fill="#0B9E5C" d="M121.419,277.5c-1.953,0-1.953,0.326-2.604,0.651c0.651-0.977,1.302-1.628,2.279-2.279
				c-0.977,0.326-1.953,0.651-2.604,0.977c-0.326,0-1.302,0-1.628-1.953c-0.651-2.604,0.651-3.255,1.302-5.534
				c0.651,2.279,1.953,4.557,1.628,6.185c1.302-1.953,5.534-3.906,6.51-3.255C124.349,274.57,125,276.523,121.419,277.5"/>
		</g>
		<g>
			<path fill="#0B9E5C" d="M125.977,269.036c-1.953-0.326-1.953,0.326-2.604,0.651c0.651-0.977,1.302-1.628,2.279-2.279
				c-0.977,0.326-1.953,0.651-2.604,0.977c-0.326-0.651-0.977-0.651-1.302-2.604c-0.326-2.604,0.651-3.255,1.302-5.534
				c0.651,2.279,1.953,4.883,1.628,6.185c1.302-1.953,5.534-3.581,6.51-2.93C128.906,266.107,129.557,268.06,125.977,269.036"/>
		</g>
		<g>
			<path fill="#0B9E5C" d="M129.232,262.526c-1.953,0-1.953,0.651-2.604,0.977c0.326-0.977,0.977-1.953,1.953-2.604
				c-0.977,0.326-1.628,0.651-2.279,1.628c-0.326-0.326-0.977-0.651-1.628-2.604c-0.977-2.604,0.326-3.255,0.326-5.859
				c0.977,2.279,2.604,4.557,2.604,5.859c0.977-1.953,4.883-4.232,5.859-3.906C131.51,259.271,132.161,261.224,129.232,262.526"/>
		</g>
		<g>
			<path fill="#0B9E5C" d="M132.487,253.411c-1.953,0.326-1.953,0.651-2.604,0.977c0.326-0.977,0.977-1.953,1.953-2.604
				c-0.977,0.326-1.628,0.651-2.279,1.628c-0.326-0.326-0.977-0.326-1.953-2.604c-0.977-2.604,0.326-3.581,0.326-5.859
				c0.977,2.279,2.604,4.557,2.604,6.185c0.977-1.953,4.557-4.557,5.534-3.906C134.44,249.831,135.417,251.784,132.487,253.411"/>
		</g>
		<g>
			<path fill="#EFB780" d="M117.188,265.456c0,0-9.766,1.628-22.135-6.51c0.977-1.302,1.302-4.557,0.977-6.51
				c-0.326-1.628-0.326-0.326-0.651,0.651c-1.302,2.93-1.953,3.255-3.255,4.232c-3.581-3.581-4.232-3.581-8.789-6.51
				c-3.255-1.953-3.581-2.93-5.534-4.232c-3.255,1.628-8.138,4.557-10.742,2.604c-1.953-0.977,2.604-2.279,4.232-4.883
				c1.628-2.279,3.581-2.93,6.185-2.279c4.883,0.977,7.487,2.93,14.974,5.859c9.115,0.651,15.625,3.255,24.74,5.208
				c1.628,0.326,3.906,0.651,4.883,0.651C120.768,257.969,119.466,260.573,117.188,265.456"/>
		</g>
		<g>
			<path fill="#EFB780" d="M77.799,255.69c2.604,2.93,5.208,3.581,6.836,7.161c-0.651,0.977-1.628,1.302-2.93,0.651
				c-3.906-4.557-7.812-5.208-6.185-7.487c-0.977,0-1.628,0.977-1.302,1.628c0.651,3.255,4.232,4.557,5.534,7.161
				c-0.651,2.279-4.883,0.326-6.836-5.534v-0.326c-0.977,1.628-1.628,2.279,1.302,5.859c0.651,1.302,0.977,2.604-0.977,2.279
				c0.326,0.326-0.977,0-0.326,0h0.326c0,0-0.326,0-0.326-0.326c0.977-5.534-4.232-4.557-3.906-4.557
				c0.651-1.953-2.279-3.906-4.883-2.604c0.326-1.628-2.604-3.906-6.836-2.279c-0.651-1.628-4.557-2.93-8.138,1.628
				c-6.51,0.651-17.253,6.185-23.437,3.255c-0.326,0.326-3.906-10.417-4.232-10.742c7.487-0.651,24.414-1.953,30.273-4.557
				c4.883-2.93,13.672-4.557,15.625-3.581c-0.326,1.628-3.906,4.557-1.953,6.185c3.255,3.255,8.789,1.628,12.37-0.326
				c3.581,3.906,9.766,4.557,12.044,9.44l-0.651,1.628c-1.302,0.977-1.302,0.977-2.93-1.302c-3.581-4.883-6.836-3.581-7.487-7.161
				C76.823,253.411,77.799,254.714,77.799,255.69"/>
		</g>
		<g>
			<path fill="#EFB780" d="M60.221,265.456c-1.302,0.651,0.651-0.977,0.977-1.302l0.651-0.651c0.977-0.977,2.604-2.279,3.581-0.326
				c0.651,1.302-3.906,3.906-4.557,3.906c-0.651,0.326-0.977,0.326-1.302-0.326C59.245,266.107,59.57,265.781,60.221,265.456"/>
		</g>
		<g>
			<path fill="#EFB780" d="M56.315,264.805c-0.651,0.326-1.302,0.326-1.953-0.326c-0.326-0.651,0.977-2.279,1.628-2.93
				c0.651-0.651,0.977-0.651,0.977-0.651l0.977-0.651c1.628-0.326,1.628,0,1.953,0.651
				C60.221,261.549,57.292,264.805,56.315,264.805"/>
		</g>
		<g>
			<path fill="#EFB780" d="M67.057,265.781c0,0,1.953-1.953,2.604,0.651c0.326,0.977-1.628,2.279-3.581,2.93
				C65.43,268.711,63.151,268.711,67.057,265.781"/>
		</g>
		<g>
			<path fill="#EFB780" d="M52.083,261.875c-0.651,0.326-1.953-0.977-1.302-1.302l0.651-1.302c1.302-0.326,1.953-0.977,2.279-0.326
				C54.036,259.596,52.409,261.549,52.083,261.875"/>
		</g>
		<g>
			<path fill="#168FBA" d="M71.615,152.5c-29.622,0-53.711,31.25-54.687,70.638h109.701C125.326,184.076,101.237,152.5,71.615,152.5
				"/>
		</g>
		<g>
			<path fill="#231F20" d="M74.87,239.414v-31.25c0,0,10.742,0.326,13.021-0.326c0,0,3.906-1.628,4.557-4.883
				c0.326-2.279-1.302-9.115-1.628-10.417c0,0-1.953-1.302-1.953-2.93c0,0-0.977-11.719-3.581-15.299
				c-2.279-3.255-5.859-7.161-13.997-7.161c-7.812,0-11.719,5.208-12.37,8.789c-0.651,4.557,4.232,4.557,4.232,4.557
				s-2.279,1.953-2.93,2.93c-0.651,0.977-2.604,2.93-4.883,6.836c-2.279,3.906-3.581,10.417-2.604,12.37
				c0.977,1.953,4.557,4.557,8.789,5.208c4.232,0.326,7.161-0.326,7.161-0.326v30.924L74.87,239.414z"/>
		</g>
		<g>
			<path fill="#D93E26" d="M63.151,196.771c-3.255,0-4.557,1.628-7.161,1.953c0,0,0.651-5.859,6.185-12.695
				c2.279-2.604,7.812-5.534,10.742-6.836v-0.651c-2.604,0.326-9.115,1.628-10.742-1.302c-0.326-2.93,3.581-6.185,9.115-6.51
				c3.255,0,5.859,0.977,8.464,2.604c2.93,1.953,4.232,5.534,4.883,8.789c-3.906,1.628-4.557,2.279-5.208,2.604
				c0.651,0,1.302,0.326,2.604,0.326c1.302,0,2.279-0.326,2.93-0.326v1.953c0.326,0.326,0.651,0.651,0.651,0.977
				c-6.51,2.93-9.766,4.232-10.417,3.906c0,0,1.302,0.326,2.604,0.326c2.279,0,5.534-0.977,7.812-1.628c0,1.302,0,2.279,1.953,2.93
				l0,0l0,0c-6.836,3.581-9.115,3.255-9.766,2.93l-4.883-0.977c1.302,0.326,3.906,2.604,6.185,3.255
				c2.279,0.326,6.836-1.628,9.115-2.279l0.977,2.93c-3.906,0-8.464,5.859-14.323,3.581
				C71.289,200.352,67.383,196.771,63.151,196.771"/>
		</g>
		<g>
			<path fill="#D93E26" d="M68.685,204.909c-2.93,0-7.812,0-7.812-0.326c-1.628-0.326-5.534-2.604-4.883-2.93
				c0.326,0,1.302,0.326,4.883-1.302C65.104,198.724,68.685,203.932,68.685,204.909"/>
		</g>
		<g>
			<path fill="#D93E26" d="M89.518,201.654c-0.326,0.977-1.302,2.93-2.279,3.255c-0.977,0-4.557,0-6.836,0
				c1.628,0,2.604-0.651,3.581-0.977C90.169,200.677,89.518,201.654,89.518,201.654"/>
		</g>
		<g>
			<path fill="#FFFFFF" d="M68.359,316.562c0.326-0.977,0-2.279,0-2.279s-2.279,3.255-5.208,4.883
				c-2.604,1.628-7.161,2.604-7.812,2.604c0.651,0.651,1.302,1.302,1.953,1.628c0.651,0,4.232-0.326,7.487-2.604
				C66.732,319.818,68.359,316.562,68.359,316.562"/>
		</g>
		<g>
			<path fill="#168FBA" d="M75.195,316.562c-0.326-0.977,0-2.279,0-2.279s2.279,3.255,5.208,4.883
				c2.604,1.628,7.161,2.604,7.812,2.604c1.302-1.302,2.279-2.279,2.279-2.279s-4.232-0.651-8.138-1.628
				c-3.906-1.302-5.859-3.581-6.185-4.557c-0.326-0.651,0.326-2.604,0.977-2.93c0.651-0.651,7.161-0.977,6.836-6.51
				c-0.326-6.51-11.068-4.883-12.695-4.557c-1.302-0.326-12.37-2.279-12.37,4.557c-0.326,5.534,6.51,6.185,6.836,6.51
				c0.651,0.651,1.302,2.279,0.977,2.93c-0.326,0.651-1.953,3.255-5.859,4.557s-8.138,1.628-8.138,1.628s0.977,1.302,1.953,2.279
				c0.651-0.326,5.208-1.302,7.812-2.604c2.93-1.953,5.208-4.883,5.208-4.883s0.651,1.302,0,2.279c0,0-1.628,3.255-3.906,4.557
				c-3.255,2.279-6.836,2.279-7.487,2.604c0.977,0.651,2.279,1.302,3.255,1.302c6.836-0.326,9.44-7.813,9.44-7.813
				s0.977,0.651,1.953,0.651l0,0l0,0c0.977,0,1.953-0.651,1.953-0.651s2.604,7.813,9.44,7.813c0.977,0,2.279-0.651,3.255-1.302
				c-0.977,0-4.232-0.651-7.487-2.604C76.823,319.818,75.195,316.562,75.195,316.562"/>
		</g>
		<g>
			<path fill="#FFFFFF" d="M88.542,321.771c-0.977-0.326-5.208-1.302-7.812-2.604c-2.93-1.953-5.208-4.883-5.208-4.883
				s-0.326,1.302,0,2.279c0,0,1.628,3.255,3.906,4.557c3.255,1.953,6.51,2.279,7.487,2.604l0,0
				C87.24,323.073,87.891,322.422,88.542,321.771"/>
		</g>
		<g>
			<path fill="#FFFFFF" d="M66.732,301.263c0,0-1.628,1.302-1.953,2.93c-0.326,1.628,0.326,3.255,0.326,3.255
				s-3.581-1.302-3.255-3.581C61.849,300.286,66.732,301.263,66.732,301.263"/>
		</g>
		<g>
			<path fill="#FFFFFF" d="M77.148,301.263c0,0,1.628,1.302,1.953,2.93c0.326,1.628-0.326,3.255-0.326,3.255
				s3.581-1.302,3.581-3.581C81.706,300.286,77.148,301.263,77.148,301.263"/>
		</g>
		<g>
			<path fill="#FFFFFF" d="M71.94,302.565h-0.326c-6.185,0-2.604,5.534-2.604,5.534s0.977-0.651,2.604-0.651h0.651
				c1.628,0,2.604,0.651,2.604,0.651S78.125,302.565,71.94,302.565"/>
		</g>
		<g>
			<path fill="#FFFFFF" d="M72.266,310.052H71.94l0,0h-0.326c-1.628,0-1.628,0.977-1.628,1.628s0.326,4.232,1.628,4.232l0,0h0.326
				c1.302,0,1.628-3.255,1.628-4.232S73.893,310.052,72.266,310.052"/>
		</g>
	</g>
</g>
</svg>
