<!-- Generator: Adobe Illustrator 21.0.0, SVG Export Plug-In  -->
<svg version="1.1"
	 xmlns="http://www.w3.org/2000/svg" xmlns:xlink="http://www.w3.org/1999/xlink" xmlns:a="http://ns.adobe.com/AdobeSVGViewerExtensions/3.0/"
	 x="0px" y="0px" width="157.8px" height="157.8px" viewBox="0 0 157.8 157.8" style="enable-background:new 0 0 157.8 157.8;"
	 xml:space="preserve">
<style type="text/css">
	.st0{fill:#BC8EB6;}
	.st1{fill:#CCECF4;}
	.st2{fill:#FFFFFF;}
	.st3{fill:#83D0E3;}
</style>
<defs>
</defs>
<g>
	<circle class="st0" cx="78.9" cy="78.9" r="78.9"/>
	<g>
		<path class="st1" d="M96.5,10c-14.9-3.7-28.1,7.3-38.2,16.8c43.4-23.5,50.4,9.6,51.6,24.1c3,34.8-37.1,72.7-63.5,38.8
			c-18.4-23.6,5.5-43,22.4-37.8C84.7,56.8,84.2,68.2,77,76c-11.7,12.5-25.6-3.8-13-10.6c-9.8,2-13.6,13.5-7.9,20.3
			c10.5,12.4,30.4,0.7,34.1-7.2C103.3,50.6,80,37.1,58.6,38.4c-10,0.6-19.9,7.9-26.1,15.7c-16.3,20.5-9,61.2,44.6,60.2
			c11.7-0.2,25.1-1.9,36.6-15.4C130.1,79.4,137.5,20.2,96.5,10z"/>
	</g>
	<g>
		<path class="st2" d="M52.6,124.3h0.5l3.5,8.2h-0.6l-1.1-2.7h-3.9l-1.1,2.7h-0.6L52.6,124.3z M54.6,129.3l-1.8-4.3l-1.8,4.3H54.6z"
			/>
		<path class="st2" d="M59.9,132.6c-0.4,0-0.8-0.1-1.1-0.3c-0.3-0.2-0.6-0.4-0.9-0.7c-0.3-0.3-0.4-0.6-0.6-1
			c-0.1-0.4-0.2-0.8-0.2-1.1c0-0.4,0.1-0.8,0.2-1.2c0.1-0.4,0.3-0.7,0.6-1c0.2-0.3,0.5-0.5,0.9-0.7s0.7-0.3,1.1-0.3
			c0.5,0,1,0.1,1.4,0.4c0.4,0.3,0.7,0.6,1,1v-1.3h0.5v6.1c0,0.4-0.1,0.8-0.2,1.1c-0.2,0.3-0.4,0.6-0.6,0.8c-0.3,0.2-0.6,0.4-0.9,0.5
			c-0.3,0.1-0.7,0.2-1.1,0.2c-0.3,0-0.7,0-0.9-0.1c-0.3-0.1-0.5-0.2-0.7-0.3c-0.2-0.1-0.4-0.3-0.6-0.4c-0.2-0.2-0.3-0.4-0.4-0.6
			l0.4-0.3c0.2,0.4,0.6,0.7,1,0.9c0.4,0.2,0.8,0.3,1.3,0.3c0.3,0,0.6,0,0.9-0.1c0.3-0.1,0.5-0.2,0.7-0.4c0.2-0.2,0.4-0.4,0.5-0.6
			c0.1-0.2,0.2-0.5,0.2-0.9v-1.3c-0.2,0.4-0.6,0.7-1,0.9C60.8,132.5,60.4,132.6,59.9,132.6z M60,132.1c0.3,0,0.5,0,0.7-0.1
			c0.2-0.1,0.5-0.2,0.7-0.4c0.2-0.2,0.4-0.3,0.5-0.5c0.1-0.2,0.2-0.4,0.2-0.6v-2c-0.1-0.2-0.2-0.4-0.4-0.6c-0.2-0.2-0.3-0.4-0.5-0.5
			c-0.2-0.1-0.4-0.2-0.6-0.3c-0.2-0.1-0.5-0.1-0.7-0.1c-0.4,0-0.7,0.1-1,0.2c-0.3,0.2-0.5,0.4-0.7,0.6c-0.2,0.2-0.3,0.5-0.5,0.8
			c-0.1,0.3-0.2,0.6-0.2,0.9c0,0.3,0.1,0.7,0.2,1c0.1,0.3,0.3,0.6,0.5,0.8c0.2,0.2,0.5,0.4,0.8,0.6S59.7,132.1,60,132.1z"/>
		<path class="st2" d="M66.4,132.6c-1.3,0-1.9-0.9-1.9-2.7v-3.5h0.6v3.4c0,1.5,0.5,2.2,1.5,2.2c0.3,0,0.5,0,0.7-0.1
			c0.2-0.1,0.5-0.2,0.7-0.4c0.2-0.2,0.4-0.3,0.5-0.6c0.2-0.2,0.3-0.5,0.4-0.7v-3.8h0.6v5.2c0,0.2,0.1,0.3,0.2,0.3v0.5
			c0,0-0.1,0-0.1,0c0,0-0.1,0-0.1,0c-0.2,0-0.3,0-0.4-0.1c-0.1-0.1-0.2-0.2-0.2-0.4v-0.9c-0.3,0.5-0.6,0.9-1.1,1.1
			C67.5,132.5,67,132.6,66.4,132.6z"/>
		<path class="st2" d="M72.8,132.6c-0.3,0-0.5,0-0.8-0.1c-0.2-0.1-0.4-0.2-0.6-0.4c-0.2-0.2-0.3-0.4-0.4-0.6
			c-0.1-0.2-0.2-0.5-0.2-0.7c0-0.3,0.1-0.5,0.2-0.7s0.3-0.4,0.5-0.6c0.2-0.2,0.5-0.3,0.8-0.4c0.3-0.1,0.6-0.1,1-0.1
			c0.3,0,0.7,0,1,0.1c0.3,0.1,0.6,0.1,0.9,0.2v-0.6c0-0.6-0.2-1-0.5-1.4c-0.3-0.3-0.8-0.5-1.3-0.5c-0.3,0-0.6,0.1-0.9,0.2
			c-0.3,0.1-0.7,0.3-1,0.5l-0.2-0.4c0.8-0.5,1.5-0.8,2.2-0.8c0.7,0,1.3,0.2,1.7,0.6c0.4,0.4,0.6,1,0.6,1.7v2.9
			c0,0.2,0.1,0.3,0.3,0.3v0.5c0,0-0.1,0-0.1,0c0,0-0.1,0-0.1,0c-0.2,0-0.3-0.1-0.4-0.2c-0.1-0.1-0.1-0.2-0.2-0.4v-0.5
			c-0.3,0.4-0.6,0.6-1.1,0.8C73.8,132.5,73.3,132.6,72.8,132.6z M73,132.1c0.4,0,0.9-0.1,1.2-0.3c0.4-0.2,0.7-0.4,0.9-0.7
			c0.1-0.2,0.2-0.3,0.2-0.5v-1.1c-0.3-0.1-0.6-0.2-0.9-0.2c-0.3-0.1-0.6-0.1-0.9-0.1c-0.3,0-0.6,0-0.8,0.1c-0.2,0.1-0.5,0.2-0.6,0.3
			c-0.2,0.1-0.3,0.3-0.4,0.4c-0.1,0.2-0.1,0.3-0.1,0.5c0,0.2,0,0.4,0.1,0.6c0.1,0.2,0.2,0.3,0.3,0.5c0.1,0.1,0.3,0.2,0.5,0.3
			C72.5,132.1,72.7,132.1,73,132.1z"/>
		<path class="st2" d="M83.5,132.6c-0.5,0-1-0.1-1.4-0.4c-0.4-0.3-0.7-0.6-1-1v3.8h-0.6v-8.5h0.5v1.2c0.2-0.4,0.6-0.7,1-0.9
			s0.8-0.4,1.3-0.4c0.4,0,0.8,0.1,1.2,0.3c0.4,0.2,0.7,0.4,0.9,0.7c0.3,0.3,0.5,0.6,0.6,1c0.1,0.4,0.2,0.8,0.2,1.2
			c0,0.4-0.1,0.8-0.2,1.2c-0.1,0.4-0.3,0.7-0.6,1c-0.2,0.3-0.5,0.5-0.9,0.7C84.3,132.5,83.9,132.6,83.5,132.6z M83.4,132.1
			c0.3,0,0.7-0.1,0.9-0.2c0.3-0.1,0.5-0.3,0.7-0.6c0.2-0.2,0.4-0.5,0.5-0.8c0.1-0.3,0.2-0.6,0.2-1c0-0.3-0.1-0.7-0.2-1
			c-0.1-0.3-0.3-0.6-0.5-0.8c-0.2-0.2-0.5-0.4-0.8-0.6c-0.3-0.1-0.6-0.2-0.9-0.2c-0.2,0-0.4,0-0.7,0.1c-0.2,0.1-0.5,0.2-0.7,0.4
			c-0.2,0.2-0.4,0.3-0.5,0.5c-0.1,0.2-0.2,0.4-0.3,0.6v2c0.1,0.2,0.2,0.4,0.4,0.6c0.2,0.2,0.3,0.4,0.5,0.5c0.2,0.1,0.4,0.3,0.6,0.3
			C82.9,132,83.1,132.1,83.4,132.1z"/>
		<path class="st2" d="M89.1,132.6c-0.3,0-0.5,0-0.8-0.1c-0.2-0.1-0.4-0.2-0.6-0.4c-0.2-0.2-0.3-0.4-0.4-0.6
			c-0.1-0.2-0.2-0.5-0.2-0.7c0-0.3,0.1-0.5,0.2-0.7s0.3-0.4,0.5-0.6c0.2-0.2,0.5-0.3,0.8-0.4c0.3-0.1,0.6-0.1,1-0.1
			c0.3,0,0.7,0,1,0.1c0.3,0.1,0.6,0.1,0.9,0.2v-0.6c0-0.6-0.2-1-0.5-1.4c-0.3-0.3-0.8-0.5-1.3-0.5c-0.3,0-0.6,0.1-0.9,0.2
			c-0.3,0.1-0.7,0.3-1,0.5l-0.2-0.4c0.8-0.5,1.5-0.8,2.2-0.8c0.7,0,1.3,0.2,1.7,0.6c0.4,0.4,0.6,1,0.6,1.7v2.9
			c0,0.2,0.1,0.3,0.3,0.3v0.5c0,0-0.1,0-0.1,0c0,0-0.1,0-0.1,0c-0.2,0-0.3-0.1-0.4-0.2c-0.1-0.1-0.1-0.2-0.2-0.4v-0.5
			c-0.3,0.4-0.6,0.6-1.1,0.8C90.1,132.5,89.6,132.6,89.1,132.6z M89.2,132.1c0.4,0,0.9-0.1,1.2-0.3c0.4-0.2,0.7-0.4,0.9-0.7
			c0.1-0.2,0.2-0.3,0.2-0.5v-1.1c-0.3-0.1-0.6-0.2-0.9-0.2c-0.3-0.1-0.6-0.1-0.9-0.1c-0.3,0-0.6,0-0.8,0.1c-0.2,0.1-0.5,0.2-0.6,0.3
			c-0.2,0.1-0.3,0.3-0.4,0.4c-0.1,0.2-0.1,0.3-0.1,0.5c0,0.2,0,0.4,0.1,0.6c0.1,0.2,0.2,0.3,0.3,0.5c0.1,0.1,0.3,0.2,0.5,0.3
			C88.8,132.1,89,132.1,89.2,132.1z"/>
		<path class="st2" d="M96.7,127c-0.5,0-1,0.2-1.4,0.5c-0.4,0.3-0.7,0.7-0.9,1.3v3.8h-0.6v-6h0.6v1.5c0.2-0.4,0.5-0.8,0.8-1
			c0.3-0.3,0.7-0.4,1.1-0.5c0.1,0,0.1,0,0.2,0c0.1,0,0.1,0,0.2,0V127z"/>
		<path class="st2" d="M99.2,132.6c-0.3,0-0.5,0-0.8-0.1c-0.2-0.1-0.4-0.2-0.6-0.4c-0.2-0.2-0.3-0.4-0.4-0.6
			c-0.1-0.2-0.2-0.5-0.2-0.7c0-0.3,0.1-0.5,0.2-0.7s0.3-0.4,0.5-0.6c0.2-0.2,0.5-0.3,0.8-0.4c0.3-0.1,0.6-0.1,1-0.1
			c0.3,0,0.7,0,1,0.1c0.3,0.1,0.6,0.1,0.9,0.2v-0.6c0-0.6-0.2-1-0.5-1.4c-0.3-0.3-0.8-0.5-1.3-0.5c-0.3,0-0.6,0.1-0.9,0.2
			c-0.3,0.1-0.7,0.3-1,0.5l-0.2-0.4c0.8-0.5,1.5-0.8,2.2-0.8c0.7,0,1.3,0.2,1.7,0.6c0.4,0.4,0.6,1,0.6,1.7v2.9
			c0,0.2,0.1,0.3,0.3,0.3v0.5c0,0-0.1,0-0.1,0c0,0-0.1,0-0.1,0c-0.2,0-0.3-0.1-0.4-0.2c-0.1-0.1-0.1-0.2-0.2-0.4v-0.5
			c-0.3,0.4-0.6,0.6-1.1,0.8C100.2,132.5,99.7,132.6,99.2,132.6z M99.3,132.1c0.4,0,0.9-0.1,1.2-0.3c0.4-0.2,0.7-0.4,0.9-0.7
			c0.1-0.2,0.2-0.3,0.2-0.5v-1.1c-0.3-0.1-0.6-0.2-0.9-0.2c-0.3-0.1-0.6-0.1-0.9-0.1c-0.3,0-0.6,0-0.8,0.1c-0.2,0.1-0.5,0.2-0.6,0.3
			c-0.2,0.1-0.3,0.3-0.4,0.4c-0.1,0.2-0.1,0.3-0.1,0.5c0,0.2,0,0.4,0.1,0.6c0.1,0.2,0.2,0.3,0.3,0.5c0.1,0.1,0.3,0.2,0.5,0.3
			C98.9,132.1,99.1,132.1,99.3,132.1z"/>
		<path class="st2" d="M60.1,137.9h0.6v7.3c0,0.2,0.1,0.4,0.2,0.5c0.1,0.1,0.3,0.2,0.5,0.2c0.1,0,0.2,0,0.3,0c0.1,0,0.2,0,0.3-0.1
			l0.1,0.5c-0.1,0.1-0.3,0.1-0.5,0.1c-0.2,0-0.4,0.1-0.5,0.1c-0.3,0-0.6-0.1-0.8-0.3c-0.2-0.2-0.3-0.5-0.3-0.8V137.9z"/>
		<path class="st2" d="M64.5,146.5c-0.3,0-0.5,0-0.8-0.1c-0.2-0.1-0.4-0.2-0.6-0.4c-0.2-0.2-0.3-0.4-0.4-0.6
			c-0.1-0.2-0.2-0.5-0.2-0.7s0.1-0.5,0.2-0.7s0.3-0.4,0.5-0.6c0.2-0.2,0.5-0.3,0.8-0.4c0.3-0.1,0.6-0.1,1-0.1c0.3,0,0.7,0,1,0.1
			c0.3,0.1,0.6,0.1,0.9,0.2v-0.6c0-0.6-0.2-1-0.5-1.4c-0.3-0.3-0.8-0.5-1.3-0.5c-0.3,0-0.6,0.1-0.9,0.2c-0.3,0.1-0.7,0.3-1,0.5
			l-0.2-0.4c0.8-0.5,1.5-0.8,2.2-0.8c0.7,0,1.3,0.2,1.7,0.6c0.4,0.4,0.6,1,0.6,1.7v2.9c0,0.2,0.1,0.3,0.3,0.3v0.5c0,0-0.1,0-0.1,0
			c0,0-0.1,0-0.1,0c-0.2,0-0.3-0.1-0.4-0.2c-0.1-0.1-0.1-0.2-0.2-0.4v-0.5c-0.3,0.4-0.6,0.6-1.1,0.8C65.5,146.4,65,146.5,64.5,146.5
			z M64.6,146c0.4,0,0.9-0.1,1.2-0.3c0.4-0.2,0.7-0.4,0.9-0.7c0.1-0.2,0.2-0.3,0.2-0.5v-1.1c-0.3-0.1-0.6-0.2-0.9-0.2
			c-0.3-0.1-0.6-0.1-0.9-0.1c-0.3,0-0.6,0-0.8,0.1c-0.2,0.1-0.5,0.2-0.6,0.3c-0.2,0.1-0.3,0.3-0.4,0.4c-0.1,0.2-0.1,0.3-0.1,0.5
			c0,0.2,0,0.4,0.1,0.6c0.1,0.2,0.2,0.3,0.3,0.5c0.1,0.1,0.3,0.2,0.5,0.3C64.2,146,64.4,146,64.6,146z"/>
		<path class="st2" d="M73.8,146.4l-2.5-6h0.6l2.2,5.4l2.2-5.4h0.6l-2.5,6H73.8z"/>
		<path class="st2" d="M78,139v-1.1h0.6v1.1H78z M78,146.4v-6h0.6v6H78z"/>
		<path class="st2" d="M82.9,146.5c-0.4,0-0.8-0.1-1.2-0.3c-0.4-0.2-0.7-0.4-0.9-0.7c-0.3-0.3-0.5-0.6-0.6-1
			c-0.1-0.4-0.2-0.8-0.2-1.2c0-0.4,0.1-0.8,0.2-1.2c0.1-0.4,0.3-0.7,0.6-1c0.2-0.3,0.5-0.5,0.9-0.7c0.3-0.2,0.7-0.3,1.1-0.3
			c0.3,0,0.5,0,0.7,0.1c0.2,0.1,0.4,0.2,0.6,0.3c0.2,0.1,0.4,0.3,0.5,0.4c0.2,0.2,0.3,0.4,0.4,0.5v-3.7h0.6v7.6
			c0,0.2,0.1,0.3,0.2,0.3v0.5c0,0-0.1,0-0.1,0c0,0-0.1,0-0.1,0c-0.2,0-0.3-0.1-0.4-0.2c-0.1-0.1-0.2-0.2-0.2-0.4v-0.7
			c-0.2,0.4-0.6,0.7-1,1C83.8,146.4,83.3,146.5,82.9,146.5z M83,146c0.2,0,0.4,0,0.7-0.1c0.2-0.1,0.5-0.2,0.7-0.4
			c0.2-0.2,0.4-0.3,0.5-0.5c0.1-0.2,0.2-0.4,0.3-0.6v-2c-0.1-0.2-0.2-0.4-0.4-0.6c-0.2-0.2-0.3-0.4-0.5-0.5
			c-0.2-0.1-0.4-0.3-0.6-0.3c-0.2-0.1-0.5-0.1-0.7-0.1c-0.3,0-0.7,0.1-0.9,0.2c-0.3,0.2-0.5,0.3-0.7,0.6c-0.2,0.2-0.4,0.5-0.5,0.8
			c-0.1,0.3-0.2,0.6-0.2,1c0,0.3,0.1,0.7,0.2,1c0.1,0.3,0.3,0.6,0.5,0.8c0.2,0.2,0.5,0.4,0.8,0.6C82.3,145.9,82.7,146,83,146z"/>
		<path class="st2" d="M89,146.5c-0.3,0-0.5,0-0.8-0.1c-0.2-0.1-0.4-0.2-0.6-0.4c-0.2-0.2-0.3-0.4-0.4-0.6c-0.1-0.2-0.2-0.5-0.2-0.7
			s0.1-0.5,0.2-0.7s0.3-0.4,0.5-0.6c0.2-0.2,0.5-0.3,0.8-0.4c0.3-0.1,0.6-0.1,1-0.1c0.3,0,0.7,0,1,0.1c0.3,0.1,0.6,0.1,0.9,0.2v-0.6
			c0-0.6-0.2-1-0.5-1.4c-0.3-0.3-0.8-0.5-1.3-0.5c-0.3,0-0.6,0.1-0.9,0.2c-0.3,0.1-0.7,0.3-1,0.5l-0.2-0.4c0.8-0.5,1.5-0.8,2.2-0.8
			c0.7,0,1.3,0.2,1.7,0.6c0.4,0.4,0.6,1,0.6,1.7v2.9c0,0.2,0.1,0.3,0.3,0.3v0.5c0,0-0.1,0-0.1,0c0,0-0.1,0-0.1,0
			c-0.2,0-0.3-0.1-0.4-0.2c-0.1-0.1-0.1-0.2-0.2-0.4v-0.5c-0.3,0.4-0.6,0.6-1.1,0.8C90,146.4,89.5,146.5,89,146.5z M89.1,146
			c0.4,0,0.9-0.1,1.2-0.3c0.4-0.2,0.7-0.4,0.9-0.7c0.1-0.2,0.2-0.3,0.2-0.5v-1.1c-0.3-0.1-0.6-0.2-0.9-0.2c-0.3-0.1-0.6-0.1-0.9-0.1
			c-0.3,0-0.6,0-0.8,0.1c-0.2,0.1-0.5,0.2-0.6,0.3c-0.2,0.1-0.3,0.3-0.4,0.4c-0.1,0.2-0.1,0.3-0.1,0.5c0,0.2,0,0.4,0.1,0.6
			c0.1,0.2,0.2,0.3,0.3,0.5c0.1,0.1,0.3,0.2,0.5,0.3C88.7,146,88.9,146,89.1,146z"/>
	</g>
	<path class="st3" d="M157.8,78.9c0-31.1-18.1-58.1-44.3-70.9c11.2,6.9,21.8,19.5,26.1,42.7c3.5,27.3-2.5,66.5-6.1,85.1
		C148.5,121.4,157.8,101.3,157.8,78.9z"/>
	<path class="st3" d="M78.1,0C45.4,0.3,17.4,20.6,5.8,49.3c5.6-3.7,10.9-7.7,15.9-12C38.7,22.7,50.8,4.5,78.1,0z"/>
</g>
</svg>
