<!-- Generator: Adobe Illustrator 21.0.0, SVG Export Plug-In  -->
<svg version="1.1"
	 xmlns="http://www.w3.org/2000/svg" xmlns:xlink="http://www.w3.org/1999/xlink" xmlns:a="http://ns.adobe.com/AdobeSVGViewerExtensions/3.0/"
	 x="0px" y="0px" width="171.6px" height="176.6px" viewBox="0 0 171.6 176.6" style="enable-background:new 0 0 171.6 176.6;"
	 xml:space="preserve">
<style type="text/css">
	.st0{fill:#AED9D6;}
</style>
<defs>
</defs>
<g>
	<path class="st0" d="M120.6,1.2C95.5-5,73.3,13.5,56.3,29.4c73-39.5,84.7,16.2,86.8,40.5c5.1,58.6-62.4,122.2-106.8,65.3
		C5.5,95.6,45.6,62.8,74,71.6c26.8,8.3,26,27.6,13.8,40.6c-19.7,21-43-6.5-21.8-17.9c-16.5,3.3-23,22.8-13.4,34.2
		c17.6,20.9,51.1,1.3,57.4-12.1C132,69.5,92.9,46.9,56.9,49c-16.8,1-33.5,13.2-44,26.4c-27.5,34.5-15.1,103,75,101.2
		c19.7-0.4,42.2-3.3,61.5-25.9C177.3,118,189.6,18.4,120.6,1.2z"/>
</g>
</svg>
