<!-- Generator: Adobe Illustrator 21.0.0, SVG Export Plug-In  -->
<svg version="1.1"
	 xmlns="http://www.w3.org/2000/svg" xmlns:xlink="http://www.w3.org/1999/xlink" xmlns:a="http://ns.adobe.com/AdobeSVGViewerExtensions/3.0/"
	 x="0px" y="0px" width="225px" height="225px" viewBox="0 0 225 225" style="enable-background:new 0 0 225 225;"
	 xml:space="preserve">
<style type="text/css">
	.st0{fill:#113958;}
	.st1{opacity:0.7;fill:#62B762;}
	.st2{opacity:0.7;}
	.st3{fill:#62B762;}
	.st4{fill:#FFFFFF;}
</style>
<defs>
</defs>
<circle class="st0" cx="112.5" cy="112.5" r="112.5"/>
<path class="st1" d="M178.1,62.5c5.6-2,10.2-3.3,13-8.9c2.1-4.2,3.5-11.2,2-15.7c6-4.7,5.1,12.6,4.4,15c-2.2,7.8-8.7,15.5-15,20.3"
	/>
<g class="st2">
	<path class="st3" d="M207.9,77.5c3.3-6.1-3.6-14.7-6.2-20.1c-4.3-8.9-9.5-17.4-13.5-26.4c0.5-0.1,0.9-0.3,1.3-0.5l8.2,8.5
		c1.8,7.1,8,15.6,10.5,21c2,4.3,2.5,6.5,3.8,10.9"/>
</g>
<path class="st1" d="M59.4,69.3c0.6,0,1,0.2,1.4,0.4c5.2,1.3,11.9,1.1,16.6-1c0.5-0.4,1.4-0.8,0.8-1.4c0-0.8-1.4-0.6-2-1.3
	c-3.2-1.1-7.4-1.3-11.2-0.7c-2.9,0.8-5.9,1.5-8.6,2.9l-0.3,0L56,68.5C57.2,68.6,58.1,69.3,59.4,69.3z"/>
<path class="st1" d="M75.5,84.1c2.6-2,4.8-7.1,4.2-11.3c-0.3-2.4-1.6-3.9-2.4-5.5c-0.4-0.9,0.1-1.5,0-2.3c-0.1,0-0.1-0.1-0.2-0.1
	c-0.2,0.1-0.2,0.1-0.3,0.2c0.1,2.2-1.6,2.4-2.7,3.8c-1.8,2.1-2.3,6.6-0.5,10.9C74.4,81.4,74.6,83.5,75.5,84.1z"/>
<path class="st1" d="M80.2,64.3c-3.5,0.1-8.8,2.1-11.4,5c-1.5,1.6-1.6,3.1-2.1,4.4c-0.3,0.7-1.2,0.9-1.7,1.4c0,0,0,0.1,0,0.1
	c0.2,0,0.2,0,0.4,0c1.5-1.4,3-0.8,4.8-1.1c2.9-0.5,6.6-3,8.3-6.4C79.2,66.6,80.5,65.2,80.2,64.3z"/>
<path class="st1" d="M86.7,204.9c1.7,1.7,2.7,4.9,1.7,6.9c-0.6,1.2-1.8,1.6-2.5,2.2c-0.4,0.4-0.1,0.8-0.3,1.2c0,0-0.1,0-0.1,0
	c-0.1-0.1-0.1-0.1-0.2-0.2c0.4-1.1-0.9-1.7-1.5-2.6c-1.1-1.6-0.9-4,1-5.8C85.5,206.1,85.9,205,86.7,204.9z"/>
<path class="st1" d="M140.3,111.4c0.7,0,1.3,0.3,1.9,0.5c7,1.7,16.1,1.5,22.3-1.3c0.7-0.6,1.9-1.1,1-1.9c-0.1-1.1-1.9-0.9-2.7-1.7
	c-4.3-1.5-10-1.8-15-1c-3.9,1.1-8,2-11.6,3.9l-0.4,0l-0.1,0.5C137.3,110.5,138.6,111.4,140.3,111.4z"/>
<path class="st1" d="M162,131.4c3.5-2.8,6.5-9.5,5.7-15.2c-0.4-3.2-2.2-5.3-3.2-7.4c-0.6-1.2,0.1-2,0-3.1c-0.1-0.1-0.2-0.1-0.2-0.2
	c-0.2,0.1-0.3,0.2-0.4,0.3c0.2,3-2.1,3.3-3.6,5.1c-2.4,2.9-3.1,8.9-0.7,14.7C160.5,127.7,160.8,130.5,162,131.4z"/>
<path class="st1" d="M168.4,104.7c-4.7,0.1-11.9,2.9-15.4,6.7c-2,2.2-2.1,4.2-2.8,6c-0.4,1-1.6,1.2-2.2,1.9c0,0.1,0,0.1,0.1,0.2
	c0.3,0,0.3,0,0.5,0c2-1.9,4-1.1,6.4-1.5c4-0.7,8.9-4,11.2-8.7C166.9,107.7,168.7,105.8,168.4,104.7z"/>
<path class="st1" d="M85.2,221.7c3.6,0.8,10.2-2.7,7.4-9.7c-0.5-0.2-6,4.6-7.5,6.3c-1.1-1.1-5.5-8.3-7-7.7
	C75,215.4,79.6,221.1,85.2,221.7z"/>
<path class="st1" d="M131.5,50.1c10.1-3.8,11.6,16.8,9.2,22.5c-3.6,0.1-12.4-12.8-11.2-19.7C129.6,51.6,130.8,51.1,131.5,50.1z"/>
<path class="st1" d="M145.3,30.9c-0.7,1.8-1.9,3.4-2,5.6c0.1,3.3-0.5,6.3-1.7,9.1c-2.2,4.1-5.1,8.2-9.5,6.6
	c-0.1-0.1-0.2-0.1-0.2-0.1l0,0.1l-0.1-0.1c0,0,0.1,0,0.1-0.1c-0.3-0.1-0.6-0.3-0.8-0.1c-0.3,0-0.4-0.4-0.4-0.7
	c-0.5-2.7,0.2-5.1,0.8-7.3c0.2-0.4,0.4-1,0.6-1.3c0.4-0.7,0.8-1.2,1.3-1.7l0.1,0.1c0.8-1.4,2-2,2.6-3.4c0.2-0.2,0.4-0.4,0.7-0.6l0,0
	c0.6-0.3,1-1,1.7-1.1c0.7-0.6,1.4-0.6,2.3-0.9l0-0.2c0.2,0.2,0.5,0,0.7-0.1c0.5-0.5,1-0.6,1.4-1.1c0.8-1.1,1.5-2.2,2.3-3.3l0.2,0.1
	L145.3,30.9z"/>
<path class="st1" d="M146.5,55.9c-0.6,0-1.2,0.3-1.8,0.6c-6.6,1.9-14.2,1.6-18.2-1.6c-0.3-0.7-1.1-1.2-0.1-2.1c0.5-1.2,2-1,3-1.9
	c4.3-1.6,9.2-1.9,13.1-1c2.9,1.3,5.9,2.3,8.1,4.4h0.4l-0.1,0.5C149.4,54.9,147.9,55.9,146.5,55.9z"/>
<path class="st1" d="M124.3,181.9c4.5,15.2-18.4,12.1-24.8,7.2c-0.2-5.1,14-14.2,21.6-10.8C122.7,178.9,123.3,180.7,124.3,181.9z"/>
<path class="st1" d="M124,170.9c-0.3,0.2-0.3,0.7-0.3,1c-1.4,3.6-5,6.1-9.2,5.4c-0.7-0.3-1.4-0.4-1.6-1.3c-0.7-1,0.1-1.4-0.2-2.3
	c0.6-2.6,2.5-4.5,4.9-5.4c2.2-0.2,4.4-0.6,6.9,0l0.2-0.1l0.3,0.4C124.5,169.2,124.6,170.4,124,170.9z"/>
<path class="st1" d="M103,192.3c0.6-0.1,1,0.1,1.4,0.3c5.4,0.8,12.6,0,17.8-2.7c0.6-0.5,1.6-1,0.9-1.5c0-0.9-1.5-0.5-2-1.1
	c-3.3-0.8-7.8-0.6-11.8,0.3c-3.2,1.2-6.5,2.2-9.4,3.8l-0.3,0l-0.1,0.4C100.7,191.8,101.6,192.4,103,192.3z"/>
<g>
	<path class="st4" d="M19.9,112h0.8l5.4,12.8h-1l-1.8-4.2h-6.1l-1.8,4.2h-1L19.9,112z M23.1,119.8l-2.8-6.7l-2.8,6.7H23.1z"/>
	<path class="st4" d="M32.4,125c-0.8,0-1.5-0.2-2.2-0.6c-0.6-0.4-1.1-0.9-1.5-1.6v5.8h-0.9v-13.2h0.8v1.9c0.4-0.6,0.9-1.1,1.5-1.5
		s1.3-0.6,2-0.6c0.6,0,1.2,0.1,1.8,0.4c0.6,0.3,1,0.6,1.4,1.1c0.4,0.5,0.7,1,0.9,1.6c0.2,0.6,0.3,1.2,0.3,1.8c0,0.6-0.1,1.3-0.3,1.9
		c-0.2,0.6-0.5,1.1-0.9,1.5s-0.8,0.8-1.4,1.1S33,125,32.4,125z M32.2,124.1c0.5,0,1-0.1,1.5-0.3c0.4-0.2,0.8-0.5,1.1-0.9
		c0.3-0.4,0.6-0.8,0.7-1.3c0.2-0.5,0.3-1,0.3-1.5c0-0.5-0.1-1.1-0.3-1.5c-0.2-0.5-0.5-0.9-0.8-1.3s-0.7-0.7-1.2-0.9
		c-0.5-0.2-0.9-0.3-1.5-0.3c-0.3,0-0.7,0.1-1,0.2c-0.4,0.1-0.7,0.3-1,0.6c-0.3,0.2-0.6,0.5-0.8,0.8c-0.2,0.3-0.4,0.6-0.4,1v3.1
		c0.2,0.3,0.4,0.7,0.6,1s0.5,0.6,0.8,0.8c0.3,0.2,0.6,0.4,1,0.5C31.4,124.1,31.8,124.1,32.2,124.1z"/>
	<path class="st4" d="M43.3,116.2c-0.8,0-1.6,0.3-2.2,0.7c-0.6,0.5-1.1,1.1-1.3,2v5.8h-0.9v-9.4h0.9v2.3c0.3-0.7,0.8-1.2,1.3-1.6
		c0.5-0.4,1.1-0.7,1.7-0.7c0.1,0,0.2,0,0.3,0c0.1,0,0.2,0,0.2,0V116.2z"/>
	<path class="st4" d="M48.5,125c-0.7,0-1.3-0.1-1.8-0.4c-0.6-0.3-1.1-0.6-1.5-1.1c-0.4-0.5-0.7-1-1-1.6c-0.2-0.6-0.4-1.2-0.4-1.9
		c0-0.7,0.1-1.3,0.4-1.9c0.2-0.6,0.6-1.1,1-1.5c0.4-0.4,0.9-0.8,1.4-1c0.6-0.3,1.2-0.4,1.8-0.4c0.7,0,1.3,0.1,1.8,0.4s1,0.6,1.5,1
		c0.4,0.4,0.7,0.9,1,1.5s0.3,1.2,0.3,1.8c0,0.1,0,0.1,0,0.2s0,0.1,0,0.2h-8.2c0,0.5,0.2,1,0.4,1.5c0.2,0.5,0.5,0.9,0.8,1.2
		c0.3,0.3,0.7,0.6,1.1,0.8c0.4,0.2,0.9,0.3,1.4,0.3c0.3,0,0.6,0,1-0.1s0.6-0.2,0.9-0.4c0.3-0.2,0.5-0.3,0.7-0.6
		c0.2-0.2,0.4-0.5,0.5-0.7l0.8,0.2c-0.1,0.3-0.3,0.6-0.6,0.9c-0.3,0.3-0.6,0.5-0.9,0.7c-0.3,0.2-0.7,0.4-1.1,0.5
		C49.3,124.9,48.9,125,48.5,125z M52.1,119.7c0-0.6-0.2-1.1-0.4-1.5s-0.5-0.8-0.8-1.2s-0.7-0.6-1.1-0.8c-0.4-0.2-0.9-0.3-1.4-0.3
		c-0.5,0-1,0.1-1.4,0.3c-0.4,0.2-0.8,0.4-1.1,0.8s-0.6,0.7-0.8,1.2s-0.3,1-0.4,1.5H52.1z"/>
	<path class="st4" d="M62.6,124.8h-0.9v-5.2c0-1.2-0.2-2.1-0.5-2.6c-0.3-0.6-0.9-0.8-1.6-0.8c-0.4,0-0.8,0.1-1.2,0.2
		c-0.4,0.1-0.8,0.3-1.1,0.6c-0.3,0.3-0.6,0.6-0.9,0.9c-0.3,0.4-0.4,0.7-0.6,1.1v5.8H55v-9.4h0.8v2.2c0.2-0.4,0.4-0.7,0.7-1
		c0.3-0.3,0.6-0.5,1-0.8c0.4-0.2,0.7-0.4,1.1-0.5c0.4-0.1,0.8-0.2,1.2-0.2c1,0,1.7,0.4,2.2,1.1c0.4,0.7,0.6,1.7,0.6,3.1V124.8z"/>
	<path class="st4" d="M69.2,125c-0.6,0-1.2-0.1-1.8-0.4c-0.6-0.3-1-0.6-1.4-1.1c-0.4-0.5-0.7-1-0.9-1.5c-0.2-0.6-0.3-1.2-0.3-1.8
		c0-0.6,0.1-1.3,0.3-1.9s0.5-1.1,0.9-1.5c0.4-0.4,0.8-0.8,1.4-1.1c0.5-0.3,1.1-0.4,1.7-0.4c0.4,0,0.8,0.1,1.2,0.2
		c0.4,0.1,0.7,0.3,1,0.5c0.3,0.2,0.6,0.4,0.8,0.7c0.3,0.3,0.5,0.5,0.6,0.8v-5.8h0.9v11.9c0,0.3,0.1,0.5,0.4,0.5v0.8
		c-0.1,0-0.1,0-0.2,0c0,0-0.1,0-0.1,0c-0.2,0-0.4-0.1-0.6-0.3c-0.2-0.2-0.3-0.4-0.3-0.6v-1c-0.4,0.6-0.9,1.1-1.5,1.5
		C70.6,124.8,69.9,125,69.2,125z M69.4,124.1c0.3,0,0.7-0.1,1-0.2s0.7-0.3,1-0.5s0.6-0.5,0.8-0.8c0.2-0.3,0.4-0.6,0.4-1v-3.1
		c-0.1-0.3-0.3-0.7-0.6-1c-0.2-0.3-0.5-0.6-0.8-0.8c-0.3-0.2-0.6-0.4-1-0.5c-0.4-0.1-0.7-0.2-1-0.2c-0.5,0-1,0.1-1.5,0.4
		c-0.4,0.2-0.8,0.5-1.1,0.9c-0.3,0.4-0.6,0.8-0.7,1.3c-0.2,0.5-0.3,1-0.3,1.5c0,0.5,0.1,1,0.3,1.5c0.2,0.5,0.5,0.9,0.8,1.3
		c0.3,0.4,0.7,0.7,1.2,0.9S68.8,124.1,69.4,124.1z"/>
	<path class="st4" d="M80.4,125c-0.7,0-1.3-0.1-1.8-0.4c-0.6-0.3-1.1-0.6-1.5-1.1c-0.4-0.5-0.7-1-1-1.6c-0.2-0.6-0.4-1.2-0.4-1.9
		c0-0.7,0.1-1.3,0.4-1.9c0.2-0.6,0.6-1.1,1-1.5c0.4-0.4,0.9-0.8,1.4-1c0.6-0.3,1.2-0.4,1.8-0.4c0.7,0,1.3,0.1,1.8,0.4
		c0.6,0.3,1,0.6,1.5,1c0.4,0.4,0.7,0.9,1,1.5c0.2,0.6,0.3,1.2,0.3,1.8c0,0.1,0,0.1,0,0.2s0,0.1,0,0.2h-8.2c0,0.5,0.2,1,0.4,1.5
		c0.2,0.5,0.5,0.9,0.8,1.2s0.7,0.6,1.1,0.8c0.4,0.2,0.9,0.3,1.4,0.3c0.3,0,0.6,0,1-0.1c0.3-0.1,0.6-0.2,0.9-0.4
		c0.3-0.2,0.5-0.3,0.7-0.6c0.2-0.2,0.4-0.5,0.5-0.7l0.8,0.2c-0.1,0.3-0.3,0.6-0.6,0.9c-0.3,0.3-0.6,0.5-0.9,0.7s-0.7,0.4-1.1,0.5
		C81.3,124.9,80.8,125,80.4,125z M84.1,119.7c0-0.6-0.2-1.1-0.4-1.5s-0.5-0.8-0.8-1.2s-0.7-0.6-1.1-0.8c-0.4-0.2-0.9-0.3-1.4-0.3
		s-1,0.1-1.4,0.3c-0.4,0.2-0.8,0.4-1.1,0.8s-0.6,0.7-0.8,1.2c-0.2,0.5-0.3,1-0.4,1.5H84.1z"/>
</g>
<path class="st0" d="M155.9,200.9C155.9,200.9,155.9,200.9,155.9,200.9c0-0.1,0-0.2,0-0.3C155.8,200.9,155.8,201.1,155.9,200.9z"/>
<path class="st0" d="M155.9,200.4c0,0.1,0,0.2,0,0.2C156,200.4,156,200.2,155.9,200.4z"/>
<path class="st0" d="M184,182.3c-0.3,0.1-0.6,0.2-0.8,0.4l0.3,0.3C183.6,182.7,183.8,182.5,184,182.3z"/>
<path class="st3" d="M198.4,111.4c-5.6-4-10.3-10-13.5-16.1c-1.5-2.8-3.8-9.5-0.8-12.3c2.4-2.3,7.3,0.3,10,0.7
	c4.6,0.5,11.8,1,14.9-3.1c2.1-2.8,2.5-8,0.5-10.9c-0.2,0.4-0.8,0.9-1,1.5c-0.8-1.3-1.1-2.8-1-4.3c-1.9,6.7-2.8,10-10.6,9.9
	c-5.4-0.1-9.3-2.6-12.7-6.6c-2.3-2.7-9-9.2-8.6-12.9c0.3-3,3.3-3.8,3-7.5c-0.8-8.3-13.3-13.5-18.8-6.3c-2.2,2.9-3.5,7.9-2.4,11.5
	c1.8,6,12,3.2,10.7,12.1c-0.3,2.3-2.3,4.2-2.8,6.4c-0.9,3.9,0.2,8.2,0.2,12.1c-6.2-3.3-13.5-6-20.5-6.8c-8.9-1-25.5,3.8-30.7-5.9
	c-2-3.8-3-9.9-3.4-14.1c-0.5-5.9,0.8-7.1,5-9.9c-3.6,2.4-7.4,1.8-10.3,5.2c-2.5,2.9-3.3,6.2-3.7,9.9c-0.6,6.7,2.3,14.6,8,18.6
	c2,0.3,3.7,1,4.6,2.1c-1.7-0.4-3.2-1.2-4.6-2.1c-3.9-0.6-9.1,0-11.8,0.3c-5.4,0.7-10.2,4.8-12.2,9.9c-2.7,6.9,0.5,14.1,8.3,14.3
	c1.6,0,8.7-2.2,8.1-4.7c-0.4-1.7-2.7-0.8-3.8-1.7c-4.4-3.5-2-8.5,4.2-9.6c8.6-1.5,18.8-0.1,27.6-0.1c11,0,23.4-0.8,33.2,5.3
	c9.6,6,17,16.7,25.3,24.3c5.3,4.8,11.7,7,18.3,9.4c2.9,1.1,7.2,2.4,9.8,4.2c1.9,1.4,3.5,3.3,4.8,5.4c1.3-5.3,2.3-10.8,2.8-16.3
	c-1.1-0.7-2.1-1.4-3.2-2.1C214.1,117.1,205.4,116.3,198.4,111.4z"/>
<path class="st3" d="M155.9,200.9C155.9,200.9,155.9,200.9,155.9,200.9c-0.1,0.2-0.1-0.1,0-0.3c0-0.1,0-0.2,0-0.2
	c0.1-0.2,0.1,0,0,0.2C155.9,200.7,155.9,200.8,155.9,200.9c4.4-0.7,17.1-2.7,31.9-4.8c10.3-9.3,18.8-20.4,25.1-32.9
	c-1-0.4-2-1-2.8-1.5c-4.3-2.7-10-4.2-13.6-7.9c-1.4-1.4-2.1-3.3-3.4-4.8c-1.7-2.1-3.8-3.8-5.5-6c-2.5-3.3-2.2-5.6-2.1-9.5
	c-1.1,0.9-2.2,1.9-3.1,2.9c-0.4-1.2-1.1-2.4-1.7-3.6c-3.5,3.7-5.7,3.4-10.3,5.1c-1.9,0.7-5.5,0.8-6.6,2.7c-3.7,6.2,9.2,5.1,11.2,8.7
	c2.2,4,1.6,9.6,2,14.1c0.2,2.7,1.8,4.9,2.7,7.4c1.1,3.1-0.1,5.2-1.6,8.1c-0.8,1.6-2.1,5.2-3.3,6.3c-2.8,2.7-9.1,1.2-12.5,1
	c-3.3-0.2-9,1.4-9.2-3.4c-0.1-4.3,0.3-8.8,0.1-13.2c-0.4-6.9,0-13.6-2.6-20.2c-2-5.3-6.3-9.7-10.6-13.4c-3.7-3.2-8.5-6-13-7.4
	c-2.3-0.7-8.4-2.1-6.4-5.8c0.7-1.4,3.5-2.3,4.5-3.5c1.2-1.4,1.8-3.2,1.9-5.1c0.2-6.7-7.4-10.3-13.6-8.2c-5.6,1.9-7,10-5.5,14.9
	c0.8,2.8,4.5,3.1,5.9,5.4c1.2,1.9,0.5,3.8,0.5,5.8c0,2.7,0.6,5.3,1.1,7.9c1.1,5.4,2.6,11,1.3,16.5c-0.9,4-6.2,5.7-6.6,9.1
	c-0.1,0.8,8.8-2.3,9.6-2.6c5.6-2.4,9.1-9.4,9.9-15.2c4.7,2.9,7,13.5,7.5,18.8c0.4,4.1,0.5,8.4,0.7,12.6c0.1,2.3,0.7,6.8-0.6,8.7
	c-3.5,4.6-15.6,4.5-20.7,5c-12.2,1-26.1-0.5-34.7-10.4c-2-2.3-2.6-6.1-2.8-9c-0.2-2.6,0-5.1-0.8-7.6c-0.5-1.5-1.3-2.7-1.7-4.2
	c-0.6-2.5-1.9-7.9-0.3-10.2c0.7-1,2.6-1.3,3.3-2.7c0.6-1.1,0.8-2.6,0.6-3.9c-1.1-8.4-14.1-9.7-16.1-0.9c-1,4.7,0.3,5.3,3.3,7.8
	c7.6,6-3.7,10.9-5.6,16c-1.2,3.2-1.5,7.4-0.8,10.7c-7.1,0.4-6.8-4.7-11-8.9c-3-3-6-5.6-3.2-9.7c2-2.9,7.1-3.4,8-6.6
	c1.1-4-3.1-10-6.9-10c-3.3,0-7.5,2.2-8.8,5.3c-1.3,3-0.1,4,1.4,6.5c2.4,3.9,2,7.8,0.3,12.1c-1.8,4.5-1.9,6.4-0.2,11
	c2.3,6-2.5,4.2-6.4,4.1c-2.7-0.1-5.6,0.7-8.4,1.8c2.4,2.9,4.9,5.7,7.6,8.3c0.6-0.1,1.1-0.2,1.6-0.2c41.4-3.1,46.5,12.4,68.6,13.7
	c6.7,0.4,34.1-0.9,35.3-2.2c0.2,4.7,0.3,11.3,1,18.1c5.9-1.5,11.6-3.4,17.1-5.8C156.4,211.4,156.1,206.4,155.9,200.9z M184,182.3
	c1.2-1.5,2-3.8,2.7-5.4c1.1-2.6,0.5-6,1.9-8.3c3,2.7,5,8.7,9.9,9.1c-2,0.7-3.7,2.1-1.8,4.1C193.1,182.1,187.6,181,184,182.3
	c-0.2,0.2-0.4,0.4-0.6,0.6l-0.3-0.3C183.4,182.5,183.7,182.4,184,182.3z"/>
<path class="st0" d="M109.9,82.8c1.4,1,2.9,1.7,4.6,2.1C113.5,83.7,111.9,83.1,109.9,82.8z"/>
</svg>
