<!-- Generator: Adobe Illustrator 21.0.0, SVG Export Plug-In  -->
<svg version="1.1"
	 xmlns="http://www.w3.org/2000/svg" xmlns:xlink="http://www.w3.org/1999/xlink" xmlns:a="http://ns.adobe.com/AdobeSVGViewerExtensions/3.0/"
	 x="0px" y="0px" width="721.4px" height="535.7px" viewBox="0 0 721.4 535.7" style="enable-background:new 0 0 721.4 535.7;"
	 xml:space="preserve">
<style type="text/css">
	.st0{opacity:0.7;fill-rule:evenodd;clip-rule:evenodd;fill:#618D1B;}
	.st1{opacity:0.7;}
	.st2{opacity:0.84;fill:#618D1B;}
	.st3{opacity:0.7;fill:#618D1B;}
	.st4{fill-rule:evenodd;clip-rule:evenodd;fill:#618D1B;}
	.st5{opacity:0.8;}
	.st6{fill:#618D1B;}
	.st7{fill:#AED9D6;}
	.st8{fill:#5B4A03;}
	.st9{fill:none;}
	.st10{fill:#AEC785;}
</style>
<defs>
</defs>
<g>
	<circle class="st0" cx="669.7" cy="196.8" r="9.1"/>
	<g class="st1">
		<path class="st2" d="M234.5,231c0.2,2.6-4.3,4.8-5.4,1.6c-0.9-2.8,1.2-7.4,4-5.9c1.8,1,0.3,2.8,0.6,3.5
			C234,230.5,234.2,230.6,234.5,231z"/>
		<path class="st2" d="M225.4,227.9c0.1-0.7,1.9-1.8,2.6-1.8c-1.3-3-4.6-8.6-0.1-10.9c2.8-1.4,4.1-0.3,4.6,2.1c0.4,1.9,1.1,4,1,5.9
			c0.7,0.1,1.3-0.4,2-0.6c2.4-0.9,5.4-1.8,7.5,0.3c1.6,1.6,1.3,4-0.4,5.4c-0.7,0.6-1.9,0.1-2.8,0.4c-2,0.7-4.8,4.2-7.7,2.1
			c-3.6-2.7,0.9-7.8,3.3-8.8c1.1-0.4,2.1-0.3,3.4-0.4"/>
		<path class="st2" d="M226.2,226.6c-2.2,1.2-1.6,6.3,1.5,5.6c2.7-0.7,5.4-5,2.7-6.7c-1.8-1.1-2.4,1.2-3.2,1.4
			C226.9,226.9,226.7,226.7,226.2,226.6z"/>
	</g>
	<g class="st1">
		<path class="st2" d="M283.2,223.2c0.4,0.1,0.7,0.5,1.1,0.6c-0.2,0.5,0.1,0.9,0.4,1.2c0.1,0.1,0.2,0.3,0.2,0.4
			c-0.1,0.2-0.2,0.3-0.3,0.3c0.2,0.2,0.4,0.6,0.4,1c-0.1,0.3-0.4,0.4-0.6,0.6c0.4,0.5,0.1,1.2,0.1,1.8c-0.1,0.1-0.2,0.2-0.3,0.2
			l-0.3-0.1c-0.1,0.7,0.3,1.4-0.3,2.1c-0.1-0.1-0.1,0.1-0.2,0.1c-0.2,0.1-0.4,0.1-0.5,0c0,0.6-0.5,1-0.9,1.5c-0.1,0.1-0.3,0-0.4,0
			c-0.1,0.3-0.2,0.8-0.6,0.7l-0.6-0.2c-0.1,0.3-0.3,0.6-0.6,0.6c-0.6,0.3-1-0.7-1.6,0c-0.5,0-0.9-0.4-1-0.8c0-0.2-0.1-0.4-0.2-0.5
			c-0.5-0.1-1.3,0.3-1.4-0.4c-0.1-0.3-0.3-0.7-0.7-0.7c-0.2,0.1-0.3-0.2-0.5-0.3c-0.1-0.4-0.4-0.7-0.2-1.2c-0.2-0.3-0.9-0.1-0.7-0.8
			c-0.2-0.6,0.2-1.2,0.4-1.9c-0.2-0.1-0.5-0.1-0.6-0.3c-0.3-0.6,0.4-0.9,0.4-1.5c0.5-0.7,1-1.5,1.7-2.2c0.3-0.7,1.1-0.7,1.6-1
			c1.4-0.4,2.7-1.1,4.1-0.4C282.1,222.5,282.7,222.8,283.2,223.2z"/>
		<path class="st2" d="M271.1,209.6c0.3,0.4,0.9,0.5,1.4,0.7c5,2.9,9.2,8,9.5,13.1c-0.2,0.7-0.1,1.6-1.2,1.6c-1,0.6-1.8-0.6-2.9-0.5
			c-3.5-1.6-6.5-4.5-8.2-7.7c-0.9-2.8-2-5.6-2-8.6l-0.2-0.2l0.4-0.3C268.8,208.5,270.3,208.7,271.1,209.6z"/>
		<path class="st2" d="M280.2,220.9L280.2,220.9c0.2-0.1,0.2-0.3,0.4-0.5c0.4-0.6,0.8-1.3,1.4-1.8l0.2,0c0.2-0.3,0.6-0.5,0.9-0.8
			c0,0,0.1,0,0.1,0l0.7-0.6l0.1,0.1l0.8-0.6c0.2,0.1,0.3-0.1,0.4-0.2c0.2-0.1,0.5-0.3,0.8-0.4l0,0.1c0.6-0.2,1.1-0.4,1.7-0.5
			l0.1,0.1c0.3-0.2,0.6-0.3,1-0.3c0.1,0.2,0.2,0,0.4,0l0.8-0.1c0.1,0.2,0.3-0.1,0.5,0c0.3,0,0.7,0,1,0.1c0.4,0.1,1,0,1.2,0.3
			c0.5-0.1,0.7,0.3,1.1,0.1c0.3,0.1,0.6,0.1,0.8,0.3l0.9,0.2l0,0.1c0.5,0.1,1.2,0.2,1.6,0.5l0.1,0.2c0.5,0.2,1.3,0.1,1.3,0.7
			c0.5,0,1.1,0.2,1.4,0.7c0,0.4-0.3,0.7-0.6,0.9c0,0.5-0.6,0.6-0.6,1.1c-0.1,0.4-0.7,0.6-0.7,1c-0.3,0.3-0.6,0.7-1.1,0.8
			c0,0.1,0.2,0.1,0.1,0.3c-0.1,0.4-0.5,0.5-0.7,0.9c-0.4,0.3-0.5,0.7-0.9,1c-0.9,1-2.1,1.6-3.3,2.1c-0.4,0.1-0.8,0.3-1.1,0.3
			c-0.1,0.1-0.3,0-0.5,0.1c-0.3,0-0.7,0.1-1,0c-0.5,0.2-1,0.4-1.5,0.5c-0.1,0.2-0.2,0.1-0.4,0.1c-0.3,0-0.7,0.1-1,0.3
			c-0.5,0-1.1-0.1-1.6-0.2l0,0c-0.1,0-0.1-0.1-0.2,0c-0.6-0.1-1.3-0.2-1.8-0.4v0c-1-0.3-1.8-0.9-2.6-1.4c-0.2,0.4-0.2,1-0.5,1.4
			c-0.2,0-0.3-0.1-0.4-0.1c-0.1,0-0.2,0-0.2-0.1c0.2-0.7,0.6-1.6,0.2-2.3c0-1.1,0.1-2.2,0.5-3.3C280,221.4,280,221.2,280.2,220.9z"
			/>
		<path class="st2" d="M275.3,218.5c10.2,3.1,1.4,15.3-5.4,12c-4.1-2-4.8-8-0.7-10.9C270.4,218.8,273.6,218.7,275.3,218.5z"/>
	</g>
	<path class="st3" d="M277.4,253.4L277.4,253.4c0.1,0,0.2,0,0.2-0.1c0.3-0.1,0.6-0.1,0.8-0.2l0-0.1c0.1,0,0.3-0.1,0.4-0.2
		c0,0,0,0,0,0l0.3-0.2l0,0l0.3-0.2c0-0.1,0.1-0.1,0.1-0.1c0.1-0.1,0.2-0.1,0.3-0.2l0,0c0.1-0.2,0.3-0.3,0.4-0.5l0,0
		c0.1-0.1,0.2-0.2,0.3-0.3c-0.1-0.1,0.1-0.1,0.1-0.1l0.1-0.2c-0.1-0.1,0.1-0.1,0.1-0.2c0.1-0.1,0.1-0.2,0.1-0.3
		c0-0.1,0.1-0.3,0.1-0.4c0.1-0.1,0-0.3,0.1-0.4c0-0.1,0.1-0.2,0-0.3l0.1-0.3l0,0c0-0.2,0.1-0.4,0.1-0.6l0-0.1c0-0.2,0.1-0.4,0-0.5
		c0.1-0.2,0.1-0.4,0-0.5c-0.1-0.1-0.3,0-0.4,0.1c-0.2-0.1-0.3,0.1-0.5,0c-0.2,0-0.3,0.1-0.5,0.1c-0.2,0-0.4,0.1-0.5,0.2
		c-0.1,0,0-0.1-0.1-0.1c-0.2,0-0.3,0.1-0.4,0.1c-0.2,0.1-0.3,0.1-0.5,0.1c-0.5,0.1-0.9,0.4-1.2,0.8c-0.1,0.1-0.2,0.2-0.3,0.3
		c0,0,0,0.1-0.1,0.1c-0.1,0.1-0.1,0.2-0.2,0.3c-0.1,0.1-0.3,0.3-0.4,0.4c-0.1,0-0.1,0.1-0.1,0.1c-0.1,0.1-0.2,0.2-0.3,0.3
		c-0.1,0.2-0.1,0.4-0.2,0.6l0,0c0,0,0,0,0,0.1c-0.1,0.2-0.1,0.4-0.1,0.6l0,0c-0.1,0.4,0.1,0.7,0.1,1.1c-0.2,0-0.4-0.1-0.6,0
		c0,0,0,0.1,0,0.1c0,0,0,0.1,0,0.1c0.3,0,0.7,0,0.9,0.3c0.4,0.2,0.8,0.3,1.3,0.3C277.2,253.3,277.3,253.4,277.4,253.4z"/>
	<path class="st3" d="M256.5,255.1c0.5-4.1-0.2-9.4,0.9-12.3c1.9-0.9,1.8,1.8,2,4.1c0.3,3,0.1,11.4-0.7,13.3c-0.5,0-0.6,0.6-0.9,0.4
		c0-0.1-0.1-0.3-0.1-0.4c-0.4,0.1-0.6,0.1-0.8-0.2C256.9,259.3,256.7,255.7,256.5,255.1z"/>
	<path class="st3" d="M257.3,246.3L257.3,246.3c0.1-0.1,0-0.1,0.1-0.2c0.1-0.2,0.1-0.4,0.3-0.6l0.1,0c0-0.1,0.2-0.2,0.3-0.3
		c0,0,0,0,0.1,0l0.2-0.2l0,0l0.3-0.2c0.1,0,0.1-0.1,0.2-0.1c0.1-0.1,0.2-0.1,0.3-0.2l0,0c0.2-0.1,0.4-0.2,0.7-0.3l0,0
		c0.1-0.1,0.2-0.1,0.4-0.2c0.1,0,0.1,0,0.2,0l0.3-0.1c0.1,0,0.1-0.1,0.2-0.1c0.1,0,0.3-0.1,0.4-0.1c0.2,0,0.4-0.1,0.6-0.1
		c0.2-0.1,0.3,0,0.5-0.1c0.1,0,0.3,0,0.4,0l0.4,0l0,0c0.2,0,0.5-0.1,0.8-0.1l0.1,0c0.2,0,0.6-0.1,0.7,0c0.2,0,0.5-0.1,0.7,0
		c0.1,0.1,0,0.2-0.2,0.3c0.1,0.1-0.2,0.2-0.1,0.3c0,0.1-0.2,0.2-0.1,0.3c-0.1,0.1-0.1,0.2-0.3,0.3c0,0,0.1,0,0.1,0.1
		c0,0.1-0.2,0.2-0.2,0.3c-0.1,0.1-0.1,0.2-0.2,0.3c-0.2,0.3-0.7,0.6-1.1,0.9c-0.2,0.1-0.3,0.2-0.4,0.2c-0.1,0-0.1,0-0.2,0.1
		c-0.1,0-0.3,0.1-0.5,0.1c-0.2,0.1-0.4,0.2-0.6,0.3c0,0-0.1,0-0.2,0.1c-0.1,0.1-0.3,0.1-0.4,0.2c-0.2,0.1-0.5,0.1-0.7,0.2l0,0
		c0,0-0.1,0-0.1,0c-0.3,0.1-0.6,0.1-0.9,0.1v0c-0.5,0.1-0.9,0-1.4,0c0,0.1,0,0.3,0,0.4c-0.1,0-0.2,0-0.2,0c0,0-0.1,0-0.1,0
		c0-0.2,0-0.4-0.3-0.6c-0.2-0.3-0.3-0.5-0.3-0.8C257.4,246.4,257.3,246.4,257.3,246.3z"/>
	<path class="st3" d="M250.3,237.7c0.6,0.3,1.2,0.9,1.9,1c1.1,0,2.1,0.3,3,1c1.4,1.1,2.9,2.5,2.5,4.4c0,0,0,0.1,0,0.1l0,0l0,0.1
		c0,0,0,0,0,0c0,0.1-0.1,0.3,0,0.4c0,0.1-0.1,0.2-0.2,0.2c-0.9,0.2-1.7-0.2-2.4-0.5c-0.1-0.1-0.3-0.2-0.4-0.3
		c-0.2-0.2-0.4-0.4-0.6-0.6l0,0c-0.5-0.4-0.7-0.9-1.2-1.3c-0.1-0.1-0.1-0.2-0.2-0.3l0,0c-0.1-0.3-0.4-0.5-0.4-0.8
		c-0.2-0.3-0.3-0.7-0.4-1.1l-0.1,0c0.1-0.1,0-0.2-0.1-0.3c-0.2-0.2-0.2-0.5-0.4-0.7c-0.4-0.4-0.8-0.7-1.2-1.1l0-0.1L250.3,237.7z"/>
	<path class="st3" d="M261.7,237.8c0.2,1.9-0.6,4.4-2,5.4c-0.8,0.5-1.7,0.4-2.5,0.5c-0.4,0.1-0.4,0.5-0.7,0.7c0,0-0.1,0-0.1,0
		c0-0.1,0-0.1,0-0.2c0.7-0.6,0.2-1.5,0.3-2.4c0.1-1.5,1.3-3.1,3.2-3.4C260.5,238.1,261.2,237.6,261.7,237.8z"/>
	<path class="st3" d="M263,247.7c-3.7-0.4-2.8,4.5,0,3.9c1.6-0.3,2.1-2.5,1.4-3.1C263.9,248.2,263.4,247.9,263,247.7z"/>
	<path class="st3" d="M250,245.5c0.2,0.1,0.4,0.4,0.5,0.6c1.9,2.2,4.7,3.9,6.8,3.6c0.3-0.2,0.7-0.2,0.5-0.8c0.1-0.6-0.5-0.8-0.6-1.4
		c-1.2-1.6-2.8-2.8-4.4-3.4c-1.3-0.2-2.6-0.5-3.8-0.2l-0.1-0.1l-0.1,0.2C249.2,244.5,249.5,245.2,250,245.5z"/>
	<path class="st3" d="M257.3,255.8c0-0.1,0-0.1-0.1-0.1c0.6-0.5,0.7-1,0.6-1.5c-0.1-0.3-0.3-0.5-0.5-0.8c0,0,0,0,0,0
		c-0.1-0.1-0.1-0.2-0.1-0.2l0,0c0-0.1-0.1-0.1-0.1-0.2c-0.4-0.8-1.4-1.2-2.1-1.7c-0.3-0.1-0.5-0.3-0.8-0.4c-0.1-0.2-0.5-0.2-0.7-0.3
		c-0.6-0.2-1.3-0.3-2-0.1c-0.1,0.1-0.3,0.1-0.3,0.2c0.1,0,0,0.1,0,0.2c-0.3,0.2-0.1,0.4-0.1,0.7c0,0.4,0.5,0.7,0.6,1.1
		c0.9,1,1.7,2.1,3.2,2.8c0.5,0.4,1.5,0.6,2.3,0.4c0,0,0.1,0.1,0.1,0C257.3,255.8,257.3,255.8,257.3,255.8z"/>
	<path class="st3" d="M263.2,253.8c-0.2,0.1-0.4,0-0.6,0c-2.3,0.1-4.5,0.9-5.2,2.2c0,0.2-0.1,0.5,0.3,0.6c0.4,0.3,0.8,0.1,1.2,0.3
		c1.5,0.1,3-0.3,4.1-0.9c0.6-0.6,1.4-1.2,1.7-2l0.1,0l-0.1-0.1C264.2,253.8,263.6,253.7,263.2,253.8z"/>
	<path class="st3" d="M277.6,238.2c-0.1,0.2,0,0.2,0.1,0.3c0.2,1.3-0.8,3.6-2.7,5.8c-0.3,0.3-0.7,0.7-1,0.7
		c-0.5,0.2-0.2-0.3-0.5-0.3c-0.3-0.7,0.1-2,0.9-3.5c0.9-1.2,1.7-2.4,2.9-3.7l0-0.1l0.2-0.1C277.4,237.7,277.8,237.8,277.6,238.2z"/>
	<path class="st3" d="M273.9,253.8L273.9,253.8c0-0.1,0-0.1,0-0.2c0-0.2,0-0.4-0.1-0.6l-0.1,0c0-0.1-0.1-0.2-0.1-0.3c0,0,0,0-0.1,0
		l-0.1-0.3l0,0l-0.2-0.3c-0.1,0-0.1-0.1-0.1-0.1c-0.1-0.1-0.1-0.2-0.2-0.3l0,0c-0.2-0.2-0.3-0.4-0.5-0.6l0,0
		c-0.1-0.1-0.2-0.2-0.3-0.3c-0.1,0-0.1-0.1-0.2-0.1l-0.3-0.2c-0.1,0-0.1-0.1-0.2-0.1c-0.1-0.1-0.3-0.2-0.4-0.3
		c-0.2-0.1-0.4-0.3-0.5-0.3c-0.1-0.2-0.3-0.2-0.5-0.3c-0.1-0.1-0.2-0.2-0.4-0.2l-0.4-0.2h0c-0.2-0.1-0.5-0.3-0.7-0.4l-0.1,0
		c-0.2-0.1-0.5-0.4-0.7-0.3c-0.2-0.1-0.5-0.3-0.7-0.3c-0.1,0-0.1,0.2,0,0.3c-0.1,0,0.1,0.3-0.1,0.3c-0.1,0.1,0.1,0.3,0,0.3
		c0,0.1,0,0.2,0.2,0.4c0,0-0.1,0-0.1,0c-0.1,0.1,0.1,0.2,0,0.3c0.1,0.1,0,0.2,0.1,0.4c0.1,0.4,0.4,0.8,0.7,1.2
		c0.1,0.1,0.2,0.3,0.3,0.4c0,0,0.1,0.1,0.1,0.1c0.1,0.1,0.2,0.2,0.4,0.3c0.2,0.2,0.3,0.3,0.4,0.5c0,0,0.1,0.1,0.1,0.1
		c0.1,0.1,0.2,0.2,0.3,0.3c0.2,0.2,0.4,0.3,0.7,0.5l0,0c0,0,0.1,0,0.1,0c0.2,0.2,0.5,0.3,0.8,0.5l0,0c0.4,0.3,0.9,0.4,1.4,0.6
		c0,0.1-0.2,0.2-0.2,0.3c0,0.1,0.1,0.1,0.2,0.1c0,0,0.1,0,0.1,0.1c0.1-0.1,0.2-0.3,0.5-0.3c0.3-0.1,0.5-0.3,0.7-0.5
		C273.9,253.9,273.9,253.9,273.9,253.8z"/>
	<path class="st3" d="M273.3,243.6c0.1-0.1,0.3-0.3,0.4-0.4c1.9,1.6,2.7,9.5,2.6,12.6c-0.1,1.4,0,4.3-1.9,6c-0.1,0-0.2,0-0.2,0.1
		C270.5,259.6,274.4,247.9,273.3,243.6z"/>
	<path class="st3" d="M276.4,247.9c-0.5,0.1-0.9,0.2-1.2,0.1c-0.4-1.8,3.2-4.1,4.9-5.3c0.5-0.4,2.2-1.2,3-1.3c0,0,0,0,0,0
		c0,0,0,0.1,0,0.1c-0.6,0.4-1.5,2.2-2,2.8C279.9,245.7,278,246.8,276.4,247.9z"/>
	<path class="st3" d="M269.2,244.4c0.1,0.2,0.2,0.4,0.2,0.5c0.9,2,2.6,3.8,4.6,4.3c0.3,0,0.6,0.1,0.7-0.3c0.3-0.3-0.1-0.7,0-1.1
		c-0.4-1.3-1.4-2.6-2.6-3.4c-1.1-0.5-2.1-1.1-3.2-1.3l-0.1-0.1l-0.1,0.1C268.9,243.5,268.8,244,269.2,244.4z"/>
	<g class="st1">
		<path class="st2" d="M239.1,241.7c0.1,0.2,0,0.2,0,0.3c0,1.3,1.2,3.5,3.1,5.4c0.3,0.3,0.7,0.6,1,0.6c0.5,0.2,0.2-0.3,0.5-0.3
			c0.2-0.8-0.3-2-1.3-3.3c-1-1.1-1.8-2.2-3-3.3l0-0.1l-0.2-0.1C239.2,241.2,238.9,241.3,239.1,241.7z"/>
		<path class="st2" d="M243.6,254.6L243.6,254.6c0-0.1,0-0.1,0-0.2c0-0.2-0.1-0.4,0-0.6l0.1-0.1c0-0.1,0-0.2,0.1-0.3c0,0,0,0,0,0
			l0.1-0.3l0,0l0.1-0.3c0.1,0,0.1-0.1,0.1-0.2c0-0.1,0.1-0.2,0.1-0.3l0,0c0.1-0.2,0.2-0.4,0.4-0.6l0,0c0.1-0.1,0.1-0.2,0.2-0.3
			c0.1,0,0.1-0.1,0.1-0.1l0.2-0.3c0.1,0,0.1-0.1,0.2-0.2c0.1-0.1,0.2-0.2,0.3-0.3c0.1-0.1,0.3-0.3,0.4-0.4c0.1-0.2,0.3-0.2,0.4-0.4
			c0.1-0.1,0.2-0.2,0.3-0.2l0.3-0.3l0,0c0.2-0.2,0.4-0.4,0.6-0.5l0.1,0c0.2-0.1,0.4-0.4,0.6-0.4c0.2-0.2,0.4-0.4,0.6-0.4
			c0.1,0,0.1,0.1,0,0.3c0.1,0,0,0.3,0.1,0.3c0.1,0.1-0.1,0.3,0,0.3c0,0.1,0,0.2-0.1,0.4c0,0,0.1-0.1,0.1,0c0.1,0.1,0,0.2,0,0.3
			c-0.1,0.2,0,0.2,0,0.4c0,0.4-0.2,0.8-0.5,1.3c-0.1,0.1-0.2,0.3-0.3,0.4c0,0.1-0.1,0.1-0.1,0.2c-0.1,0.1-0.2,0.2-0.3,0.4
			c-0.1,0.2-0.2,0.3-0.3,0.5c0,0-0.1,0.1-0.1,0.1c-0.1,0.1-0.2,0.2-0.2,0.4c-0.2,0.2-0.4,0.4-0.5,0.5l0,0c0,0,0,0-0.1,0.1
			c-0.2,0.2-0.4,0.4-0.6,0.6v0c-0.4,0.3-0.8,0.5-1.1,0.8c0,0.1,0.2,0.2,0.2,0.3c0,0.1-0.1,0.1-0.1,0.1c0,0-0.1,0.1-0.1,0.1
			c-0.1-0.1-0.2-0.3-0.5-0.3c-0.3-0.1-0.5-0.2-0.7-0.4C243.7,254.7,243.6,254.7,243.6,254.6z"/>
		<path class="st2" d="M243.7,246.5c-0.2-0.1-0.3-0.3-0.5-0.4c-1.5,1.8-1.3,9.7-0.8,12.8c0.2,1.4,0.6,4.2,2.5,5.7c0.1,0,0.1,0,0.2,0
			C248.2,262.1,243.2,250.9,243.7,246.5z"/>
		<path class="st2" d="M241.5,251.1c0.5,0.1,0.8,0.1,1.1,0c0.2-1.8-3.4-3.7-5.1-4.7c-0.5-0.3-2.1-0.9-2.9-0.9c0,0,0,0,0,0
			c0,0,0,0.1,0,0.1c0.6,0.3,1.6,2,2.2,2.5C238,249.3,239.8,250.2,241.5,251.1z"/>
		<path class="st2" d="M247.3,244.9c-0.1,0.1-0.1,0.3-0.1,0.4c-0.5,1.6-1.8,3.1-3.5,3.6c-0.3,0-0.6,0.1-0.7-0.2
			c-0.3-0.2,0-0.5-0.1-0.8c0.2-1,0.9-2.1,1.8-2.8c0.9-0.5,1.7-1,2.7-1.3l0.1-0.1l0.1,0.1C247.5,244.2,247.6,244.6,247.3,244.9z"/>
		<path class="st2" d="M243.3,253.3L243.3,253.3c-0.1-0.1,0-0.1-0.1-0.2c-0.1-0.2-0.2-0.4-0.4-0.5l-0.1,0c-0.1-0.1-0.2-0.2-0.3-0.3
			c0,0,0,0-0.1,0l-0.3-0.2l0,0l-0.3-0.2c-0.1,0-0.1,0-0.2-0.1c-0.1,0-0.2-0.1-0.3-0.1l0,0c-0.2-0.1-0.5-0.2-0.7-0.2l0,0
			c-0.1-0.1-0.3-0.1-0.4-0.1c-0.1,0-0.1,0-0.2,0l-0.3-0.1c-0.1,0.1-0.1,0-0.2,0c-0.1,0-0.3,0-0.4,0c-0.2,0-0.4-0.1-0.6,0
			c-0.2-0.1-0.3,0-0.5,0c-0.1,0-0.3,0-0.4,0l-0.4,0l0,0c-0.2,0-0.6,0-0.8,0l-0.1,0c-0.2,0-0.6,0-0.7,0.1c-0.2,0-0.5,0-0.7,0.1
			c-0.1,0.1,0,0.2,0.2,0.3c-0.1,0.1,0.2,0.2,0.1,0.3c0,0.1,0.2,0.2,0.2,0.3c0.1,0.1,0.2,0.2,0.4,0.3c0,0-0.1,0-0.1,0.1
			c0,0.1,0.2,0.2,0.2,0.3c0.1,0.1,0.1,0.2,0.3,0.3c0.3,0.3,0.7,0.5,1.2,0.7c0.2,0,0.3,0.1,0.5,0.2c0.1,0,0.1,0,0.2,0.1
			c0.2,0,0.3,0.1,0.5,0.1c0.2,0.1,0.4,0.2,0.6,0.2c0,0,0.1,0,0.2,0.1c0.1,0,0.3,0.1,0.4,0.1c0.2,0,0.5,0,0.8,0.1v0c0,0,0,0,0.1,0
			c0.3,0,0.6,0,0.9,0l0,0c0.5,0,0.9-0.1,1.4-0.2c0.1,0.1,0,0.3,0.1,0.4c0.1,0,0.2,0,0.2,0c0,0,0.1,0,0.1,0c0-0.2-0.1-0.4,0.2-0.6
			c0.1-0.3,0.2-0.6,0.2-0.9C243.3,253.5,243.3,253.4,243.3,253.3z"/>
	</g>
	<g class="st1">
		<path class="st2" d="M229.7,260.9c-1.2-3.3-1.6-7.9-3.2-10.1c-1.7-0.3-1.1,1.9-0.9,3.8c0.3,2.5,2.1,9.6,3.2,11
			c0.4-0.1,0.6,0.3,0.8,0.2c0-0.1,0-0.2,0-0.3c0.3,0,0.5-0.1,0.6-0.3C230.2,264.5,229.7,261.4,229.7,260.9z"/>
		<path class="st2" d="M227.3,253.7L227.3,253.7c-0.1,0-0.1-0.1-0.1-0.1c-0.1-0.1-0.2-0.3-0.4-0.4l-0.1,0c-0.1-0.1-0.2-0.1-0.3-0.2
			c0,0,0,0-0.1,0l-0.2-0.1l0,0l-0.3-0.1c-0.1,0-0.1,0-0.1,0c-0.1,0-0.2-0.1-0.3-0.1l0,0c-0.2,0-0.4-0.1-0.6-0.1l0,0
			c-0.1,0-0.2-0.1-0.4-0.1c-0.1,0.1-0.1,0-0.2,0l-0.3,0c-0.1,0.1-0.1,0-0.2,0c-0.1,0-0.3,0-0.4,0c-0.2,0-0.4,0-0.5,0.1
			c-0.2,0-0.3,0.1-0.5,0c-0.1,0-0.2,0-0.3,0.1l-0.3,0l0,0c-0.2,0-0.5,0-0.7,0.1l-0.1,0c-0.2,0-0.5,0-0.6,0.1c-0.2,0-0.5,0-0.6,0.1
			c0,0.1,0,0.2,0.2,0.2c-0.1,0.1,0.2,0.2,0.1,0.3c0,0.1,0.2,0.1,0.2,0.2c0.1,0.1,0.2,0.2,0.3,0.2c0,0-0.1,0-0.1,0.1
			c0,0.1,0.2,0.1,0.2,0.2c0.1,0.1,0.1,0.2,0.3,0.2c0.3,0.2,0.7,0.4,1.1,0.5c0.2,0,0.3,0.1,0.4,0.1c0.1,0,0.1,0,0.2,0
			c0.1,0,0.3,0,0.4,0c0.2,0,0.3,0.1,0.5,0.1c0,0,0.1,0,0.1,0c0.1,0,0.3,0,0.4,0.1c0.2,0,0.4,0,0.7,0v0c0,0,0,0,0.1,0
			c0.2,0,0.5,0,0.7-0.1v0c0.4,0,0.8-0.2,1.1-0.3c0.1,0.1,0,0.2,0.1,0.3c0.1,0,0.1,0,0.2,0c0,0,0.1,0,0.1,0c0-0.2-0.1-0.4,0.1-0.5
			c0.1-0.3,0.2-0.5,0.1-0.8C227.3,253.9,227.3,253.8,227.3,253.7z"/>
		<path class="st2" d="M231.5,245.2c-0.5,0.4-0.8,1-1.4,1.2c-0.9,0.2-1.7,0.7-2.3,1.4c-1,1.2-1.9,2.6-1.2,4.2c0,0,0,0.1,0,0.1h0l0,0
			c0,0,0,0,0,0c0,0.1,0.1,0.2,0.1,0.3c0,0.1,0.1,0.1,0.2,0.1c0.8,0,1.4-0.5,1.9-0.9c0.1-0.1,0.3-0.2,0.3-0.3
			c0.2-0.2,0.3-0.4,0.4-0.6l0,0c0.3-0.4,0.4-0.9,0.8-1.3c0-0.1,0.1-0.2,0.1-0.3l0,0c0-0.2,0.2-0.4,0.2-0.7c0.1-0.3,0.1-0.6,0.1-1
			l0,0c-0.1,0,0-0.2,0-0.3c0.1-0.2,0.1-0.4,0.2-0.6c0.2-0.4,0.5-0.8,0.8-1.2L231.5,245.2L231.5,245.2z"/>
		<path class="st2" d="M222,247.5c0.2,1.6,1.3,3.6,2.8,4.1c0.8,0.3,1.5,0,2.2-0.1c0.4,0,0.5,0.3,0.7,0.4c0,0,0,0,0.1-0.1
			c0-0.1,0-0.1,0-0.2c-0.7-0.3-0.5-1.2-0.7-1.9c-0.3-1.2-1.7-2.3-3.3-2.3C223.1,247.5,222.4,247.2,222,247.5z"/>
		<path class="st2" d="M222.9,256c3-1,3.2,3.2,0.8,3.2c-1.4,0-2.2-1.7-1.8-2.3C222.2,256.6,222.6,256.3,222.9,256z"/>
		<path class="st2" d="M233.3,251.6c-0.2,0.2-0.2,0.4-0.3,0.6c-1.2,2.2-3.1,4.1-5,4.3c-0.2-0.1-0.6,0-0.5-0.5
			c-0.2-0.5,0.3-0.8,0.3-1.3c0.7-1.6,1.8-2.9,3-3.7c1-0.4,2.1-0.9,3.1-0.9l0.1-0.1l0.1,0.2C233.8,250.6,233.7,251.3,233.3,251.6z"/>
		<path class="st2" d="M229.1,261.7c0,0,0-0.1,0-0.1c-0.6-0.3-0.8-0.7-0.8-1.2c0.1-0.3,0.2-0.5,0.3-0.7c0,0,0,0,0,0
			c0-0.1,0.1-0.2,0.1-0.2l0,0c0-0.1,0-0.1,0.1-0.2c0.2-0.7,0.9-1.3,1.4-1.9c0.2-0.2,0.4-0.3,0.6-0.5c0-0.2,0.4-0.3,0.6-0.4
			c0.5-0.2,1-0.5,1.6-0.5c0.1,0,0.3,0,0.3,0.1c-0.1,0,0,0.1,0.1,0.1c0.3,0.1,0.2,0.4,0.2,0.5c0,0.3-0.3,0.7-0.3,1
			c-0.6,1-1,2.1-2.1,2.9c-0.4,0.5-1.1,0.7-1.8,0.8c0,0,0,0.1-0.1,0.1C229.2,261.7,229.2,261.7,229.1,261.7z"/>
		<path class="st2" d="M223.9,261.1c0.2,0,0.4-0.1,0.5-0.1c1.9-0.4,3.9-0.1,4.8,0.8c0,0.2,0.2,0.4-0.1,0.6c-0.2,0.3-0.6,0.2-0.9,0.5
			c-1.3,0.4-2.6,0.3-3.6,0c-0.7-0.4-1.4-0.8-1.8-1.4l-0.1,0l0.1-0.1C223,261.4,223.5,261.1,223.9,261.1z"/>
	</g>
	<g class="st1">
		<path class="st2" d="M518.4,57.7c0-0.8,1.3-1.1,1.6-1.5c2-5.9,18.2-8.4,19-0.1c-1.4,4.5-9.2,7-14.5,5.2
			C522.4,60.6,519.9,59.1,518.4,57.7z"/>
		<path class="st2" d="M542.3,50.6c-0.3,0-0.5,0.2-0.7,0.4c-2.8,1.3-6.5,1.4-9.4-0.4c-0.3-0.4-0.9-0.7-0.6-1.2
			c-0.1-0.7,0.7-0.6,1-1.2c1.7-1.1,4-1.4,6.2-1c1.7,0.7,3.5,1.2,5.1,2.3l0.2,0l0.1,0.3C543.5,49.9,543,50.6,542.3,50.6z"/>
	</g>
	<g class="st1">
		<path class="st4" d="M624.4,254.8c20.5,5.8,20.5-7.2,25.1-11.7c2.6-2.6,7.2-2.6,8.6-6.2c-0.1,0.6,0.2,1.5,0.2,2
			c0.3-0.4,1.2-1.1,1.4-1.7c-0.2,0.4-0.1,1.3-0.2,1.8c3.3,1.6,6.8,2.8,10.2,4.2c0.1,1.4,0.1,2.9,0,4.3c-1.8,0.1-3.7-0.1-5.5,0
			c-1.3,0.1-4-0.1-5,0.3c-3.5,1.3-2.4,6.6-2,9.4c1.1,7.1-4.3,14.4-11.7,15.5c-5.9,0.8-12.1-1.2-16.4-5.1c-1.7-1.5-7.6-9.6-3-10.9"/>
	</g>
	<path class="st3" d="M442.3,322.8c0,2.5,1.6,4.8,2,7.6c0.8,6.1-0.4,12.6-0.5,18.8c0,3.3,0.5,5.7-3.3,6.5c-7.7,1.6-16.2,0.4-24,1.4
		c5.6-5.1,6.4-12,7.4-19.4c0.7-5.1,1.4-12,3.3-16.8c1.2-3,3.6-4.4,2.5-8c-4.2,3.9-9.6-0.3-10-5.2c-0.6-6.8,5.8-9.8,11.9-7.6
		c5.8,2,2.6,5.8,2.2,9.7c-0.5,4.6,4,4.5,7,2.8c3-1.7,4.7-5,5.7-8.2c2.3-7.2,2.6-15.4,2.5-22.9c0.6,0.9,1.2,1.7,1.7,2.6
		c0.7-1.5,1-3.4,2.1-4.7c0,1.3,0,2.6,0,3.8c1.6-0.4,3-1.8,4.1-3c0.2,1.6-1.2,2.9-1.3,4.4c0.7-0.3,1.5-0.3,2.2-0.9
		c-2.3,1.9-5.4,4.8-6,7.8c-1.1,5-0.5,10.1-1.3,15.1c-0.9,6.1-4.6,8.4-7.5,13.4C442.6,321,442.3,321.9,442.3,322.8z"/>
	<ellipse class="st3" cx="453.4" cy="275.1" rx="5.7" ry="5.9"/>
	<g class="st5">
		<path class="st6" d="M343.2,25.3c7-4.6,3.8-19.9-2.3-23.9c-2.8-1.9-7.9-1.4-12.3-1.2C304.2,10.9,319.7,40.9,343.2,25.3z"/>
	</g>
	<g class="st1">
		<path class="st6" d="M300.9,0.9c-1.9-0.2-5.8,3.4-7.1,4.6c-2.1,1.9-3.8,4.1-5.2,6.5c-3,5.3-4.4,11.4-5.1,17.4
			c-0.6,4.7,0.1,9.5-0.4,14.2c-0.1,1.4-0.3,5.3-1.8,6.1c-2.1,1-7.8-3.7-9.9-4.5c-2.8-1.1-5.6-2.1-8.4-3.1c-3.8-1.4-4.8-1.7-5.4-5.9
			c-1.2-8.2,3-17.9,9.5-23.2c-4.8,1.6-9.9,7.3-12.9,11.2c-3.6,4.7-2.3,9.2-2.6,14.6c-2.8,0.2-6.6-2.4-7.8,0.2
			c-0.5,1.1,0,5.7,0.9,6.6c2.7,2.5,7.1,0.3,10.2,1.4c3.1,1.1,6.4,3.5,9.5,4.9c7.3,3.3,14.5,7.1,19.8,13.3c3.9,4.6,6.2,10,8.3,15.6
			c1.4,3.8,2.6,9,5,12.3c4.9-3.8,7.2-10.6,10.7-15.6c-2.2-2.2-3.8-3.3-5.1-6.1c-0.7-1.6-1.4-3.2-2.1-4.9c-2.1-5.1-3.8-10.5-4.9-15.9
			c-3.1-16,0-32.3,9.1-45.9C304.2,2.4,303.6,1.2,300.9,0.9z"/>
	</g>
	<g>
		<path class="st6" d="M461.9,29.1c0.5,0.5,1.1,0.9,1.6,1.4C462.9,29.9,462.4,29.4,461.9,29.1z"/>
	</g>
	<g class="st1">
		<path class="st6" d="M0,217.9c0.7,0.9,0.3,0.7,1.6,1c0.1-0.1,0.2-0.2,0.3-0.3c0-0.4,0-0.9,0-1.3c-0.4,0-0.9,0-1.3,0
			C0.3,217.5,0.2,217.7,0,217.9z"/>
	</g>
	<g class="st1">
		<path class="st6" d="M649.8,436.5c0.4-0.1-0.1,0-1.1,0.2C649,436.6,649.4,436.6,649.8,436.5z"/>
	</g>
	<g>
		<path class="st7" d="M512.7,368.6c-21.3,4.2-49.5,17.7-50.5,52.6c-1.5,51.3,34.9,64.6,63.6,61.5c34.4-4.7,44.3-28.1,41.2-43.8
			c-8-39.9-61.5-37.5-59.9,0c0.1,3.3,3.6,12.5,3.9,12.2c-0.3-0.3,0.3-19,18-25.3c13.6-0.3,35.4,29.9,6.5,39.1
			c-60.7,19.3-67.7-84.7,1.3-76.6c34.2,4,44.8,81.8,93.3,56.3c-0.1-0.3,14.3-3.5,18.7-4.5C582.2,453,593.6,361.3,512.7,368.6z
			 M484.8,396.7c0.2-0.3,0.3-0.7,0.5-1l0.3,0.5C485.4,396.4,485.1,396.5,484.8,396.7z"/>
	</g>
	<path class="st3" d="M203.3,74.1c5.6-2,10.2-3.3,13-8.9c2.1-4.2,3.5-11.2,2-15.7c6-4.7,5.1,12.6,4.4,15c-2.2,7.8-8.7,15.5-15,20.3"
		/>
	<g class="st1">
		<path class="st6" d="M233.1,89.1c3.3-6.1-3.6-14.7-6.2-20.1c-4.3-8.9-9.5-17.4-13.5-26.4c4.2-1.4,8.4-4.4,11.8-7
			c3.2,3.3,6.3,7.8,8.2,12c-3.5,0.5-7.3-2-10.9-2c-1.1,7.8,7.8,19.2,10.9,26c2,4.3,2.5,6.5,3.8,10.9"/>
	</g>
	<g class="st1">
		<path class="st2" d="M30.3,355L30.3,355c-0.2-0.1-0.2-0.1-0.4-0.2c-0.4-0.2-0.7-0.5-1.2-0.7l-0.1,0c-0.2-0.1-0.5-0.2-0.7-0.3
			c0,0-0.1,0-0.1,0l-0.6-0.2l0,0l-0.7-0.2c-0.1,0-0.2,0-0.3,0c-0.2,0-0.4-0.1-0.6-0.1l0,0c-0.4,0-0.9-0.1-1.3-0.1l0,0
			c-0.3,0-0.5-0.1-0.8-0.1c-0.1,0.1-0.2,0-0.3,0l-0.6,0c-0.1,0.1-0.2,0-0.4,0c-0.2,0-0.5,0-0.7,0.1c-0.3,0.1-0.7,0.1-0.9,0.2
			c-0.4,0-0.5,0.2-0.8,0.1c-0.2,0.1-0.4,0.1-0.6,0.2l-0.6,0.1l0,0c-0.4,0.1-0.9,0.2-1.2,0.3l-0.1,0.1c-0.3,0.1-0.9,0.1-0.9,0.4
			c-0.4,0-0.8,0.2-1,0.4c0,0.2,0.3,0.3,0.6,0.3c0,0.2,0.5,0.2,0.5,0.5c0.1,0.2,0.6,0.2,0.6,0.4c0.2,0.1,0.5,0.3,0.9,0.3
			c0,0.1-0.1,0.1,0,0.1c0.1,0.2,0.5,0.2,0.6,0.3c0.3,0.1,0.5,0.3,0.8,0.4c0.7,0.4,1.7,0.6,2.7,0.7c0.3,0,0.6,0.1,0.9,0.1
			c0.1,0,0.2,0,0.3,0c0.3,0,0.5,0,0.8-0.1c0.4,0,0.7,0.1,1.2,0.1c0.1,0.1,0.2,0,0.3,0c0.3,0,0.5,0,0.8,0c0.4,0,0.8-0.1,1.2-0.2l0,0
			c0.1,0,0,0,0.1,0c0.4-0.1,0.9-0.2,1.3-0.3l0,0c0.7-0.2,1.2-0.5,1.8-0.8c0.2,0.2,0.3,0.4,0.6,0.6c0.1,0,0.2,0,0.3-0.1
			c0.1,0,0.1,0,0.2,0c-0.2-0.3-0.6-0.7-0.4-1c-0.1-0.5-0.3-0.9-0.7-1.4C30.5,355.2,30.4,355.1,30.3,355z"/>
		<path class="st2" d="M32,337.5c-0.4,1.2-0.4,2.7-1.2,3.7c-1.3,1.4-2.1,3.1-2.6,5.1c-0.6,3.1-0.9,6.6,1.6,8.5c0.1,0,0.1,0,0.1,0.1
			l-0.1,0l0.1,0c0,0-0.1-0.1,0-0.1c0.1,0.1,0.4,0.2,0.4,0.4c0.1,0.2,0.3,0,0.4-0.1c1.2-0.9,1.8-2.4,2.4-3.8c0.1-0.3,0.2-0.7,0.2-0.9
			c0.1-0.5,0.1-1,0.1-1.5l-0.1,0c0.2-1.1-0.1-2,0.1-3c0-0.2,0-0.4-0.1-0.6l0,0c-0.1-0.4,0-1-0.3-1.4c-0.1-0.7-0.4-1.1-0.6-1.7l0.1,0
			c-0.2,0-0.2-0.3-0.3-0.5c0-0.5-0.2-0.8-0.2-1.3c0-0.9,0.2-1.9,0.3-2.8l-0.1-0.1L32,337.5z"/>
		<path class="st2" d="M15.3,348.1c4.5,3.1,12.3,7,17.1,8c2.7,0.6,3.7,0,5.1-0.2c0.8-0.1,2,0.7,2.9,0.8c0,0,0-0.1,0-0.1
			c-0.2-0.2-0.3-0.2-0.5-0.4c-2.7-0.7-4.2-2.3-6.6-3.8c-4-2.4-10-4.6-14-4.5C17.9,348,15.5,347.5,15.3,348.1z"/>
		<path class="st2" d="M39.5,348.3c-0.3,0.3-0.5,0.9-0.7,1.4c-2.7,4.9-6.3,8.9-8.8,8.9c-0.3-0.3-0.8-0.2-0.5-1.4c0-1.1,0.7-1.8,1-3
			c1.7-3.5,3.9-6.4,5.9-7.9c1.6-0.7,3.2-1.6,4.7-1.4l0.2-0.2l0.1,0.4C40.6,346,40.1,347.6,39.5,348.3z"/>
		<path class="st2" d="M31.8,355.9c0,0.7,0.2,1.2,0.5,1.8c4.6,2.6,8-0.4,9.7-1.7c0.5-0.4,1.5-2,1.1-3.2c0,0-0.1,0-0.1-0.1
			c-0.1,0-0.1,0-0.2,0c-0.6,0.4-4.3-0.1-5.5,0C34.7,352.9,33.2,354.5,31.8,355.9z"/>
		<path class="st2" d="M33.7,354.9c-0.3-0.1-0.6-0.1-1-0.1c-4.2,0.4-4.8,5.3-4.7,8.2c0.1,3.4,0.6,6,1.3,6.5c1.8,1.1,4.3-6.1,4.5-8.4
			C33.9,359.7,35.5,355.5,33.7,354.9z"/>
		<path class="st2" d="M28.4,356.8c5,2.3-4.7,9.7-8.2,10.8c-1.2-1.2,2.5-8.7,6.2-10.5C27.2,356.6,27.8,356.9,28.4,356.8z"/>
	</g>
	<g class="st1">
		<path class="st2" d="M610.6,220c-8.6,4.1-11.5-13.8-9.8-18.9c3.1-0.4,11.8,10.2,11.3,16.3C612.1,218.5,611.1,219.1,610.6,220z"/>
		<path class="st2" d="M600,237.8c0.5-1.6,1.4-3.1,1.3-5c-0.4-2.8-0.1-5.5,0.8-8.1c1.6-3.7,3.8-7.6,7.8-6.5c0.1,0.1,0.1,0.1,0.2,0.1
			l0-0.1l0.1,0c0,0-0.1,0-0.1,0.1c0.2,0,0.6,0.2,0.7,0.1c0.3-0.1,0.3,0.4,0.4,0.6c0.6,2.3,0.2,4.5-0.1,6.5c-0.1,0.4-0.2,0.9-0.4,1.1
			c-0.3,0.6-0.6,1.2-1,1.6l-0.1-0.1c-0.6,1.2-1.6,1.9-2,3.2c-0.2,0.2-0.3,0.4-0.5,0.5l0,0c-0.5,0.3-0.8,0.9-1.4,1.1
			c-0.6,0.6-1.2,0.6-1.9,0.9l0,0.1c-0.2-0.2-0.4,0.1-0.6,0.2c-0.4,0.5-0.8,0.6-1.1,1.1c-0.6,1-1.2,2.1-1.8,3.1l-0.2-0.1L600,237.8z"
			/>
		<path class="st2" d="M597,216.1c0.5,0,1-0.4,1.5-0.7c5.6-2.2,12.3-2.5,16.1,0c0.3,0.6,1.1,1,0.2,1.8c-0.4,1.1-1.7,1-2.5,1.9
			c-3.6,1.8-7.9,2.4-11.3,1.9c-2.6-0.9-5.3-1.6-7.4-3.2l-0.3,0l0.1-0.5C594.5,217.2,595.8,216.1,597,216.1z"/>
	</g>
	<g class="st1">
		<path class="st2" d="M503.7,75.5c0-0.8,1-1.2,1.2-1.6c1.5-6.3,13.8-9,14.4-0.1c-1,4.9-6.9,7.4-11,5.5
			C506.7,78.6,504.8,77,503.7,75.5z"/>
		<path class="st2" d="M522.5,70.1c-0.2,0-0.4,0.3-0.6,0.4c-2.1,1.4-4.9,1.5-7.1-0.4c-0.2-0.4-0.7-0.7-0.4-1.3
			c0-0.8,0.6-0.7,0.7-1.3c1.3-1.2,3-1.5,4.6-1.1c1.3,0.7,2.6,1.3,3.9,2.5l0.1,0l0.1,0.3C523.3,69.4,523,70.1,522.5,70.1z"/>
	</g>
	<g class="st1">
		<path class="st2" d="M634.9,193.2c0.1,0.6,0.2,0.7,0.5,0.9c3,3.4,17.4-3.8,16.3-10.6c-2.1-2.7-9.3-0.2-13.5,4.2
			C636.6,189.4,635.9,191.3,634.9,193.2z"/>
		<path class="st2" d="M651.4,196.1c-1,2-2.6,4.8-3.9,5.6c-2.3-2.6-7.2-14-3.4-20.7c0.3-0.2,0.7-0.5,1-0.7
			C651.7,178.3,652.2,190.6,651.4,196.1z"/>
		<path class="st2" d="M663,181.6c-0.6,0.1-1.1-0.3-1.6-0.6c-5.9-1.9-13.1-0.6-17.8,4.4c-0.4,1-1.4,1.8-0.6,3
			c0.2,1.7,1.7,1.1,2.4,2.3c3.7,1.8,8.3,1.7,12.2,0c3-2.1,6.1-4,8.8-7.2l0.3,0l0-0.7C665.6,182.7,664.4,181.4,663,181.6z"/>
		<path class="st2" d="M651.6,189.2c-0.2,0-0.3-0.1-0.4-0.2c-1.2,1.2-3,1.3-4.7,0.9c-1-0.4-1.9-0.9-2.7-1.4c-0.1,0,0.1,0.1,0.1,0
			c-0.2-0.2-0.6-0.3-0.8-0.3l0.1,0c-0.2-0.1-0.5-0.2-0.7-0.3c-2.7-1.2-4.5-3.4-6.7-5.2c-0.6-0.7-1.2-1.2-1.6-2
			c-0.6-0.2-1-1.3-1.4-1.7c-0.8-1.4-1.5-2.9-1.3-4.4c0.1-0.3,0.2-0.6,0.6-0.7c0.1,0.1,0.4,0,0.6,0c0.5-0.7,1.4,0,2.1,0
			c1.3,0.2,2.5,1.3,3.9,1.7c3.7,2.3,7.7,4.4,10.6,7.9c1.7,1.3,2.5,3.4,2.6,5.3c0.1,0,0.2,0.1,0.2,0.2
			C651.9,189,651.8,189.1,651.6,189.2z"/>
		<path class="st2" d="M651.4,168.6c-2.1-1.9-4.6,3.4-5.3,5.5c-1,3.1-3.4,11.2-0.5,13.3c0.6,0.2,1.2,0.4,1.9,0.6c0,0.5,0,1.1,0.6,1
			c0.1-0.4,0-0.6,0-1c0.1-0.1,0.1-0.1,0.1-0.2c5.5-1,5.7-12.4,4.8-15.6C652.7,170.9,651.9,170,651.4,168.6z"/>
	</g>
	<path class="st3" d="M530.1,282.9c2.9,3,4.7,8.4,3,11.9c-1,2-3,2.8-4.4,3.8c-0.8,0.6-0.2,1.4-0.5,2.1c-0.1,0-0.2,0-0.2,0
		c-0.2-0.2-0.2-0.2-0.3-0.3c0.7-1.9-1.5-2.9-2.6-4.5c-1.9-2.7-1.6-6.9,1.8-9.9C528,284.9,528.7,283.1,530.1,282.9z"/>
	<path class="st3" d="M527.6,315.6c0.2,0,0.3,0,0.5-0.1c0,0-0.1,0-0.2-0.1c0.1,0,0.1,0,0.2,0c4.8,0,17-8.5,12.1-20.6
		c-0.8-0.4-10.2,7.9-12.8,10.7c-1.8-2-9.5-14.2-12-13.2C510.1,300.8,523,315.6,527.6,315.6z"/>
	<path class="st3" d="M74.3,348.3c-1,0-1.9,0.3-2.9-0.2c-1.4-0.9-2.9-1.3-4.4-1.2c-2.3,0.3-4.8,1-5.1,4c0,0.1,0,0.1,0,0.2l0,0v0.1
		c0,0,0-0.1,0,0c0,0.2,0,0.4-0.1,0.5c-0.1,0.2,0.1,0.3,0.2,0.4c1.1,1,2.3,1.1,3.4,1.3c0.2,0,0.5,0,0.7-0.1c0.4-0.1,0.7-0.1,1-0.4
		l0-0.1c0.8-0.1,1.3-0.7,2.1-0.7c0.1-0.1,0.3-0.1,0.4-0.3h0c0.3-0.3,0.7-0.3,0.8-0.7c0.4-0.3,0.6-0.7,0.9-1.1l0.1,0.1
		c-0.1-0.1,0.1-0.3,0.2-0.4c0.3-0.1,0.5-0.4,0.8-0.5c0.6-0.2,1.3-0.4,2-0.5v-0.2L74.3,348.3z"/>
	<path class="st3" d="M47.4,360.1c2.8-1.7,3.5-3.2,5.7-6.6c2.7-4.3,7.6-4.1,10.3-3.3c1,0.3,2.9,0.6,3.7,2.7c1.3,3.4-0.7,7.7-4,9.3
		c-4.8,2.3-7.5,0.2-12-0.9c-1.2,0.2-2.4,0.3-3.5,0.5c-0.1-0.3-0.3-0.6-0.4-0.8C47.2,360.6,47.3,360.4,47.4,360.1z"/>
	<path class="st3" d="M248.6,102.9c7.5-2.8,8.6,12.5,6.8,16.7c-2.7,0.1-9.2-9.5-8.3-14.6C247.2,104,248.1,103.7,248.6,102.9z"/>
	<path class="st3" d="M258.9,88.7c-0.5,1.3-1.4,2.5-1.5,4.1c0.1,2.4-0.4,4.7-1.3,6.7c-1.6,3-3.8,6.1-7.1,4.9
		c-0.1-0.1-0.1-0.1-0.2-0.1l0,0.1l-0.1,0c0,0,0.1,0,0.1,0c-0.2-0.1-0.4-0.2-0.6-0.1c-0.2,0-0.3-0.3-0.3-0.5c-0.4-2,0.2-3.8,0.6-5.5
		c0.1-0.3,0.3-0.8,0.5-0.9c0.3-0.5,0.6-0.9,1-1.2l0.1,0.1c0.6-1,1.5-1.5,2-2.5c0.2-0.1,0.3-0.3,0.5-0.4l0,0c0.4-0.2,0.7-0.7,1.2-0.8
		c0.5-0.4,1.1-0.5,1.7-0.6l0-0.1c0.1,0.2,0.4,0,0.5-0.1c0.3-0.4,0.7-0.4,1.1-0.8c0.6-0.8,1.1-1.7,1.7-2.5l0.2,0.1L258.9,88.7z"/>
	<path class="st3" d="M259.8,107.3c-0.5,0-0.9,0.2-1.3,0.4c-4.9,1.4-10.5,1.2-13.5-1.2c-0.2-0.5-0.8-0.9-0.1-1.5
		c0.4-0.9,1.5-0.7,2.2-1.4c3.2-1.2,6.8-1.4,9.7-0.8c2.1,0.9,4.4,1.7,6,3.2h0.3l-0.1,0.4C261.9,106.5,260.8,107.3,259.8,107.3z"/>
	<path class="st3" d="M144.9,243.8c3.3,11.3-13.7,9-18.4,5.4c-0.2-3.8,10.4-10.5,16-8C143.6,241.6,144.1,242.9,144.9,243.8z"/>
	<path class="st3" d="M144.6,235.6c-0.2,0.2-0.2,0.5-0.3,0.8c-1.1,2.7-3.7,4.5-6.8,4c-0.5-0.3-1.1-0.3-1.2-1c-0.5-0.7,0.1-1-0.1-1.7
		c0.5-1.9,1.9-3.4,3.7-4c1.7-0.1,3.2-0.4,5.1,0l0.1-0.1l0.3,0.3C145,234.3,145.1,235.3,144.6,235.6z"/>
	<path class="st3" d="M111.9,216.5c1.7,1.7,2.7,4.9,1.7,6.9c-0.6,1.2-1.8,1.6-2.5,2.2c-0.4,0.4-0.1,0.8-0.3,1.2c0,0-0.1,0-0.1,0
		c-0.1-0.1-0.1-0.1-0.2-0.2c0.4-1.1-0.9-1.7-1.5-2.6c-1.1-1.6-0.9-4,1-5.8C110.7,217.7,111.1,216.6,111.9,216.5z"/>
	<path class="st3" d="M165.5,123c0.7,0,1.3,0.3,1.9,0.5c7,1.7,16.1,1.5,22.3-1.3c0.7-0.6,1.9-1.1,1-1.9c-0.1-1.1-1.9-0.9-2.7-1.7
		c-4.3-1.5-10-1.8-15-1c-3.9,1.1-8,2-11.6,3.9l-0.4,0l-0.1,0.5C162.5,122.1,163.8,123.1,165.5,123z"/>
	<path class="st3" d="M187.2,143c3.5-2.8,6.5-9.5,5.7-15.2c-0.4-3.2-2.2-5.3-3.2-7.4c-0.6-1.2,0.1-2,0-3.1c-0.1-0.1-0.2-0.1-0.2-0.2
		c-0.2,0.1-0.3,0.2-0.4,0.3c0.2,3-2.1,3.3-3.6,5.1c-2.4,2.9-3.1,8.9-0.7,14.7C185.7,139.3,186,142.1,187.2,143z"/>
	<path class="st3" d="M193.6,116.3c-4.7,0.1-11.9,2.9-15.4,6.7c-2,2.2-2.1,4.2-2.8,6c-0.4,1-1.6,1.2-2.2,1.9c0,0.1,0,0.1,0.1,0.2
		c0.3,0,0.3,0,0.5,0c2-1.9,4-1.1,6.4-1.5c4-0.7,8.9-4,11.2-8.7C192.1,119.3,193.9,117.4,193.6,116.3z"/>
	<path class="st3" d="M110.4,235.6c0.1,0,0.2,0,0.3,0c0,0-0.1,0-0.1,0c0,0,0.1,0,0.1,0c2.8,0,9.9-5,7-12c-0.5-0.2-6,4.6-7.5,6.3
		c-1.1-1.1-5.5-8.3-7-7.7C100.2,227,107.8,235.6,110.4,235.6z"/>
	<path class="st3" d="M156.7,61.7c10.1-3.8,11.6,16.8,9.2,22.5c-3.6,0.1-12.4-12.8-11.2-19.7C154.8,63.2,156,62.7,156.7,61.7z"/>
	<path class="st3" d="M170.5,42.5c-0.7,1.8-1.9,3.4-2,5.6c0.1,3.3-0.5,6.3-1.7,9.1c-2.2,4.1-5.1,8.2-9.5,6.6
		c-0.1-0.1-0.2-0.1-0.2-0.1l0,0.1l-0.1-0.1c0,0,0.1,0,0.1-0.1c-0.3-0.1-0.6-0.3-0.8-0.1c-0.3,0-0.4-0.4-0.4-0.7
		c-0.5-2.7,0.2-5.1,0.8-7.3c0.2-0.4,0.4-1,0.6-1.3c0.4-0.7,0.8-1.2,1.3-1.7l0.1,0.1c0.8-1.4,2-2,2.6-3.4c0.2-0.2,0.4-0.4,0.7-0.6
		l0,0c0.6-0.3,1-1,1.7-1.1c0.7-0.6,1.4-0.6,2.3-0.9l0-0.2c0.2,0.2,0.5,0,0.7-0.1c0.5-0.5,1-0.6,1.4-1.1c0.8-1.1,1.5-2.2,2.3-3.3
		l0.2,0.1L170.5,42.5z"/>
	<path class="st3" d="M171.7,67.5c-0.6,0-1.2,0.3-1.8,0.6c-6.6,1.9-14.2,1.6-18.2-1.6c-0.3-0.7-1.1-1.2-0.1-2.1c0.5-1.2,2-1,3-1.9
		c4.3-1.6,9.2-1.9,13.1-1c2.9,1.3,5.9,2.3,8.1,4.4h0.4l-0.1,0.5C174.6,66.5,173.1,67.5,171.7,67.5z"/>
	<path class="st3" d="M276,75c-11.8-0.7-4.3,20.7,0.6,25.7c3.6-1,6.8-17,2.7-23.5C278.5,75.9,277.1,75.7,276,75z"/>
	<path class="st3" d="M253.8,59.9c1.5,1.6,3.4,2.8,4.4,5c1.3,3.4,3.2,6.2,5.7,8.7c4,3.4,8.7,6.7,12.4,3.7c0-0.1,0.1-0.1,0.2-0.2
		l0,0.1l0.1-0.1c0,0-0.1,0-0.1,0c0.2-0.2,0.5-0.5,0.8-0.4c0.3-0.1,0.2-0.5,0.1-0.8c-0.7-2.9-2.4-5.1-4-7.2c-0.3-0.4-0.8-0.9-1.2-1.1
		c-0.7-0.5-1.3-1-2.1-1.3l0,0.1c-1.4-1.1-2.8-1.4-4.1-2.6c-0.3-0.1-0.6-0.3-0.9-0.4l0,0c-0.7-0.1-1.4-0.7-2.1-0.6
		c-1-0.4-1.7-0.2-2.7-0.1l0-0.2c-0.1,0.3-0.5,0.1-0.8,0.1c-0.7-0.4-1.2-0.3-1.9-0.7c-1.3-0.8-2.5-1.8-3.8-2.7l-0.2,0.2L253.8,59.9z"
		/>
	<path class="st3" d="M263.5,85.6c0.6-0.2,1.4,0,2.1,0c7.4-0.2,14.9-2.9,17.6-7.4c0-0.8,0.6-1.6-0.8-2.1c-1.1-1.1-2.4-0.3-3.8-1
		c-5-0.3-10,1-13.5,3.1c-2.3,2.2-4.9,4.2-6.2,7l-0.4,0.1l0.3,0.5C260.1,85.5,262.1,86.1,263.5,85.6z"/>
	<path class="st3" d="M149.5,193.5c4.5,15.2-18.4,12.1-24.8,7.2c-0.2-5.1,14-14.2,21.6-10.8C147.8,190.5,148.4,192.3,149.5,193.5z"
		/>
	<path class="st3" d="M149.2,182.5c-0.3,0.2-0.3,0.7-0.3,1c-1.4,3.6-5,6.1-9.2,5.4c-0.7-0.3-1.4-0.4-1.6-1.3c-0.7-1,0.1-1.4-0.2-2.3
		c0.6-2.6,2.5-4.5,4.9-5.4c2.2-0.2,4.4-0.6,6.9,0l0.2-0.1l0.3,0.4C149.7,180.8,149.8,182,149.2,182.5z"/>
	<path class="st3" d="M128.2,203.9c0.6-0.1,1,0.1,1.4,0.3c5.4,0.8,12.6,0,17.8-2.7c0.6-0.5,1.6-1,0.9-1.5c0-0.9-1.5-0.5-2-1.1
		c-3.3-0.8-7.8-0.6-11.8,0.3c-3.2,1.2-6.5,2.2-9.4,3.8l-0.3,0l-0.1,0.4C125.9,203.4,126.8,204,128.2,203.9z"/>
	<g>
		<path class="st6" d="M238.6,29c-4.2-2.4-10-3-14.8-3.1c-2.2,0-6.5-0.9-8.3,0c-1.2,0.6-3.9,5.1-2.3,6.8c0.8,0.9,3.4,0,4.4-0.1
			c3-0.1,6.1-0.1,9.1,0c4.3,0.1,8.5,1,12.7,1.8c0.3-1.8,0.4-3.6,0.4-5.4"/>
	</g>
	<g class="st1">
		<path class="st2" d="M319.9,38.9c-8.6,4.1-11.5-13.8-9.8-18.9c3.1-0.4,11.8,10.2,11.3,16.3C321.3,37.5,320.3,38,319.9,38.9z"/>
		<path class="st2" d="M309.3,56.7c0.5-1.6,1.4-3.1,1.3-5c-0.4-2.8-0.1-5.5,0.8-8.1c1.6-3.7,3.8-7.6,7.8-6.5
			c0.1,0.1,0.1,0.1,0.2,0.1l0-0.1l0.1,0c0,0-0.1,0-0.1,0.1c0.2,0,0.6,0.2,0.7,0.1c0.3-0.1,0.3,0.4,0.4,0.6c0.6,2.3,0.2,4.5-0.1,6.5
			c-0.1,0.4-0.2,0.9-0.4,1.1c-0.3,0.6-0.6,1.2-1,1.6l-0.1-0.1c-0.6,1.2-1.6,1.9-2,3.2c-0.2,0.2-0.3,0.4-0.5,0.5l0,0
			c-0.5,0.3-0.8,0.9-1.4,1.1c-0.6,0.6-1.2,0.6-1.9,0.9l0,0.1c-0.2-0.2-0.4,0.1-0.6,0.2c-0.4,0.5-0.8,0.6-1.1,1.1
			c-0.6,1-1.2,2.1-1.8,3.1l-0.2-0.1L309.3,56.7z"/>
		<path class="st2" d="M306.2,35c0.5,0,1-0.4,1.5-0.7c5.6-2.2,12.3-2.5,16.1,0c0.3,0.6,1.1,1,0.2,1.8c-0.4,1.1-1.7,1-2.5,1.9
			c-3.6,1.8-7.9,2.4-11.3,1.9c-2.6-0.9-5.3-1.6-7.4-3.2l-0.3,0l0.1-0.5C303.8,36.1,305,35.1,306.2,35z"/>
	</g>
	<g class="st1">
		<path class="st2" d="M368.9,58.3c-7.3,6.1-16.9-8.5-17-13.5c3.1-1.3,16,5.4,17.7,10.7C369.9,56.7,369.1,57.4,368.9,58.3z"/>
		<path class="st2" d="M364.5,76.8c-0.1-1.5,0.3-3.1-0.5-4.7c-1.4-2.3-2.1-4.8-2.1-7.2c0.3-3.7,1.2-7.7,5.7-7.9c0.1,0.1,0.2,0,0.3,0
			l-0.1-0.1l0.1,0c0,0-0.1,0-0.1,0.1c0.3,0,0.6,0,0.8-0.2c0.2-0.1,0.5,0.2,0.6,0.4c1.5,1.8,1.8,3.8,2.2,5.6c0,0.3,0.1,0.9,0,1.1
			c-0.1,0.6-0.2,1.2-0.5,1.7l-0.1,0c-0.1,1.2-0.9,2.1-1,3.3c-0.1,0.2-0.2,0.4-0.4,0.6l0,0c-0.4,0.4-0.4,1-1,1.3
			c-0.4,0.7-1,0.9-1.7,1.4l0.1,0.1c-0.2-0.1-0.4,0.2-0.6,0.3c-0.2,0.5-0.6,0.8-0.8,1.3c-0.3,1-0.5,2.1-0.7,3.2h-0.2L364.5,76.8z"/>
		<path class="st2" d="M353.4,59c0.6-0.2,0.9-0.6,1.3-1c5-3.5,11.8-5.8,16.6-4.8c0.5,0.4,1.5,0.5,0.9,1.5c0,1.1-1.4,1.4-1.9,2.4
			c-3.1,2.6-7.3,4.4-11,5c-3,0-6.1,0.2-8.8-0.5l-0.3,0.1l-0.1-0.4C351.3,60.7,352.2,59.4,353.4,59z"/>
	</g>
	<path class="st3" d="M426.2,155.8c0.8,0,1.3,0.3,1.9,0.5c7.1,1.7,16.4,1.5,22.8-1.3c0.7-0.6,1.9-1.1,1.1-1.8
		c-0.1-1.1-2-0.9-2.7-1.7c-4.4-1.5-10.2-1.7-15.3-1c-4,1.1-8.1,2-11.8,3.8l-0.4,0l-0.1,0.4C423.1,154.9,424.5,155.8,426.2,155.8z"/>
	<path class="st3" d="M448.4,175.6c3.6-2.7,6.6-9.4,5.8-15c-0.4-3.2-2.2-5.2-3.3-7.3c-0.6-1.2,0.1-2,0-3.1c-0.1,0-0.2-0.1-0.2-0.1
		c-0.2,0.1-0.3,0.2-0.4,0.3c0.2,2.9-2.2,3.3-3.7,5c-2.5,2.8-3.2,8.9-0.7,14.6C446.8,171.9,447.1,174.7,448.4,175.6z"/>
	<path class="st3" d="M454.9,149.2c-4.8,0.1-12.1,2.9-15.7,6.6c-2,2.2-2.1,4.2-2.9,5.9c-0.4,1-1.6,1.2-2.3,1.9c0,0.1,0,0.1,0.1,0.2
		c0.3,0,0.3,0,0.5,0c2.1-1.9,4.1-1.1,6.6-1.5c4-0.7,9.1-4,11.4-8.6C453.4,152.1,455.2,150.2,454.9,149.2z"/>
	<path class="st3" d="M418,185.8c-2.8,10.5-20.9-3-24.2-9c2-2.9,18.1-0.4,23.1,5.4C417.9,183.3,417.6,184.6,418,185.8z"/>
	<path class="st3" d="M404.8,190.4c0.6-0.3,1-1,1.4-1.5c5.3-5.3,12.3-8.9,17.5-7.7c0.6,0.5,1.6,0.6,1,2.1c0.1,1.5-1.4,2-1.9,3.5
		c-3.2,3.8-7.6,6.7-11.6,7.7c-3.2,0.2-6.4,0.7-9.4-0.3l-0.3,0.2l-0.1-0.6C402.5,192.9,403.5,191.1,404.8,190.4z"/>
	<path class="st3" d="M464.9,260.7c7.2,1.5,4.5-12.5,1.9-16c-2.3,0.3-5.7,9.9-3.7,14.3C463.5,259.9,464.3,260.1,464.9,260.7z"/>
	<path class="st3" d="M481.4,255c-1.4,0.1-2.7,0.6-4.2,0.3c-2.2-0.6-4.3-0.8-6.5-0.5c-3.2,0.7-6.6,1.8-6.6,4.8c0.1,0.1,0,0.1,0,0.2
		l-0.1,0l0,0.1c0,0,0-0.1,0.1-0.1c0,0.2,0.1,0.4-0.1,0.5c-0.1,0.2,0.2,0.3,0.4,0.3c1.7,0.8,3.5,0.7,5.1,0.7c0.3,0,0.8,0,1-0.2
		c0.5-0.1,1-0.3,1.4-0.5l0-0.1c1.1-0.2,1.8-0.9,2.9-1.1c0.2-0.1,0.3-0.2,0.5-0.3h0c0.3-0.3,0.9-0.4,1.1-0.8c0.5-0.3,0.7-0.8,1.1-1.3
		l0.1,0c-0.1-0.1,0.1-0.3,0.3-0.4c0.4-0.2,0.6-0.5,1.1-0.7c0.9-0.3,1.8-0.6,2.8-0.9l0-0.1L481.4,255z"/>
	<path class="st3" d="M471.9,251.8c-0.3,0.3-0.8,0.4-1.2,0.5c-4.2,2.1-7.7,5.6-8,8.9c0.2,0.4,0.1,1.1,1,1c0.9,0.3,1.5-0.5,2.4-0.5
		c2.9-1.2,5.4-3.2,6.9-5.3c0.7-1.9,1.6-3.7,1.7-5.6l0.2-0.2l-0.3-0.2C473.9,251,472.6,251.1,471.9,251.8z"/>
	<path class="st3" d="M343.2,182.5c0.8,0.8,1.5,1.3,2.3,1.7c5-1.9,2.9-9.5,2.1-13.1c-0.3-1.2-1.8-4.3-3.4-5.3c0,0-0.1,0-0.1,0
		c0,0.1-0.1,0.1-0.1,0.2c0.3,1.2-1.9,4.8-2.3,6.3C340.8,175.2,342.1,179,343.2,182.5z"/>
	<path class="st3" d="M347.6,193.3c2.9-1.4,5-5.1,1.8-7.2c-0.7-0.5-1.7,0.2-2.6,0c-1.8-0.4-4.9-3.5-7.1-1c-2.8,3.2,2.1,7.7,4.4,8.3
		C345.2,193.7,346.2,193.3,347.6,193.3z"/>
	<path class="st3" d="M651.5,339.1c4.5,15.2-18.5,12.1-24.9,7.3c-0.2-5.1,14-14.2,21.7-10.9C649.8,336.2,650.4,338,651.5,339.1z"/>
	<path class="st3" d="M651.1,328.1c-0.3,0.2-0.3,0.7-0.3,1c-1.4,3.6-5,6.1-9.2,5.5c-0.7-0.3-1.4-0.4-1.6-1.4c-0.7-1,0.1-1.4-0.2-2.3
		c0.6-2.6,2.5-4.6,4.9-5.4c2.2-0.2,4.4-0.6,6.9,0l0.2-0.1l0.3,0.4C651.6,326.4,651.7,327.7,651.1,328.1z"/>
	<path class="st3" d="M630,349.6c0.6-0.1,1,0.1,1.4,0.3c5.4,0.8,12.6,0,17.8-2.7c0.6-0.5,1.6-1,1-1.5c0-0.8-1.5-0.5-2-1.1
		c-3.3-0.8-7.8-0.6-11.9,0.3c-3.2,1.2-6.5,2.2-9.5,3.9l-0.3,0l-0.1,0.4C627.7,349,628.7,349.7,630,349.6z"/>
	<path class="st3" d="M593.8,164.7c1.7,1,3.3,2.6,5.3,2.8c3,0,5.8,0.9,8.4,2.6c3.9,3,8,6.8,7,12.3c-0.1,0.1-0.1,0.2-0.1,0.3l0.1,0
		l0,0.2c0,0,0-0.1-0.1-0.1c0,0.3-0.2,0.7,0,1c0.1,0.4-0.4,0.4-0.6,0.4c-2.4,0.5-4.7-0.6-6.8-1.4c-0.4-0.2-1-0.5-1.2-0.8
		c-0.6-0.5-1.2-1-1.7-1.8l0.1-0.1c-1.3-1.1-2-2.6-3.4-3.5c-0.2-0.3-0.4-0.5-0.6-0.9l0,0c-0.3-0.7-1-1.2-1.2-2.1
		c-0.6-0.9-0.7-1.8-1-2.9l-0.1,0c0.2-0.2-0.1-0.6-0.2-0.9c-0.5-0.6-0.7-1.3-1.2-1.8c-1-1.1-2.2-2-3.3-3.1l0.1-0.3L593.8,164.7z"/>
	<path class="st3" d="M625.7,165.1c0.7,5.2-1.6,12.2-5.7,14.9c-2.4,1.5-4.9,1-6.9,1.3c-1.2,0.1-1.2,1.4-2,1.9
		c-0.1,0-0.2-0.1-0.3-0.1c-0.1-0.3-0.1-0.4-0.1-0.6c2-1.6,0.6-4.1,0.7-6.6c0.2-4.2,3.5-8.6,8.9-9.6
		C622.2,165.8,624.3,164.4,625.7,165.1z"/>
	<path class="st3" d="M642.3,364.4c0.5,0.7,0.4,1.6,0.5,2.4c2.1,8.6,8.4,17.4,16.7,20.9c1.3,0.1,2.8,0.8,3.4-0.8
		c1.6-1.1,0-2.8,0.7-4.3c-0.7-5.7-4-11.6-8.5-15.9c-4.3-2.8-8.3-6-13.3-7.8l-0.3-0.4l-0.7,0.3C641.7,360.6,641.1,362.8,642.3,364.4z
		"/>
	<path class="st3" d="M669.5,361c-0.4,0.8-1.2,1.2-2,1.6c-6.8,6.3-11.5,15.7-9.9,23.7c0.7,1,0.8,2.5,2.7,2.1c2,0.5,2.6-1.5,4.5-1.8
		c5-3.7,8.6-9.4,10-14.9c0.2-4.7,0.8-9.3-0.4-14l0.2-0.4l-0.7-0.3C672.8,358.4,670.4,359.2,669.5,361z"/>
	<path class="st3" d="M613,174.7c10.9-0.8,2.4-17.6-2.5-21.1c-3.3,1.2-4.9,14.7-0.7,19.7C610.6,174.2,611.9,174.1,613,174.7z"/>
</g>
<g>
	<path class="st8" d="M504.1,94.9c-0.6-0.5-1.1-1.1-1.5-1.8C502.9,93.8,503.4,94.4,504.1,94.9z"/>
</g>
<path class="st9" d="M536.2,132.2c-0.1,0-0.5-0.1-0.9-0.3v0.2C535.6,132.1,535.9,132.1,536.2,132.2z"/>
<path class="st9" d="M540.9,151.2c0.3-3.4,0.9-7.2,0.1-10.6c-0.6-2.3-2.3-7.9-4.8-8.4c-0.3-0.1-0.6-0.1-0.9-0.1v-0.2
	c-0.5-0.1-1-0.3-1-0.3h-0.1c0,0.2,0.1,0.4,0.1,0.6c-2.1,0.5-3.7,2.8-5.1,4.8c-0.6,0.8-1.1,1.6-1.6,2.2c-1.9,2.3-4,4.9-4.6,7.9
	c-0.5,2.7-1.8,6.2-1.7,9c0.1,2.8,1.4,5.4,2.7,7.9c0.3,0.5,3,4.2,5.2,4.8c3.1-1.7,5.5-3.4,5.6-3.4
	C540.2,162.5,540.4,156.4,540.9,151.2z"/>
<path class="st9" d="M515.8,176.9l2-0.8c1.3-0.9,2.9-2.1,4.7-3.4c-0.6-1.1-1.3-3-2.1-4.5c-0.4-0.8-1.6-4.9-2.8-4.8
	c-0.5,0-1.1,1.9-1.6,2.3c-0.6,0.6-1.6,0.9-2.4,1.2c-1.1,2.1-0.6,5.1-0.5,7.4c0.1,1.3,0.8,2.5,1.5,3.3c1.2-0.5,2.3-1,3.2-1.6
	C517.1,176.5,516.5,176.8,515.8,176.9z"/>
<path class="st9" d="M493.7,187.3c3.2,0.7,11.3-4.8,14.6-6.9c-0.5-4.2-0.9-9.8-1.4-13.6c-9.4-1.7-17.1,0.3-21.9-3.6
	c1.1,3,1.8,5.9,2.4,7.6C488.5,173.7,492.2,184.7,493.7,187.3z"/>
<path class="st9" d="M325.1,180.8c-1.3,0.9-2.4,1.3-3.1,2.9l0.8,0.8c1.1,0.1,2.3,0.2,3.4,0.3c0.4-0.5,0.9-1,1.3-1.6v-2.1
	c-0.2-0.1-0.3-0.2-0.5-0.3H325.1z"/>
<path class="st9" d="M319.4,182.9c0.3-0.1,0.5-0.2,0.8-0.3c-0.1-6.8-2.8-8.2-3.6-13.8c-0.6-4.3,1.4-7.9,2.7-11.9
	c1.4-4.2,0.1-5.9-1.1-9.8c-0.3-0.9,0-2.6-0.3-3.3c-0.8-2-3.5-3.1-4.4-5.2c1,0.3,1.8,1.3,2.7,1.7c1.4,0.5,1.4,0.3,2.5,0.3
	c1.7,0,3.4-0.3,4.4,1.4c2.2,4,0.1,8.6,3.3,12.7c1.8,2.3,7.4,5.4,6.9,8.9c-1,7.5-1.9,14.9-2.9,22.4c3.3,2.1,29.9,15.2,31.3,15.1
	c0.3-3.4,0.7-6.8,1-10.2c3.8-26.5-27.8-48.2-39.9-63c-3-3.6-14.9-23-19-23.7C279.1,138.7,300,178.5,319.4,182.9z"/>
<path class="st9" d="M309.4,264.8c0,0,0.7,0.7,0.7,0.7c0.3-0.2,0.6-0.4,0.8-0.6C310.3,264.7,309.8,264.7,309.4,264.8z"/>
<path class="st9" d="M208.6,193.9c0.2-0.2,0.4-0.4,0.6-0.6c-0.3,0.1-0.6,0.2-0.8,0.4L208.6,193.9z"/>
<path class="st9" d="M113.6,309.3L113.6,309.3C113.5,309.3,113.3,309.6,113.6,309.3z"/>
<path class="st9" d="M517.8,176.2l-2,0.8C516.5,176.8,517.1,176.5,517.8,176.2z"/>
<path class="st9" d="M113.6,309.2c-0.1-0.3-0.2-0.7-0.3-1c-2.1-2.3-4.2-4.5-6.3-6.8c-3.3-3.6-12.3-4.2-16.8-4.3
	c-2,0-6.5-0.2-6.2,2.6c0.3,2.6,7.9,6.4,9.9,7.4c3.5,1.6,7.2,2.4,11,2.6c1.3,0.1,7.4,0.8,8.4-0.4
	C113.5,309.3,113.6,309.3,113.6,309.2z"/>
<path class="st9" d="M486.7,220.7c-3.7,3-92,71.4-78.4,140.7c36-25.2,58.2-57.3,68.8-86.6C487.9,244.6,486.9,220.7,486.7,220.7z"/>
<path class="st9" d="M424.5,244.7c2.5-2.9,7.1-5.4,8.2-9.1c0.8-2.6,0.1-7.8-1.6-10c-1.1-1.4-3.3-1.7-5-2.4c-2.7-1-3.6-1.4-5.4-4.1
	c-2.3-3.5-3.1-6.9-2.9-11.2c0.3-8.1,8-11.5,11.2-18.3c2-4.3,4.8-11.3,2.2-15.9c-1.9-3.3-6.6-3.9-9.4-6.1c1.8,0.2,3.8,0.2,5.7,0.3
	c-1.3-1.1-2.5-2.3-3.4-3.9c2.4,1.1,4.4,3.1,6.8,4.1c0.9-1.6,2.2-1.1,2.5,0.6c0.3-0.5,1.5-0.9,1.8-1.4c0.2,0.8,0.6,1.4,0.7,2.3
	c0.2,0,0.4,0.1,0.7,0.1c0.9,4.3-1.4,10.1-2.4,14.2c-1,3.9-1.8,6.9-1.9,11.1c5,0.3,12.4-4.6,17-6.7c2.8-1.3,6-3,9-3.5
	c1.6-0.3,3.3,0,4.9-0.4c-3,1.4-5.4,3.7-7.4,6.1c1.9,0,3.9-0.9,5.8-0.8c-1.4,0.9-3,1.5-4.5,2.2c3,0.9,7.1-1.4,10-0.2
	c-3.2,1.7-6.8,2.8-10.2,4c3.7,0,7.6-0.6,11.3-1.1c-1.7,3.4-6.5,3.7-9.6,5.2c-1.8,0.9-3.7,2.2-5.3,3.4c-4.7,3.6-9.2,4.8-10.9,11
	c-1,3.7-2.6,7.9-7.1,7.4c-1.1,2.9-1.4,6.2,0.7,8.8c3.3-1.3,7.7-5.4,10.5-7.8c3.8-3.1,7.3-6.6,11.2-9.5c7.4-5.6,14.8-11.1,22.1-16.7
	c3-9.5-34.8-64.5-35.4-64.6c-31.8,8.9-53.5,36.4-54.7,39.6c-8.3,21.9,16.2,63.8,11.5,104.7c0.1-1.1,2.2-3.3,2.8-4.2
	c2.5-3.9,5.1-7.7,7.8-11.5C415.8,255.2,420,249.9,424.5,244.7z"/>
<path class="st9" d="M321.6,259c-0.5-0.7-1.3-1.1-2.3-0.9c-4.3,1-5.5,4.4-8.4,6.7c4.2,0.9,13.9,6.7,15.3,9.3
	c0.1,0.2,0.2,0.3,0.3,0.5c0.1-1.8,2.8-10.6,1.7-11.8C327.3,261.9,323.3,259.1,321.6,259z"/>
<path class="st9" d="M597.4,331.4l-10.2-3.4c-3.7-2.2-4-6.3-10.4-6.3c-2.2,1-5.8,2.4-6.7,4.6c6.3,1.8,24.6,11.3,33.8,20.1
	C608.2,343.6,599.5,332.6,597.4,331.4z"/>
<path class="st9" d="M181.1,211.9C181.1,211.9,181.1,211.9,181.1,211.9c0-0.1,0-0.2,0-0.3C181,211.9,181,212.1,181.1,211.9z"/>
<path class="st9" d="M181.1,211.4c0,0.1,0,0.2,0,0.2C181.2,211.4,181.2,211.2,181.1,211.4z"/>
<path class="st9" d="M277.7,198.3c-11,0.8-84.5,11.6-96.6,13.7c1.2,44.1,13.4,59.5,65.7,46.3c22.4-5.7,46.9,0.7,49.6,2.1
	c6.3,1.7,13.1-2.8,12.5-8.3c-2.9-2.1-6.1-5.6-9.6-6.4c-2.7-0.6-5.9,0.7-7.6-2.6c-2.8-5.6,4-14.5,10.1-10.3c2.8,1.9,5.6,3.8,8.3,5.7
	c5.5,2.1,18.8,0.7,22.7-2.1c7.8-6.6-3.1-14.8-10.2-12.5c-4.2,2.5-6.1,5.9-8.6,3.4c1.6-16.4,25.9-9,29.7,4.4c1.3,4.6-1.7,7.3-3.7,11
	c-1.7,3.2-0.5,6.6-0.7,10c-0.2,4.4-2.6,4.9-4.6,8.3c-1.3,2.1-0.7,3.5-0.6,5.9c0.2,3.8-0.5,7.5-0.9,11.3
	c-0.5,3.1,15.1,25.5,21.6,46.6h1c5.1-7.1,10.8-51.9,11.2-67.2C368.9,202.4,293.8,198.3,277.7,198.3z"/>
<g>
	<path class="st8" d="M535.3,131.6h-1c0,0,0.5,0.2,1,0.3V131.6z"/>
</g>
<path class="st8" d="M515.5,178.7c0,0-0.4-0.4-0.9-1c-1.9,0.8-3.9,1.4-5.1,2c-0.3,0.1-0.7,0.4-1.2,0.7c0,0.5,0.1,0.9,0.2,1.3
	C508.5,181.8,515.5,178.7,515.5,178.7z"/>
<path class="st8" d="M523.5,173.7c1,0,7-5,7-5c-0.4,0.2-0.8,0.2-1.2,0.1c-0.6,0.3-1.2,0.6-1.8,0.9c-1.8,0.9-3.5,2-5,3.1
	C522.8,173.3,523.2,173.7,523.5,173.7z"/>
<path class="st8" d="M485.1,163.1c-0.9-2.4-2.1-4.7-3.6-6.4c0.2,1,0.5,2,1,3C483.2,161.2,484.1,162.3,485.1,163.1z"/>
<path class="st8" d="M500.8,81.8c-0.1,0.2-0.1,0.4-0.2,0.6l1.6-3.1C501.7,80,501.2,80.9,500.8,81.8z"/>
<path class="st8" d="M93.5,199.7c4,0,20,4,21,2c0.3-0.5,0.1-1.1-0.5-1.8c-6.5-1.9-19.3-5.5-26.5-6.2c-6.3-0.6-14.9-0.6-21-0.6
	c0,0.7,0,1.5,0,2.6C66.5,200.7,89.5,199.7,93.5,199.7z"/>
<g>
	<path class="st9" d="M94,307.1c3.4,1.6,7.1,2.4,10.9,2.6L87,303.1C89.5,304.9,92.8,306.6,94,307.1z"/>
	<path class="st9" d="M321.6,259c-0.5-0.7-1.3-1.1-2.3-0.9c-4.3,1-5.5,4.4-8.4,6.7c4.2,0.9,13.9,6.7,15.3,9.3
		c0.1,0.2,0.2,0.3,0.3,0.5c0.1-1.8,2.8-10.6,1.7-11.8C327.3,261.9,323.3,259.1,321.6,259z"/>
	<path class="st9" d="M309.4,264.8c0,0,0.7,0.7,0.7,0.7c0.3-0.2,0.6-0.4,0.8-0.6C310.3,264.7,309.8,264.7,309.4,264.8z"/>
	<path class="st9" d="M181.1,211.9C181.1,211.9,181.1,211.9,181.1,211.9c0-0.1,0-0.2,0-0.3C181,211.9,181,212.1,181.1,211.9z"/>
	<path class="st9" d="M319.4,182.9c0.3-0.1,0.5-0.2,0.8-0.3c-0.1-6.8-2.8-8.2-3.6-13.8c-0.6-4.3,1.4-7.9,2.7-11.9
		c1.4-4.2,0.1-5.9-1.1-9.8c-0.3-0.9,0-2.6-0.3-3.3c-0.8-2-3.5-3.1-4.4-5.2c1,0.3,1.8,1.3,2.7,1.7c1.4,0.5,1.4,0.3,2.5,0.3
		c1.7,0,3.4-0.3,4.4,1.4c2.2,4,0.1,8.6,3.3,12.7c1.8,2.3,7.4,5.4,6.9,8.9c-1,7.5-1.9,14.9-2.9,22.4c3.3,2.1,29.9,15.2,31.3,15.1
		c0.3-3.4,0.7-6.8,1-10.2c3.8-26.5-27.8-48.2-39.9-63c-3-3.6-14.9-23-19-23.7C279.1,138.7,300,178.5,319.4,182.9z"/>
	<path class="st9" d="M181.1,211.4c0,0.1,0,0.2,0,0.2C181.2,211.4,181.2,211.2,181.1,211.4z"/>
	<path class="st9" d="M178.6,284l0.1,0.3c0.1-0.1,0.2-0.2,0.2-0.3C178.9,284,178.7,284,178.6,284z"/>
	<path class="st9" d="M325.1,180.8c-1.3,0.9-2.4,1.3-3.1,2.9l0.8,0.8c1.1,0.1,2.3,0.2,3.4,0.3c0.4-0.5,0.9-1,1.3-1.6v-2.1
		c-0.2-0.1-0.3-0.2-0.5-0.3H325.1z"/>
	<path class="st9" d="M486.7,220.7c-3.7,3-92,71.4-78.4,140.7c36-25.2,58.2-57.3,68.8-86.6C487.9,244.6,486.9,220.7,486.7,220.7z"/>
	<path class="st9" d="M597.4,331.4l-10.2-3.4c-3.7-2.2-4-6.3-10.4-6.3c-2.2,1-5.8,2.4-6.7,4.6c6.3,1.8,24.6,11.3,33.8,20.1
		C608.2,343.6,599.5,332.6,597.4,331.4z"/>
	<path class="st9" d="M277.7,198.3c-11,0.8-84.5,11.6-96.6,13.7c1.2,44.1,13.4,59.5,65.7,46.3c22.4-5.7,46.9,0.7,49.6,2.1
		c6.3,1.7,13.1-2.8,12.5-8.3c-2.9-2.1-6.1-5.6-9.6-6.4c-2.7-0.6-5.9,0.7-7.6-2.6c-2.8-5.6,4-14.5,10.1-10.3c2.8,1.9,5.6,3.8,8.3,5.7
		c5.5,2.1,18.8,0.7,22.7-2.1c7.8-6.6-3.1-14.8-10.2-12.5c-4.2,2.5-6.1,5.9-8.6,3.4c1.6-16.4,25.9-9,29.7,4.4c1.3,4.6-1.7,7.3-3.7,11
		c-1.7,3.2-0.5,6.6-0.7,10c-0.2,4.4-2.6,4.9-4.6,8.3c-1.3,2.1-0.7,3.5-0.6,5.9c0.2,3.8-0.5,7.5-0.9,11.3
		c-0.5,3.1,15.1,25.5,21.6,46.6h1c5.1-7.1,10.8-51.9,11.2-67.2C368.9,202.4,293.8,198.3,277.7,198.3z"/>
	<path class="st9" d="M424.5,244.7c2.5-2.9,7.1-5.4,8.2-9.1c0.8-2.6,0.1-7.8-1.6-10c-1.1-1.4-3.3-1.7-5-2.4c-2.7-1-3.6-1.4-5.4-4.1
		c-2.3-3.5-3.1-6.9-2.9-11.2c0.3-8.1,8-11.5,11.2-18.3c2-4.3,4.8-11.3,2.2-15.9c-1.9-3.3-6.6-3.9-9.4-6.1c1.8,0.2,3.8,0.2,5.7,0.3
		c-1.3-1.1-2.5-2.3-3.4-3.9c2.4,1.1,4.4,3.1,6.8,4.1c0.9-1.6,2.2-1.1,2.5,0.6c0.3-0.5,1.5-0.9,1.8-1.4c0.2,0.8,0.6,1.4,0.7,2.3
		c0.2,0,0.4,0.1,0.7,0.1c0.9,4.3-1.4,10.1-2.4,14.2c-1,3.9-1.8,6.9-1.9,11.1c5,0.3,12.4-4.6,17-6.7c2.8-1.3,6-3,9-3.5
		c1.6-0.3,3.3,0,4.9-0.4c-3,1.4-5.4,3.7-7.4,6.1c1.9,0,3.9-0.9,5.8-0.8c-1.4,0.9-3,1.5-4.5,2.2c3,0.9,7.1-1.4,10-0.2
		c-3.2,1.7-6.8,2.8-10.2,4c3.7,0,7.6-0.6,11.3-1.1c-1.7,3.4-6.5,3.7-9.6,5.2c-1.8,0.9-3.7,2.2-5.3,3.4c-4.7,3.6-9.2,4.8-10.9,11
		c-1,3.7-2.6,7.9-7.1,7.4c-1.1,2.9-1.4,6.2,0.7,8.8c3.3-1.3,7.7-5.4,10.5-7.8c3.8-3.1,7.3-6.6,11.2-9.5c7.4-5.6,14.8-11.1,22.1-16.7
		c3-9.5-34.8-64.5-35.4-64.6c-31.8,8.9-53.5,36.4-54.7,39.6c-8.3,21.9,16.2,63.8,11.5,104.7c0.1-1.1,2.2-3.3,2.8-4.2
		c2.5-3.9,5.1-7.7,7.8-11.5C415.8,255.2,420,249.9,424.5,244.7z"/>
	<path class="st9" d="M412.2,121.7c-0.1-0.3-0.2-0.5-0.3-0.8l-2.3-0.8c-5.3,3.6-11.2,6.9-16.9,10.7c-0.9,2.2-0.9,4.6,0.3,6.5
		C395.3,136.9,411.3,123.7,412.2,121.7z"/>
	<g>
		<g>
			<path class="st8" d="M718.8,373.9c2.4-3.7,2.7-6.3,2.6-10.7c-3.4,3.1-6,5.8-8.2,9.8c-0.3-5.1-0.6-10.3-3.3-14.9
				c-3.2-5.3-3.1-8.5-1.6-14.5c0.5-1.9,2-6.6-0.3-7.9c-4.1-2.4-5.3,10.1-5.3,12.4c0.1-6.5-2.8-10.6-5.6-15.9
				c-6.5,2.9,0.9,14,3.9,16.5c-2.8,0.2-8.8-0.8-11,2c-3.4,4.3,5.9,4.1,8.4,4.6c5.6,1,11.6,6.3,7.5,12.3c-2.2,3.2-6.3,5.4-9.8,6.7
				c-3.5,1.3-8.3,3.4-10.8,4.2c1.2-3.4,6.3-6.8,5.8-10.7c-7.3-1-7.6,5.5-8,10.8c-1-3.6,0.3-7.5-1-11.1c-0.9-2.7-2.1-5-4-2.7
				c-3.3,4-0.9,10.3,0.9,14.2c-1.2-0.8-11.2-9.6-12.7-5c-1,2.9,7.2,7.5,9.4,7.9c-3.4,1.9-16.2,3.5-19.6,3.2
				c-6.7-0.7-27.7-12.9-29.8-21.5c0,0.2,22.2-3.1,24.1-3.5c12.6-3,23.1-7.4,32.1-16.7c4.4-4.6,5.5-8.5,6.7-14.5
				c0.9-4.7,5.1-12.9,11.1-10c5.9,2.8,13.5,13.6,13.8,20.2c0.1,2.3-1.8,4.5-0.8,6.6c8.4,1.7,4.8-14.2,3.5-17.6
				c-1.5-3.9-3-8.1-5.2-11.7c-1.1-1.8-5-5.2-5.3-6.7c2.9-0.9,4.8,0,6.7-2.7c1.3-1.9,2.4-6.2,1.4-8.3c-1.4-3-6.1-3.8-8.8-2.5
				c-2.2,1-3,3-4,5c-0.8,1.6,0.6,1.6-1.6,1.9c-1.4,0.2-2.4-0.5-3.5-1.2c-3.5-2-6.6-4.8-10.5-6.3c-4.2-1.6-9.3-2.1-13.9-1.9
				c-2,0.1-4.3,0.7-6.4,0.3c-1.9-0.4-3.8-1.9-5.5-2.5c0.3,0.6,0.5,1.8,0.8,2.4c-2.5,0.2-5,0.2-7.4-0.5c-0.2,2.2,3.7,4.2,5.5,4.7
				c3.6,1,7.5-0.2,11.1-0.3c4.9-0.1,13.1,2.4,15.4,7.3c1.6,3.4-1.9,4.4-3.9,6.7c-2,2.3-3.6,5.4-4.1,8.4c-0.7,3.9,0,8.1-1,11.9
				c-0.8,3.1-2.6,3.7-5,5.4c-7,5-13.1,9-21.7,11c-10.6,2.4-21.8,2.5-32.5,1.3c-0.6-0.1-1.3-0.1-1.8-0.2c-8.4-2.5-6-7.5-4.8-13.8
				c4.5-2.5,7.8-2.7,9.6-8.1c3.4-0.3,2.3-1.5,5.7-1.7c8-5.1,6.3-18.7,2.2-25.7c-2.4-4.2-4.8-4.4-9.4-4.4c-3.2,0-9.4,0.2-8.3,5
				c4.2,0.6,7.3-3.2,11.6,0.1c2.8,2.1,4.1,6.3,4.2,9.4c0.1,3.7-1.9,8.8-5.8,10.1c-3.8,1.2-6-2.3-8.9-4.5c-3-2.3-6.7-3.1-10.3-3.8
				c-9.4-1.6-18.6-6.1-23.5-14.5c-1.4-2.4-3.1-5.2-3.7-7.8c-0.5-2,0.1-4.3-0.7-6.1c-4.8,0.7-9.8,0.4-14.5,1.7
				c-6,1.6-4.1,6.4,0.6,8.6c4.8,2.3,8.5,2.9,9.9,9.1c0.9,3.9-1.2,7.7-0.4,11.6c0.6,2.9-1.5,10.2-4.6,8.9
				c-21.8-9.1-58.8-15.8-80.2-3.2c-0.9,0.5,12-49.3,72.5-59.1c23-3.7,44.5,4.2,66.2,10.7c12.4,3.7,23.7,10.3,41,7.1
				c3.4-0.6,5.2-0.5,8.5-1.5c3.1-0.9,5.7-2.9,8.9-3.2c3.2-0.3,6.4,0.6,9.2,2c2.6,1.4,5,2.7,6.7,5.1c0.6,0.8,1.9,3.4,3.1,2.6
				c1-0.7-0.2-3.8-0.6-4.6c-1.1-1.8-3.3-2.9-5.1-4c-1.3-0.8-6.1-2.4-5.9-4.4c0.3-2.7,8-1.8,9.7-1.8c3,0,4.8,0.1,7.2,1.8
				c0.6,0.4,2,2.3,2.7,1.8c1-0.6,0-2-0.3-2.6c-2.1-3.5-5.5-4.8-9.4-4.5c-2.2,0.2-7.1,0.6-7.6-2.5c-0.3-1.6,0.9-3.8,0.7-5.7
				c-0.3-2.3-1.1-4.5-1.6-6.8c-0.2-1-0.9-3.3-0.2-4.4c0.8-1.3,3.6-2.2,5-2.9c1.9-1,3.6-0.7,3-3.2c-1.2-4.9-9.8,1.8-13-1.2
				c0,0.3-0.2,0.7-0.2,1c-0.6-0.5-1.1-1-1.6-1.6c0.4,3.1-1.4,4.3-2.3,6.8c-0.5,1.4-0.3,3.1-0.8,4.6c-5.7,16.4-22.4,14.6-46.8,7
				c-0.6-0.2-1.2-0.4-1.9-0.6c0-0.1,0-0.2,0-0.3c-0.9-0.3-1.8-0.7-2.7-1c0-0.1,0-0.2,0-0.3c0.1-1.8,1.5-4.6,2.4-6.2
				c0.8-1.6,2.3-2.9,4-4c2.2-1.4,3.4-1.4,5.9-0.6c2.9,1,2.6,1.7,5.1-0.8c-1.7-2.1-4.9-7.4-7.2-8.5c-2.1-0.9-12.5,4.5-17.4,4.7
				c-7.8,0.4-15.4-2.7-23.1-3.8c-6.3-0.8-9,1.7-10.8,5.6c-12.5-3.1-25.8-5-38.1-3.2c-0.5,0.1,1.9-3.2,2.4-3.5c1.7-1.2,4-1.7,5.7-2.9
				c3.3-2.2,5.8-5.1,6.8-9c1.1-4.1,1.6-7.9,5-10.9c3.1-2.7,6.8-2.3,8,2.3c-0.6-2.4-0.1-4.7-0.6-6.7c-1-3.4-4.4-3.4-7-2.4
				c-3.6,1.4-4.9,4.2-7.4,7c-4.6,5.1-12.9,3.1-19.2,5.1c-1.3,0.4-2.4,1.2-3.6,1.6c-2.8,1.1-2.4,0.7-4.4-1.5c-1.7-1.8-6.9-6.9-8.3-3
				c-1.3,3.5,3.4,6,5.5,7.7c2.8,2.4,1.9,5,3.6,7.9c1.6,2.6,4.5,3.7,7.2,4.8c3.2,1.3,3.7,2.5,5.8,5.2c-2.3-2.8-14,1.4-16.6,2.1
				c-9,2.5-17.8,6.2-25.6,11.4c-1.5,4.9-1.1,0.3-1.4,0c-1.3-3,6-24.6-1.4-42.9c-0.5-1.3,11.4-7.8,12.3-8.2
				c10.5-5.6,22-9.4,33.8-11.2c19.3-2.9,46.3-0.1,64.1,7.8c12.1,5.4,41.2,26.4,62.6,24.3c4.5-0.4,16.5,1.7,15.1-3.2
				c-0.9-3.2-1-10.5-5.3-9.5c-5.5,1.3-12,1.2-17.5,0.4c-3.9-0.5-8.1-1.6-11.2-4.1c-1.5-1.2-2.6-2.9-4.1-4.1c-2.6-2.1-5.8-3-8.6-4.7
				c-14.8-9.1-29.3-18.1-46.7-21.9c-6.6-1.5-13.3-2.3-20-3c-1.5-0.2-10-2.3-11-1.7c5.8-3.6,24.4-25.5,67.4-19.5
				c4,0.6,10.9,6.6,14.7,4.5c-16.3-19.8-40-16.8-46-16.8s-13-0.9-20,0c-8,1-11.1,9.3-12.7,11.2c-2.1,2.5-8,10.5-11.7,7
				c-2.2-2,0.4-10.1-0.3-13c-1-4-3.5-7.2-4.2-11.5c-1-6.7,0.3-13.5-1.7-20.1c-2.2-7.5-5.8-15.1-8.9-22.5c-3.2-7.5-3.6-15.6-6.8-23
				c-1.4-3.3-3.1-7.1-5.2-9.9c-1.7-2.3-5-4.1-5.7-6.9c0.1,4.4,3,8.2,3.8,12.6c0.9,5.1,1.7,10,2.5,15.1c-5.8-7.4-24-7.7-30.3,0.5
				l-1.6,3.1c-1,3.3-0.1,7.6,1.9,10.7c-2-4.7,4.2-13.5,12.6-12c19.4,3.6,33,30.7,18.9,46.3c-0.1,0.2-0.3,0.3-0.4,0.4l0.7,3.8h1v0.3
				c0.4,0.1,0.8,0.2,0.9,0.3c2.5,0.6,4.2,6.2,4.8,8.4c0.8,3.4,0.2,7.2-0.1,10.6c-0.5,5.2-0.7,11.3-6,14.2c-0.1,0.1-2.4,1.7-5.6,3.4
				c0.4,0.1,0.8,0.1,1.2-0.1c0,0-6,5-7,5c-0.3,0-0.7-0.4-1-0.9c-1.8,1.3-3.4,2.5-4.7,3.4c-0.9,0.6-2,1.1-3.2,1.6
				c0.5,0.6,0.9,1,0.9,1s-7,3.1-7,3c-0.1-0.4-0.1-0.9-0.2-1.3c-3.3,2.1-11.4,7.6-14.6,6.9c-1.5-2.6-5.2-13.6-6.2-16.6
				c-0.6-1.7-1.2-4.6-2.4-7.6c-1-0.8-1.9-1.9-2.6-3.4c-0.5-1-0.8-2-1-3c0,0,0,0,0,0c-3.5-3.7-8.5-9.5-8.9-10.5
				c-1.6-4.1-3.7-7.9-5.5-11.9c-1.1-2.4-5.5-14.6-11.5-19.6s-10.9-4.3-15-2.6s-7.1,3.9-10.8,5.1c-2.7,0.9-9.3,2.3-11.9,0.9
				c-8.5-4.8-8-22.5,0-28.4c-0.1-0.6-0.2-1.2-0.3-1.8c-2.8-1.6-9.1,0.2-10.7,2.3c-1.1,3-2.3,5.9-3.4,8.9
				c-2.9,5.6-19.3,27.3-26.1,26.3c-0.3-0.6-0.5-1.2-0.8-1.8c0.7-0.7,1.4-1.4,2.1-2.1c0.2-0.5,0.3-1,0.5-1.6c-1-1.1-1.6-1.4-3.4-1.8
				c-3.5,1.8-8.3,9.4-2.9,13c2.3,1.5,6.7-0.9,9.1,0.5c4.5,3.5,1.2,5.9,0.5,10.7c0.2,0.2,0.3,0.3,0.5,0.5c2.6-0.4,3.7-2.9,5.5-0.8
				c-3.7,3.1-10.4,10.3-11.5,10.8c-2.9-3.2-15.8-19.3-14-20.4c-3.1-21.5,27.1-31.7,36.1-44.4c4.2-6,9.1-21.4,10.1-31.4
				s-2.9-13.9-4.9-14.5s-2.3-5.3-4.1-7.2c-2.6-2.7-6.3-4-8.8-6.9c-2.4-2.8-4.5-6-6.7-9.1c-1.6-2.3-2.6-4.8-3.8-7.3
				c-0.4-0.8-1.5-2.2-1.2-3.1c0.3-0.8,1.7-1,2.4-1.3c-1.5-0.7-3.1-1.1-4.5-1.7c-0.6-0.3-1.2-0.8-1.9-1.1c-1.2-0.5-2.6-0.6-3.8-1.1
				c-1.2-0.5-3.1-2-3.5,0.4c-0.2,1.2,1,2.5,1.5,3.5c0.9,1.9,2.2,3.3,2.8,5.5c0.9,3.1,1,7.8-1.2,10.4c-1.3,1.5-3.1,1.4-4.7,2.1
				c-2.4,0.9-5.3,1.2-7.4,2.8c-2.1,1.6-3.3,5.4,0.4,4.2c0.9-0.3,2-2.2,3.1-2.7c3.2-1.5,8.8-1.9,10.8,1.7c-2.7,2-6,3.6-8.1,6.4
				c-0.7,0.9-2.3,3.7-0.4,3.7c1.5,0,3.2-2.4,4.1-3.3c2.1-2.1,4.4-3,7.4-2.8c1.4,0.1,2.9,1.2,4.2,1.8c1.5,0.7,2.3,1.3,3.9,1.5
				c1.2,0.2,2.6,0.1,3.7,0.6c2.7,1.3,4.4,4.3,5,7.1c0.2,1,0.2,2.1,0,3.1c-0.6,2.2-1.1,4.3-1.5,6.6c-0.2,1.4-0.1,2.9-0.6,4.1
				c-0.5,1.1-1,1.7-1.3,3c-0.6,3.1-1.4,6.1-2.6,9c-2.4,6.1-6.2,12.8-12.2,15.9c-3.6,1.9-8.1,5-11.3,7.5c-3.4,2.6-6.4,5.6-8.9,9.1
				c-0.3,0.5-3.5,6.4-3.8,6.7c-0.2-0.3,1.2-5.9,1.3-6.3c0.2-1.3,0.3-2.7,0.3-4c0.2-4.8,0.4-9.5,4.3-12.9c2.4-2.1,4.5-4.6,7.3-6.2
				c2.5-1.5,6.2-0.9,8.3-2.6c4.3-3.4-1-3.7-3.5-3c0.9-0.8,1.4-2,0.8-3c-4,2.9-8.7,4.1-12.6,6.8c-1.5,1-6,3.9-3.9-0.1
				c1.2-2.2,1.8-1.6,1.8-4.6c0-3.3-1.3-5.4-4.3-5.3c-4.6,0.1-9.2,4.2-6.4,8.6c1.3,2.1,3.8,2.1,1,3.6c-2.1,1.1-4.4-0.6-5.6-1.5
				c-2.9-2-4.1-5.3-6.5-7.7c0.3,5.3-4,0.5-6.4,2c-3.5,2.2,0.9,4.7,2.9,5.7c3.8,1.9,4.3,3.3,6.5,7.2c2.6,4.4,3.6,6.8,2.9,11.9
				c-0.5,3.4-1,7.9-1.5,11.3c-2.7,0.3-19.1-20.4-21.8-24.3c1.4-9.3,40.3-37.8,23.5-48.7c-2.1-1.3-5.5-1.2-7.3,0.3
				c-2.1,3.9-4.2,7.8-6.3,11.7c-3.5,5.6-8.4,10.7-12.9,15.6c-2.3,2.5-4.6,4.9-7.1,7.1c-3.7,3.1-5.1,6.7-7.9,10.7
				c-6.4,9.1-13.9,15.6-17.7,26.2c-3.5,9.6-5,19.8-4.7,30c0.2,8.9,1.7,17.9,4.9,26.2c1.1,2.9,6.4,15.8,10.8,15.6l-6.3,0.3
				c-10.1,0.5-15.9-13.2-19.1-20.7c-2.1-4.9-3.4-10.6-5.9-15.3c-3.1-5.7-8.9-10-14.2-13.4c-7.2-4.5-15.9-5.3-22.9-10.2
				c-5.6-4-10.3-10-13.5-16.1c-1.5-2.8-3.8-9.5-0.8-12.3c2.4-2.3,7.3,0.3,10,0.7c4.6,0.5,11.8,1,14.9-3.1c2.1-2.8,2.5-8,0.5-10.9
				c-0.2,0.4-0.8,0.9-1,1.5c-0.8-1.3-1.1-2.8-1-4.3c-1.9,6.7-2.8,10-10.6,9.9c-5.4-0.1-9.3-2.6-12.7-6.6c-2.3-2.7-9-9.2-8.6-12.9
				c0.3-3,3.3-3.8,3-7.5c-0.8-8.3-13.3-13.5-18.8-6.3c-2.2,2.9-3.5,7.9-2.4,11.5c1.8,6,12,3.2,10.7,12.1c-0.3,2.3-2.3,4.2-2.8,6.4
				c-0.9,3.9,0.2,8.2,0.2,12.1c-6.2-3.3-13.5-6-20.5-6.8c-8.9-1-25.5,3.8-30.7-5.9c-2-3.8-3-9.9-3.4-14.1c-0.5-5.9,0.8-7.1,5-9.9
				c-3.6,2.4-7.4,1.9-10.3,5.2c-2.5,2.9-3.3,6.2-3.7,9.9c-0.6,6.7,2.3,14.6,8,18.6c-3.9-0.6-9.1,0-11.8,0.3
				c-5.4,0.7-10.2,4.8-12.2,10c-2.7,6.9,0.5,14.1,8.3,14.3c1.6,0,8.7-2.2,8.1-4.7c-0.4-1.7-2.7-0.8-3.8-1.7c-4.4-3.5-2-8.5,4.2-9.6
				c8.6-1.5,18.8-0.1,27.6-0.1c11,0,23.4-0.8,33.2,5.3c9.6,6,17,16.7,25.3,24.3c5.3,4.8,11.7,7,18.3,9.4c2.9,1.1,7.2,2.4,9.8,4.2
				c5.5,3.9,7.9,12,9.9,18c1.2,3.5,2.3,7,3.7,10.4c0.9,2.2,6.1,7.9,5.3,10.1c-0.6,1.5-7.4,2.7-9.1,3.7c-1.9,1.1-3.9,2.3-6,1.9
				c0,0-19.5,2.1-23.9,3s-10.1,0.1-12.8,0.5s-8.2,1.8-9.2,2.8c-2.8,2.7-9.1,1.2-12.5,1c-0.7,0-1.6,0-2.5,0.1c0,0-8.4-0.5-14.4,0.5
				s-16,4.8-16,4.8l0,0c-4.6,0.9-9.9,1-12.9,1.3c-7.7,0.6-16.1,0.3-23.4-2.6l0,0c0,0-1.6-0.5-4.1-1.2c0.5,0.7,0.7,1.3,0.5,1.8
				c-1,2-17-2-21-2s-27,1-27-4c0-1.1,0-1.9,0-2.6c-3.5,0-6.2,0.1-7.2,0.1c-6-0.1-12.7,3.5-17.3,7.1c-1.9,1.5-2.8,2.9-3.7,5.1
				c-0.3,0.8-1.3,4.3-1.5,4.4c4.4-2.2,18.4-6.3,23.4-6.7c41.4-3.1,46.5,12.4,68.6,13.7c6.7,0.4,34.1-0.9,35.3-2.2
				c0.5,12.2,0.5,36.5,10.8,46.8c0.9,0.9-18-1.3-34.8-10.4c-26.8-14.7-75.8-45.5-108.2-16.2c-11.6,10.5-8.2,32-4.9,29.4
				c4.1-21.5,26.1-26.4,40.1-25c19.7,2,36.3,12.4,49.7,21.3c7.7,5.1,31.2,20.6,59.4,23.2l2.3-0.1l0.1,0.2c0.1,0,0.3,0,0.4,0
				c0,0.1-0.1,0.2-0.2,0.3c0,0-13.2,18.4-18.2,25.4s-18.2,18.8-21.7,21.1c-11.4,7.8-23.4,14.8-36,20.5c-9.7,4.5-19.8,8.3-30.2,10.8
				c-9.5,2.3-18.6,3.4-28.2,3.4c-3,0-5.8-0.4-8.8-0.5c-5.6-0.3-9.7-1.3-14.7-3.7c-3.9-1.9-6.3-4.5-8.3-8.3c-2-3.6-1.4-5.7-1.3-9.3
				c-3.6,1.1-5.8,6-5.4,9.4c0.9,8.6,8.6,15.8,15.8,19.5c24.8,12.5,55.6,6,80.4-3.6c21.1-8.1,40.3-20.3,57.4-35
				c23.7-20.3,40.6-45.7,78.7-51.8c2.9,0.6,70.9-8.9,85.5,70.6c6.3,49.2-9.7,126.4-11.5,132.6c-0.5,2.8-11.3,33.3-14.7,50.3h156.5
				c-7.6-11.6-29-36.4-28.2-64.7c-0.1-4.8-11.9-139,112.7-129.9c71.2,5.2,72.7,58.5,124.9,58.2c11.9-0.1,37.4-14.3,40.2-13.9
				c3.1,0.5,5.9,6.4,7.9,8.8c1,1.1,2.5,4.2,4,2.8c0.8-0.7,0.4-4.4,0.2-5.3c-0.5-3-2.6-6.7-4.6-8.9c2.9,1.2,4,5.8,7.6,5.5
				c-1.4-3.4-4.4-6.7-6-9.9C715.2,379.1,717.6,375.8,718.8,373.9z M303.8,104.3c4.2,0.7,16.1,20,19,23.7
				c12.1,14.8,43.7,36.5,39.9,63c-0.3,3.4-0.7,6.8-1,10.2c-1.3,0.1-27.9-13-31.3-15.1c1-7.5,1.9-14.9,2.9-22.4
				c0.4-3.5-5.2-6.6-6.9-8.9c-3.1-4.1-1.1-8.6-3.3-12.7c-0.9-1.7-2.7-1.4-4.4-1.4c-1.2,0-1.2,0.3-2.5-0.3c-0.8-0.3-1.7-1.3-2.7-1.7
				c1,2.1,3.7,3.3,4.4,5.2c0.3,0.7,0,2.4,0.3,3.3c1.2,4,2.5,5.6,1.1,9.8c-1.3,3.9-3.3,7.6-2.7,11.9c0.8,5.6,3.6,7,3.6,13.8
				c-0.3,0.1-0.5,0.2-0.8,0.3C300,178.5,279.1,138.7,303.8,104.3z M327.5,181.1v2.1c-0.4,0.5-0.9,1-1.3,1.6
				c-1.1-0.1-2.3-0.2-3.4-0.3l-0.8-0.8c0.7-1.6,1.8-2,3.1-2.9h1.8C327.1,180.9,327.3,181,327.5,181.1z M326.6,274.7
				c-0.1-0.2-0.2-0.3-0.3-0.5c-1.5-2.6-11.1-8.4-15.3-9.3c-0.3,0.2-0.5,0.4-0.8,0.6c0,0-0.7-0.7-0.7-0.7c0.3-0.1,0.9-0.1,1.5,0
				c2.9-2.4,4-5.8,8.4-6.7c1-0.2,1.8,0.2,2.3,0.9c1.6,0.1,5.7,2.9,6.6,3.9C329.4,264.1,326.8,272.9,326.6,274.7z M367.3,257.4
				c-0.4,15.3-6.1,60.1-11.2,67.2h-1c-6.5-21.1-22.1-43.5-21.6-46.6c0.4-3.7,1.1-7.5,0.9-11.3c-0.1-2.3-0.7-3.7,0.6-5.9
				c2-3.3,4.4-3.8,4.6-8.3c0.1-3.4-1-6.8,0.7-10c2-3.7,5-6.4,3.7-11c-3.8-13.4-28.1-20.8-29.7-4.4c2.5,2.5,4.4-0.9,8.6-3.4
				c7.1-2.3,17.9,5.9,10.2,12.5c-3.9,2.8-17.1,4.2-22.7,2.1c-2.8-1.9-5.6-3.8-8.3-5.7c-6.1-4.2-13,4.7-10.1,10.3
				c1.7,3.3,4.9,1.9,7.6,2.6c3.4,0.8,6.7,4.3,9.6,6.4c0.6,5.6-6.3,10-12.5,8.3c-2.8-1.4-27.2-7.8-49.6-2.1
				c-52.3,13.3-64.6-2.2-65.7-46.3c0,0,0,0,0,0c-0.1,0.2-0.1-0.1,0-0.3c0-0.1,0-0.2,0-0.2c0.1-0.2,0.1,0,0,0.2c0,0.1,0,0.2,0,0.3
				c12.1-2,85.6-12.9,96.6-13.7C293.8,198.3,368.9,202.4,367.3,257.4z M392.6,130.8c5.7-3.8,11.7-7,16.9-10.7l2.3,0.8
				c0.1,0.3,0.2,0.5,0.3,0.8c-0.9,2-16.9,15.3-19.3,15.6C391.7,135.4,391.7,133,392.6,130.8z M401.2,276.4
				c4.7-40.9-19.8-82.8-11.5-104.7c1.2-3.2,22.9-30.7,54.7-39.6c0.6,0.1,38.4,55.1,35.4,64.6c-7.4,5.6-14.8,11.1-22.1,16.7
				c-3.9,2.9-7.4,6.4-11.2,9.5c-2.9,2.4-7.3,6.5-10.5,7.8c-2.1-2.6-1.8-5.9-0.7-8.8c4.5,0.4,6.1-3.8,7.1-7.4
				c1.7-6.3,6.1-7.4,10.9-11c1.6-1.2,3.5-2.5,5.3-3.4c3.1-1.6,7.9-1.8,9.6-5.2c-3.7,0.5-7.6,1.1-11.3,1.1c3.4-1.2,7-2.3,10.2-4
				c-3-1.2-7.1,1.1-10,0.2c1.5-0.7,3.1-1.3,4.5-2.2c-1.9,0-3.8,0.8-5.8,0.8c2.1-2.4,4.5-4.7,7.4-6.1c-1.6,0.4-3.3,0.1-4.9,0.4
				c-3.1,0.5-6.2,2.3-9,3.5c-4.7,2.1-12,6.9-17,6.7c0.2-4.2,1-7.1,1.9-11.1c1-4.2,3.3-9.9,2.4-14.2c-0.2,0-0.4,0-0.7-0.1
				c-0.1-0.8-0.4-1.5-0.7-2.3c-0.3,0.4-1.5,0.9-1.8,1.4c-0.4-1.7-1.6-2.2-2.5-0.6c-2.4-1-4.4-3-6.8-4.1c0.9,1.5,2.1,2.7,3.4,3.9
				c-1.9,0-3.8,0-5.7-0.3c2.8,2.2,7.5,2.8,9.4,6.1c2.7,4.7-0.1,11.6-2.2,15.9c-3.2,6.8-10.8,10.2-11.2,18.3
				c-0.2,4.2,0.6,7.6,2.9,11.2c1.8,2.7,2.6,3.1,5.4,4.1c1.7,0.6,3.9,1,5,2.4c1.8,2.2,2.4,7.3,1.6,10c-1.1,3.8-5.7,6.3-8.2,9.1
				c-4.5,5.1-8.7,10.5-12.7,16c-2.7,3.7-5.3,7.6-7.8,11.5C403.4,273.1,401.3,275.4,401.2,276.4z M408.3,361.4
				c-13.5-69.3,74.7-137.7,78.4-140.7c0.3,0,1.3,23.9-9.6,54.1C466.4,304.1,444.2,336.2,408.3,361.4z M603.9,346.4
				c-9.1-8.8-27.4-18.3-33.8-20.1c1-2.2,4.6-3.7,6.7-4.6c6.4,0,6.8,4,10.4,6.3l10.2,3.4C599.5,332.6,608.2,343.6,603.9,346.4z"/>
		</g>
	</g>
	<path class="st8" d="M176.2,283.8c0.8,0.1,1.6,0.1,2.5,0.2l-0.1-0.2L176.2,283.8z"/>
	<path class="st8" d="M113.6,309.3L113.6,309.3C113.5,309.3,113.3,309.6,113.6,309.3z"/>
</g>
<path class="st8" d="M180.5,283.7c-3.6,3.9-42.4,25.8-58.8,26.4c0,0-11.3-0.2-16.8-0.3s-7.5-1.1-10.9-2.6c-1.2-0.6-4.5-1.6-7-4
	s-4.7-7.6-10.6-12s-7.2-4.4-10.7-6.6c-6.9-4.2-15.5-4.6-23.2-5.6c-0.3-2.9,3.9-3.3,5.9-3.6c3.2-0.4,6.3-0.6,9.2-2.3
	c2.6-1.6,8.6-8.1,8.3-11.5c-0.2,0.3-0.7,0.6-1,1c0.1-0.7,0-1.6,0.2-2.3c-0.3,0.3-1.3,0.8-1.5,1.1c0-0.2,0-0.4,0-0.7
	C60.7,269,52.5,270.9,45,272c-8.6,1.2-13.1,8.3-20.8,10.8c-0.9,0.3-2.3,0.5-3.3,0.1c-2-0.9-1-1.2-1.3-2.9c-0.3-2.5-0.4-3.8-3.5-4.1
	c-2-0.2-4.5,0.6-6,1.9c-5.4,5-1.4,14.7,5.4,15.6c2.8,0.4,6.4-0.8,8.9,0.3c4.2,1.9,5.1,9.4,5.9,13.2c1.4,6.6,2.1,13.1-0.7,19.4
	c-0.5,1.1-1.5,4.1-2.5,4.8c-0.4,0.3-5.8,0.2-5.8,0.8c1.2-0.1,2.5,0.1,3.7,0.2c0.2,2.7-1.5,4.9-1.3,7.4c0.3-0.8,0.9-1.4,1.3-2.1
	c-0.1,1.5,0.1,2.9,0.2,4.4c0.1-1.5,0.9-2.9,1.7-4.1c0,0.6,0.4,1.6,0.4,2.1c3.9-5,7.2-12.1,9.4-18.1c1.8-4.9,1.1-10.8,1-16.1
	c0-2.2-1.3-5.2-0.3-7.3c1.3-2.6,5.5-2.1,8-2c5.5,0.3,10.4,2.4,14.6,5.8c7.9,6.4,13.1,16.2,23,20.1c7.2,2.8,38.1,11.4,76.1-3.6
	L180.5,283.7z"/>
<path class="st8" d="M84.1,299.8c-0.3-2.8,4.2-2.6,6.2-2.6c4.5,0,13.4,0.7,16.8,4.3c2.1,2.3,4.2,4.5,6.3,6.8
	c0.1,0.3,0.1,2.1,0.2,2.5c0,0,3,0,4,0s0.7-0.8-0.6-1.3c-3.2-5.4-0.1-7.6-0.3-12c4.4-4.7,14.7-3.9,20.2-7.4c0.1-1,0.2-1.9,0.3-2.9
	c-2.5-1.2-5-2.4-7.6-3.6c-7-1.5-8.7,3.7-14.3,4.4c-10.2,1.3-17.7-6.6-26.6-3.9c-3.6,2.7-8.5,6-12.1,8.7c-0.5-0.3,1,6,4,8
	S84.2,300.8,84.1,299.8z"/>
<path class="st10" d="M23.1,346.1c3.2,2.4,5.1-2.5,2.1-3.5c-1.7-0.6-3.3,1.1-3,2C22.5,345.1,22.8,345.6,23.1,346.1z"/>
<path class="st8" d="M87.5,193.7c7.2,0.7,20,4.3,26.5,6.2c-1.4-1.8-4.9-3.9-7.2-6.6c-2-2.3-2.6-6.1-2.8-9c-0.2-2.6,0-5.1-0.8-7.6
	c-0.5-1.5-1.3-2.7-1.7-4.2c-0.6-2.5-1.9-7.9-0.3-10.2c0.7-1,2.6-1.3,3.3-2.7c0.6-1.1,0.8-2.6,0.6-3.9c-1.1-8.4-14.1-9.7-16.1-0.9
	c-1,4.7,0.3,5.3,3.3,7.8c7.6,6-3.7,10.9-5.6,16c-1.2,3.2-1.5,7.4-0.8,10.7c-7.1,0.4-6.8-4.7-11-8.9c-3-3-6-5.6-3.2-9.7
	c2-2.9,7.1-3.4,8-6.6c1.1-4-3.1-10-6.9-10c-3.3,0-7.5,2.2-8.8,5.3c-1.3,3-0.1,4,1.4,6.5c2.4,3.9,2,7.8,0.3,12.1
	c-1.8,4.5-1.9,6.4-0.2,11c0.5,1.4,0.8,1.6,0.8,4C72.6,193.1,81.2,193.1,87.5,193.7z"/>
<path class="st8" d="M179.5,196.7c-2.2-4.5-0.9-11.8-1.2-16.2c-0.4-6.9,0-13.6-2.6-20.2c-2-5.3-6.3-9.7-10.6-13.4
	c-3.7-3.2-8.5-6-13-7.4c-2.3-0.7-8.4-2.1-6.4-5.8c0.7-1.4,3.5-2.3,4.5-3.5c1.2-1.4,1.8-3.2,1.9-5.1c0.2-6.7-7.4-10.3-13.6-8.2
	c-5.6,1.9-7,10-5.5,14.9c0.8,2.8,4.5,3.1,5.9,5.4c1.2,1.9,0.5,3.8,0.5,5.8c0,2.7,0.6,5.3,1.1,7.9c1.1,5.4,2.6,11,1.3,16.5
	c-0.9,4-6.2,5.7-6.6,9.1c-0.1,0.8,8.8-2.3,9.6-2.6c5.6-2.4,9.1-9.4,9.9-15.1c4.7,2.9,7,13.5,7.5,18.8c0.4,4.1,0.5,8.4,0.7,12.6
	c0.1,2.3-2.1,8.8-3.5,10.6c-1.5,1.9,0,5,11,4S180.5,198.7,179.5,196.7z"/>
<path class="st8" d="M211.9,187.9c1.1-2.6,0.5-6,1.9-8.3c3,2.7,5,8.7,9.9,9.1c-1.5,0.5-6.2,4-0.2,5s16-1,18-1s3.2-3.3,2.6-3.6
	c1.9,1.1,0.2-5.2,0.1-4.7c0.3-1.9,4.1-3.6,5-5.4c1.1-2.2,1.1-4.7,0.6-7c-1.2-5.7-4.6-14.3-11.1-15.4c-2.2-0.4-7.4,1.2-4.6,4.2
	c1.2,1.3,2.9,0.3,4.2,0.8c1.3,0.6,2.6,2.3,3.2,3.4c1,1.7,2.7,5.8,2,8c-1.2,3.7-5.7,1.2-8-0.2c-4.3-2.7-10-4.2-13.6-7.9
	c-1.4-1.4-2.1-3.3-3.4-4.8c-1.7-2.1-3.8-3.8-5.5-6c-2.5-3.3-2.2-5.6-2.1-9.5c-1.1,0.9-2.2,1.9-3.1,2.9c-0.4-1.2-1.1-2.4-1.7-3.6
	c-3.5,3.7-5.7,3.4-10.3,5.1c-1.9,0.7-5.5,0.8-6.6,2.7c-3.7,6.2,9.2,5.1,11.2,8.7c2.2,4,1.6,9.6,2,14.1c0.2,2.7,1.8,4.9,2.7,7.4
	c1.1,3.1-0.1,5.2-1.6,8.1c-0.1,0.3-2.8,4.9-3.8,6.9s1,2,2,2s8-4,8-4C210.1,193.6,211.5,188.9,211.9,187.9z"/>
<g>
	<ellipse class="st4" cx="470.5" cy="23.2" rx="6.3" ry="6.6"/>
</g>
<path class="st8" d="M462.5,128.7c1-7.2,8.4-15.8,13.7-19.5c8.9-6.3,11.3-13.1,12.5-23.6c0.4-3.6,0.1-6.2,2.6-9.2
	c2.3-2.7,4.4-5.5,7.4-7.4c3-1.9,6.4-3.7,8.5-6.7c1.2-1.7,1.2-3.2,1.6-5.1c0.9-3.8,2.3-6.2,5.6-8.4c2.6-1.8,5.9-3.2,6.6-6.6
	c1.1-4.9-2.1-6.9-6.2-7.9c-4.5-1.1-8.1-0.8-9.5,3.7c-0.6,2.1-1,2.5-0.1,4.4c1.7,3.6,3.8,7-2.5,7c-2.5,0-5.6-2.1-7.6-3.4
	c-1.8-1.1-3.4-1.9-5.1-3.2c-1.9-1.6-3.6-3-5.2-4.8c-1.3-1.5-2.2-3.4-3.3-5.1c-0.9-1.3-2.8-3.9-4.6-3.9c-0.9,0-1.5,0.7-2.2,1.1
	c-0.8,0.5-3.6,0.5-3.8,1.1c-0.2,0.7,1.6,2.3,2.1,2.6c1.9,0.9,2.8,0,4.2,1.8c1.4,1.8,2.3,3.8,3.4,5.8c2.2,4.1,4.6,8.2,8.5,10.9
	c0.9,0.7,3.4,1.1,3.1,2.7c-0.3,1.5-3.2,1.9-4.4,2.1c-1.9,0.5-2.9,1.1-2.9,3.2c0.1,3,1.3,3.6-0.8,6c-2.1,2.4-4.6,4.6-6.8,6.9
	c-3.5,3.6-4.4,6.7-5.4,11.4c-0.8,3.7-2,9.3-4.1,12.5c-2.5,3.8-7,6.1-11,7.8c-4,1.7-7.8,3.8-11.9,5.3c-0.4,0.2-3,1.3-3.4,1.5
	c-1.1,0.4-6,8,3,15C453.5,133.7,462.4,129.4,462.5,128.7z"/>
<path class="st8" d="M407.5,66.7c1.4-3.5,4.6-6.5,6.1-9.9c1.3-3,4.3-4.3,7.1-5.7c6.9-3.2,14.1-7.5,18.1-14.1
	c0.5-0.9,1.5-3.8,2.5-4.2c1-0.3,2.8,1.3,3.8,1.6c3,0.9,7.5,0.4,10.2-1.1c1.9-1.1,3-2.6,4.5-4.1c0.9-1,1.6-1.1,2.3-0.6
	c-0.1-0.1-0.2-0.2-0.2-0.2c1.3,0.3,2.7,1.4,4.1,0.9c-0.8-2.8-4.2-5.9-7.2-5c-2.2,0.6-4.3,2.3-6.3,3.4c-0.9,0.5-1.7,1.4-2.9,1.2
	c-2-0.2-3.8-2.4-5.3-3.5c-1.4-1-3.2-1.3-4.5-2.2c-3.7-2.7-0.7-4.9,1.3-7.1c1.4-1.5,1.5-5.4,0.5-7.1c-1.5-2.7-5.1-2.3-7.8-2.3
	c-5.6,0-8.4,8.2-4.7,11.9c8.8,8.9-7.4,18.2-14.9,20.8c-2.5,0.9-7.6,1.2-9.5,3.4c-2.1,2.4-5,6-5,6c0,0-4,7-1,14
	S407.3,67.2,407.5,66.7z"/>
<path class="st8" d="M596.3,124.3c4.7,1.1,10.2,4.1,15.3,3.9c4.3-0.2,7.3-2.9,8.6-6.7c1.9-5.5-0.4-15.6-6.9-17.4
	c-0.2,3.8,2.9,10.4-0.8,13.1c-5.5,3.9-11-2.5-14.4-6.2c-1.3-1.4-4.5-3.5-5.2-5.2c-1-2.6,1.2-5.4,0-8.3c-1.6-3.8-4.7-7.6-9.2-5.7
	c-3.5,1.4-6.7,6.4-3.8,9.9c1,1.2,7.1,2.9,5.1,5.1c-2.5,2.9-8-3.7-9.4-5c-5-4.8-5.4-12.4-10.5-17.3c-3.1-2.9-5.9-2.8-9.9-3.9
	c8.5,1.8,7.5,10,8.7,16.5c1.3,7.4,6.6,10.8,10.2,16.6c3.7,5.9,3,14,2.3,20.5c-0.4,3.5-2.7,11.3-3.9,14.7l25-6
	C597,142.7,597.2,124.5,596.3,124.3z"/>
<path class="st8" d="M507,166.8c0.5,3.8,0.9,9.5,1.4,13.6c0.5-0.3,0.9-0.6,1.2-0.7c1.2-0.6,3.2-1.2,5.1-2c-0.6-0.8-1.4-2-1.5-3.3
	c-0.1-2.3-0.7-5.3,0.5-7.4c0.8-0.3,1.8-0.6,2.4-1.2c0.5-0.5,1-2.3,1.6-2.3c1.2,0,2.4,4,2.8,4.8c0.8,1.5,1.4,3.4,2.1,4.5
	c1.5-1.1,3.2-2.2,5-3.1c0.6-0.3,1.2-0.6,1.8-0.9c-2.2-0.6-5-4.2-5.2-4.8c-1.2-2.5-2.5-5.1-2.7-7.9c-0.1-2.7,1.2-6.2,1.7-9
	c0.6-3,2.7-5.6,4.6-7.9c0.5-0.6,1-1.4,1.6-2.2c1.4-2,1.9-3.3,5.1-4.8s5.1-2.5,5.1-2.5l-3-4c-1.5,1.4-6.2,4-7.8,5.4
	c-1.3,1.1-2.4,2.4-3.8,3.4c-3.8,2.5-7.1-2.2-8.4-7.3c-1.2-4.9-1.2-6-0.5-11.1c0.3-2.2,1.8-7.2-0.6-8.8c-2.1-1.4-3.7,1-5.2,2.1
	c-2.3,1.6-6.2,4.1-5.3,7.1c0.3,0.8,1.1,1.6,1.3,2.5c0.4,1.4,0.3,2.9,0.4,4.4c0.3,2.5,0.4,5.2,0.5,7.8c0.3,5.8,0.1,11.7-0.5,17.4
	c-0.5,4.3-2.2,11.6-7.3,12.5c-4.3,0.7-11.8-1.1-12.8-5.9c-0.5-2.5,0.4-5.8,1.6-8c1.5-2.6,4.2-2.7,7-2.8c-2.4-3.6-9.6-1.3-11.7,1.4
	c-1,1.2-1.4,2.6-1.7,4.1c-0.2,0.9-0.7,3.8-0.2,6.8c1.6,1.7,2.7,4,3.6,6.4C489.9,167.1,497.6,165,507,166.8z"/>
</svg>
