<!-- Generator: Adobe Illustrator 21.0.0, SVG Export Plug-In  -->
<svg version="1.1"
	 xmlns="http://www.w3.org/2000/svg" xmlns:xlink="http://www.w3.org/1999/xlink" xmlns:a="http://ns.adobe.com/AdobeSVGViewerExtensions/3.0/"
	 x="0px" y="0px" width="184px" height="184px" viewBox="0 0 184 184" style="enable-background:new 0 0 184 184;"
	 xml:space="preserve">
<style type="text/css">
	.st0{fill:#F7382B;}
	.st1{fill-rule:evenodd;clip-rule:evenodd;fill:#FD9755;}
	.st2{opacity:0.56;fill:#FD9755;}
	.st3{opacity:0.84;fill:#FD9755;}
	.st4{fill:#FD9755;}
	.st5{fill:#FFFFFF;}
</style>
<defs>
</defs>
<g>
	<circle class="st0" cx="92" cy="92" r="92"/>
	<g>
		<ellipse class="st1" cx="98.6" cy="97.7" rx="5.4" ry="5.7"/>
	</g>
	<path class="st2" d="M89.1,132.6c-6.5-2.5-7.5,10.9-5.9,14.5c2.3,0.1,8-8.3,7.2-12.7C90.3,133.5,89.5,133.2,89.1,132.6z"/>
	<path class="st2" d="M80.1,120.2c0.4,1.2,1.3,2.2,1.3,3.6c-0.1,2.1,0.3,4.1,1.1,5.9c1.4,2.6,3.3,5.3,6.2,4.3c0-0.1,0.1-0.1,0.2-0.1
		l0,0.1l0.1,0c0,0-0.1,0-0.1,0c0.2,0,0.4-0.2,0.5-0.1c0.2,0,0.2-0.3,0.2-0.4c0.3-1.8-0.1-3.3-0.5-4.8c-0.1-0.3-0.2-0.7-0.4-0.8
		c-0.3-0.4-0.5-0.8-0.9-1.1l-0.1,0c-0.5-0.9-1.3-1.3-1.7-2.2c-0.2-0.1-0.3-0.3-0.4-0.4l0,0c-0.4-0.2-0.6-0.6-1.1-0.7
		c-0.4-0.4-0.9-0.4-1.5-0.6l0-0.1c-0.1,0.1-0.3,0-0.5-0.1c-0.3-0.3-0.6-0.4-0.9-0.7c-0.5-0.7-1-1.4-1.5-2.2l-0.1,0.1L80.1,120.2z"/>
	<path class="st3" d="M79.3,136.3c0.4,0,0.8,0.2,1.2,0.4c4.3,1.2,9.2,1,11.8-1c0.2-0.4,0.7-0.8,0-1.3c-0.3-0.8-1.3-0.6-1.9-1.2
		c-2.8-1-5.9-1.2-8.4-0.7c-1.8,0.8-3.8,1.5-5.2,2.8h-0.2l0.1,0.3C77.5,135.7,78.4,136.3,79.3,136.3z"/>
	<path class="st3" d="M139.9,127.5c0-0.7,1.1-0.9,1.4-1.3c1.7-5.1,15.7-7.3,16.4-0.1c-1.2,3.9-7.9,6-12.5,4.4
		C143.3,129.9,141.2,128.7,139.9,127.5z"/>
	<path class="st2" d="M160.5,121.3c-0.3,0-0.4,0.2-0.6,0.3c-2.4,1.1-5.6,1.2-8.1-0.3c-0.3-0.3-0.7-0.6-0.5-1.1
		c-0.1-0.6,0.6-0.5,0.8-1c1.5-0.9,3.5-1.2,5.3-0.9c1.5,0.6,3,1,4.4,2l0.2,0l0.1,0.3C161.5,120.7,161.1,121.3,160.5,121.3z"/>
	<g>
		<path class="st4" d="M91.2,102.8c0.4,0.4,0.9,0.8,1.4,1.2C92,103.5,91.6,103,91.2,102.8z"/>
	</g>
	<path class="st3" d="M79.9,162.9c-0.5-0.3-0.9-0.9-1.3-1.4c-4.8-4.8-11.3-8.1-16-7c-0.5,0.5-1.4,0.6-0.9,1.9
		c-0.1,1.4,1.3,1.8,1.7,3.2c2.9,3.5,6.9,6.1,10.6,7.1c2.9,0.2,5.8,0.6,8.5-0.3l0.3,0.2L83,166C81.9,165.2,81.1,163.5,79.9,162.9z"/>
	<path class="st3" d="M127.2,142.8c0-0.7,0.9-1,1-1.4c1.3-5.4,11.9-7.8,12.4-0.1c-0.9,4.2-6,6.4-9.4,4.8
		C129.8,145.4,128.2,144.1,127.2,142.8z"/>
	<path class="st2" d="M143.4,138.1c-0.2,0-0.3,0.2-0.5,0.4c-1.8,1.2-4.3,1.3-6.1-0.4c-0.2-0.4-0.6-0.6-0.4-1.1
		c0-0.7,0.5-0.6,0.6-1.1c1.1-1,2.6-1.3,4-0.9c1.1,0.6,2.3,1.1,3.3,2.2l0.1,0l0,0.3C144.1,137.5,143.8,138.1,143.4,138.1z"/>
	<g>
		<path class="st5" d="M53.1,50.2c0-0.8,0.1-1.5,0.4-2.3s0.7-1.4,1.2-2c0.5-0.6,1.1-1.1,1.9-1.5s1.6-0.6,2.6-0.6
			c1.1,0,2.1,0.3,2.9,0.8c0.8,0.5,1.4,1.2,1.8,2l-0.8,0.4c-0.2-0.4-0.5-0.8-0.8-1.1c-0.3-0.3-0.6-0.5-1-0.7
			c-0.4-0.2-0.7-0.3-1.1-0.4s-0.8-0.1-1.1-0.1c-0.8,0-1.5,0.2-2.2,0.5c-0.6,0.3-1.2,0.8-1.6,1.3c-0.4,0.5-0.8,1.1-1,1.8
			c-0.2,0.7-0.3,1.3-0.3,2c0,0.8,0.1,1.5,0.4,2.2c0.3,0.7,0.6,1.3,1.1,1.8c0.5,0.5,1,0.9,1.6,1.3c0.6,0.3,1.3,0.5,2,0.5
			c0.4,0,0.8,0,1.2-0.1c0.4-0.1,0.8-0.2,1.2-0.5s0.7-0.5,1-0.8c0.3-0.3,0.6-0.7,0.8-1.1l0.8,0.4c-0.2,0.5-0.5,0.9-0.9,1.3
			S62.5,55.8,62,56c-0.5,0.3-0.9,0.4-1.4,0.6c-0.5,0.1-1,0.2-1.5,0.2c-0.9,0-1.7-0.2-2.4-0.6c-0.7-0.4-1.4-0.9-1.9-1.5
			c-0.5-0.6-0.9-1.3-1.2-2.1S53.1,51,53.1,50.2z"/>
		<path class="st5" d="M70.1,56.9c-0.7,0-1.3-0.1-1.8-0.4c-0.6-0.3-1-0.6-1.4-1.1s-0.7-1-1-1.5s-0.3-1.2-0.3-1.9
			c0-0.7,0.1-1.3,0.4-1.9c0.2-0.6,0.6-1.1,1-1.5c0.4-0.4,0.9-0.8,1.4-1.1c0.6-0.3,1.2-0.4,1.8-0.4c0.6,0,1.2,0.1,1.8,0.4
			c0.6,0.3,1,0.6,1.4,1.1c0.4,0.4,0.7,1,1,1.5c0.2,0.6,0.4,1.2,0.4,1.9c0,0.6-0.1,1.3-0.4,1.9c-0.2,0.6-0.6,1.1-1,1.5
			s-0.9,0.8-1.4,1.1S70.7,56.9,70.1,56.9z M66.4,52.1c0,0.6,0.1,1.1,0.3,1.6c0.2,0.5,0.5,0.9,0.8,1.3c0.3,0.4,0.7,0.6,1.2,0.9
			c0.4,0.2,0.9,0.3,1.4,0.3s1-0.1,1.4-0.3s0.8-0.5,1.2-0.9c0.3-0.4,0.6-0.8,0.8-1.3c0.2-0.5,0.3-1,0.3-1.6c0-0.6-0.1-1.1-0.3-1.6
			c-0.2-0.5-0.5-0.9-0.8-1.3c-0.3-0.4-0.7-0.7-1.2-0.9C71,48.1,70.6,48,70.1,48s-1,0.1-1.4,0.3c-0.4,0.2-0.8,0.5-1.2,0.9
			c-0.3,0.4-0.6,0.8-0.8,1.3C66.5,51,66.4,51.5,66.4,52.1z"/>
		<path class="st5" d="M90.6,56.7h-0.9v-5.2c0-1.2-0.2-2.1-0.5-2.6c-0.4-0.6-0.9-0.8-1.7-0.8c-0.4,0-0.8,0.1-1.1,0.2s-0.7,0.3-1,0.6
			c-0.3,0.3-0.5,0.6-0.7,0.9c-0.2,0.4-0.4,0.7-0.5,1.2v5.8h-0.9v-5.2c0-1.2-0.2-2.1-0.5-2.6S81.8,48,81,48c-0.4,0-0.7,0.1-1.1,0.2
			c-0.3,0.1-0.7,0.3-0.9,0.6c-0.3,0.3-0.5,0.6-0.8,0.9c-0.2,0.4-0.4,0.7-0.5,1.2v5.8h-0.9v-9.4h0.8v2.2c0.4-0.8,0.9-1.3,1.5-1.8
			c0.6-0.4,1.3-0.6,2.1-0.6c0.8,0,1.4,0.2,1.9,0.7c0.5,0.5,0.8,1.1,0.9,1.8c0.9-1.7,2.1-2.5,3.7-2.5c1,0,1.7,0.4,2.2,1.1
			c0.4,0.7,0.7,1.7,0.7,3.1V56.7z"/>
		<path class="st5" d="M97.8,56.9c-0.8,0-1.5-0.2-2.2-0.6c-0.6-0.4-1.1-0.9-1.5-1.6v5.8h-0.9V47.3h0.8v1.9c0.4-0.6,0.9-1.1,1.5-1.5
			s1.3-0.6,2-0.6c0.6,0,1.2,0.1,1.8,0.4s1,0.6,1.4,1.1s0.7,1,0.9,1.6s0.3,1.2,0.3,1.8c0,0.6-0.1,1.3-0.3,1.9
			c-0.2,0.6-0.5,1.1-0.9,1.5s-0.8,0.8-1.4,1.1C99.1,56.7,98.5,56.9,97.8,56.9z M97.6,56.1c0.5,0,1-0.1,1.5-0.3
			c0.4-0.2,0.8-0.5,1.1-0.9s0.6-0.8,0.7-1.3c0.2-0.5,0.3-1,0.3-1.5c0-0.5-0.1-1.1-0.3-1.5c-0.2-0.5-0.5-0.9-0.8-1.3
			s-0.7-0.7-1.2-0.9S98,48,97.5,48c-0.3,0-0.7,0.1-1,0.2c-0.4,0.1-0.7,0.3-1,0.6c-0.3,0.2-0.6,0.5-0.8,0.8c-0.2,0.3-0.4,0.6-0.4,1
			v3.1c0.2,0.3,0.4,0.7,0.6,1c0.2,0.3,0.5,0.6,0.8,0.8c0.3,0.2,0.6,0.4,1,0.5C96.9,56,97.3,56.1,97.6,56.1z"/>
		<path class="st5" d="M106.6,56.9c-0.4,0-0.8-0.1-1.2-0.2c-0.4-0.2-0.7-0.4-1-0.6c-0.3-0.3-0.5-0.6-0.7-0.9
			c-0.2-0.4-0.2-0.7-0.2-1.1s0.1-0.8,0.3-1.1c0.2-0.3,0.5-0.6,0.8-0.9s0.8-0.4,1.2-0.6c0.5-0.1,1-0.2,1.6-0.2c0.5,0,1,0,1.5,0.1
			c0.5,0.1,1,0.2,1.4,0.4v-0.9c0-0.9-0.3-1.6-0.8-2.1s-1.2-0.8-2.1-0.8c-0.5,0-0.9,0.1-1.4,0.3c-0.5,0.2-1,0.5-1.6,0.8l-0.3-0.6
			c1.2-0.8,2.3-1.2,3.4-1.2c1.1,0,2,0.3,2.7,1c0.6,0.7,1,1.6,1,2.7v4.6c0,0.3,0.1,0.5,0.4,0.5v0.8c-0.1,0-0.1,0-0.2,0
			c-0.1,0-0.1,0-0.2,0c-0.2,0-0.4-0.1-0.6-0.2c-0.1-0.2-0.2-0.4-0.3-0.6v-0.8c-0.4,0.6-1,1-1.7,1.3
			C108.1,56.7,107.4,56.9,106.6,56.9z M106.8,56.2c0.7,0,1.3-0.1,1.9-0.4c0.6-0.3,1-0.6,1.3-1c0.2-0.3,0.3-0.5,0.3-0.7v-1.7
			c-0.4-0.2-0.9-0.3-1.3-0.4c-0.5-0.1-1-0.1-1.5-0.1c-0.5,0-0.9,0.1-1.3,0.2c-0.4,0.1-0.7,0.2-1,0.4c-0.3,0.2-0.5,0.4-0.6,0.7
			s-0.2,0.5-0.2,0.9c0,0.3,0.1,0.6,0.2,0.9c0.1,0.3,0.3,0.5,0.5,0.7c0.2,0.2,0.5,0.4,0.8,0.5S106.4,56.2,106.8,56.2z"/>
		<path class="st5" d="M118.4,48.1c-0.8,0-1.6,0.3-2.2,0.7c-0.6,0.5-1.1,1.1-1.3,2v5.8H114v-9.4h0.9v2.3c0.3-0.7,0.8-1.2,1.3-1.6
			c0.5-0.4,1.1-0.7,1.7-0.7c0.1,0,0.2,0,0.3,0s0.2,0,0.2,0V48.1z"/>
		<path class="st5" d="M124.3,56.2c0,0-0.1,0.1-0.2,0.1c-0.1,0.1-0.3,0.1-0.4,0.2c-0.2,0.1-0.4,0.1-0.6,0.2c-0.2,0-0.4,0.1-0.7,0.1
			s-0.5,0-0.7-0.1c-0.2-0.1-0.4-0.2-0.6-0.3c-0.2-0.1-0.3-0.3-0.4-0.5c-0.1-0.2-0.1-0.4-0.1-0.7v-7.1h-1.3v-0.7h1.3v-3.2h0.9v3.2
			h2.2v0.7h-2.2v6.8c0,0.3,0.1,0.6,0.4,0.8c0.2,0.2,0.5,0.3,0.8,0.3c0.4,0,0.7-0.1,1-0.2s0.4-0.2,0.5-0.2L124.3,56.2z"/>
		<path class="st5" d="M129.6,56.9c-0.7,0-1.3-0.1-1.8-0.4c-0.6-0.3-1.1-0.6-1.5-1.1c-0.4-0.5-0.7-1-1-1.6c-0.2-0.6-0.4-1.2-0.4-1.9
			c0-0.7,0.1-1.3,0.4-1.9c0.2-0.6,0.6-1.1,1-1.5c0.4-0.4,0.9-0.8,1.4-1c0.6-0.3,1.2-0.4,1.8-0.4c0.7,0,1.3,0.1,1.8,0.4
			c0.6,0.3,1,0.6,1.5,1s0.7,0.9,1,1.5c0.2,0.6,0.3,1.2,0.3,1.8c0,0.1,0,0.1,0,0.2s0,0.1,0,0.2h-8.2c0,0.5,0.2,1,0.4,1.5
			c0.2,0.5,0.5,0.9,0.8,1.2c0.3,0.3,0.7,0.6,1.1,0.8c0.4,0.2,0.9,0.3,1.4,0.3c0.3,0,0.6,0,1-0.1s0.6-0.2,0.9-0.4s0.5-0.3,0.7-0.6
			c0.2-0.2,0.4-0.5,0.5-0.7l0.8,0.2c-0.1,0.3-0.3,0.6-0.6,0.9c-0.3,0.3-0.6,0.5-0.9,0.7s-0.7,0.4-1.1,0.5
			C130.4,56.8,130,56.9,129.6,56.9z M133.3,51.7c0-0.6-0.2-1.1-0.4-1.5c-0.2-0.5-0.5-0.8-0.8-1.2s-0.7-0.6-1.1-0.8
			c-0.4-0.2-0.9-0.3-1.4-0.3c-0.5,0-1,0.1-1.4,0.3c-0.4,0.2-0.8,0.4-1.1,0.8s-0.6,0.7-0.8,1.2c-0.2,0.5-0.3,1-0.4,1.5H133.3z"/>
	</g>
	<path class="st2" d="M67.8,158.7c2.6,9.6,19.1-2.8,22.1-8.2c-1.8-2.6-16.5-0.3-21.1,4.9C67.9,156.5,68.2,157.6,67.8,158.7z"/>
	<path class="st4" d="M103.5,172.4c7.7-5.4,9.7-11.3,10.8-20.3c0.4-3.1,0.1-5.4,2.3-8c2-2.3,3.8-4.7,6.4-6.4
		c2.6-1.6,5.6-3.2,7.3-5.8c1-1.5,1-2.7,1.4-4.4c0.8-3.3,2-5.3,4.8-7.2c2.2-1.5,5.1-2.8,5.7-5.7c0.9-4.2-1.8-6-5.4-6.8
		c-3.9-0.9-7-0.7-8.2,3.2c-0.5,1.8-0.9,2.1-0.1,3.8c1.5,3.1,3.3,6.1-2.2,6c-2.1,0-4.8-1.9-6.6-3c-1.5-1-3-1.6-4.4-2.8
		c-1.6-1.3-3.1-2.6-4.5-4.2c-1.1-1.3-1.9-3-2.8-4.4c-0.8-1.1-2.4-3.3-3.9-3.3c-0.8,0-1.3,0.6-1.9,1c-0.7,0.4-3.1,0.4-3.3,1
		c-0.2,0.6,1.4,2,1.8,2.2c1.6,0.8,2.4,0,3.6,1.5c1.2,1.5,2,3.3,2.9,5c1.9,3.5,4,7.1,7.4,9.4c0.8,0.6,2.9,1,2.7,2.3
		c-0.2,1.3-2.7,1.6-3.8,1.8c-1.7,0.4-2.5,1-2.5,2.8c0.1,2.6,1.1,3.1-0.7,5.2c-1.8,2.1-3.9,4-5.9,6c-3,3.1-3.8,5.8-4.6,9.8
		c-0.7,3.2-1.8,8-3.6,10.8c-2.2,3.3-6,5.2-9.5,6.7c-3.5,1.5-6.7,3.2-10.3,4.6c-0.4,0.1-0.7,0.3-1.1,0.4c-4.1,1.5-7.9,4.2-12,5.6
		c-0.1,0-0.2,0.1-0.4,0.1c9.1,3,18.8,4.6,28.9,4.6c0.3,0,0.6,0,0.8,0C94.1,178.4,99.2,175.4,103.5,172.4z"/>
	<path class="st4" d="M37.3,154.2c3.9-5.5,5.6-12,8-18.2c1.2-3.1,2.9-5.8,4.2-8.8c1.1-2.6,3.7-3.7,6.2-4.9
		c5.9-2.8,12.1-6.5,15.6-12.2c0.5-0.8,1.3-3.3,2.1-3.6c0.8-0.3,2.4,1.1,3.3,1.4c2.6,0.8,6.4,0.4,8.8-1c1.7-1,2.6-2.2,3.8-3.6
		c0.8-0.9,1.4-0.9,2-0.5c-0.1-0.1-0.1-0.1-0.2-0.2c1.1,0.3,2.4,1.2,3.5,0.7c-0.7-2.4-3.6-5.1-6.2-4.3c-1.9,0.5-3.7,2-5.4,3
		c-0.8,0.5-1.5,1.2-2.5,1.1c-1.8-0.2-3.3-2-4.6-3c-1.2-0.9-2.7-1.1-3.8-1.9c-3.2-2.4-0.6-4.3,1.1-6.1c1.2-1.3,1.3-4.6,0.4-6.1
		c-1.3-2.3-4.4-2-6.8-2c-4.8,0-7.3,7-4.1,10.3c7.6,7.7-6.4,15.7-12.8,18c-3.3,1.2-8.4,4-10-0.7c-0.6-1.8-0.6-3.1-1.8-4.8
		c-1.4-2.1-3.1-3.9-4.8-5.7c-3.3-3.5-6.7-6.7-9.4-10.6c-1.7-2.4-2.2-9.4-5-10.8c-2.2-1.1-8-0.1-10.5,0.1c-0.2,3.3,0.1,2.6,2.6,4.1
		c2.1,1.3,2.8,2.1,3.2,4.6c0.3,1.9,0.2,3.8-0.3,5.3c-0.6,1.6-1.8,4.4-3,5.5c-2,1.9-5.5,1.6-7.7,3.3c-1.8,1.4-2.9,4.6,0.4,3.7
		c0.8-0.2,1.7-1.9,2.7-2.3c2.7-1.3,7.6-1.6,9.3,1.5c-2.7,2-8.2,4.8-8.1,8.8c0,1.1,7.1-4.1,7.6-4.3c2.5-0.9,3.5-1,5.9,0.2
		c5,2.3,9.5,13.6,9.3,19c-0.3,6.7-3.7,16.4-8.9,22c2.9,3.5,6.1,6.7,9.4,9.8C33.4,158.5,35.7,156.4,37.3,154.2z"/>
	<path class="st0" d="M53.2,155.5c-0.1-0.5-0.1-1-0.2-1.6c-2.4-1.4-7.9,0.2-9.2,2c-1,2.5-1.9,5.1-2.9,7.6c-0.4,0.8-1.2,2-2.1,3.4
		c3.1,2.2,6.4,4.2,9.7,6C46.9,166.9,48.6,158.9,53.2,155.5z"/>
	<path class="st4" d="M160.7,153.1c-1.7-5.4-2.3-11.1-4.6-16.4c-1.2-2.8-2.7-6.1-4.5-8.6c-1.5-2-4.3-3.6-4.9-5.9
		c0.1,3.8,2.6,7.1,3.3,10.9c0.8,4.4,1.4,8.6,2.2,13c-5.4-7-23.7-6.7-27.4,2.6c-1.1,2.9-0.4,6.9,1.5,9.8c-1.7-4.1,3.6-11.7,10.8-10.3
		c6.9,1.3,12.9,6,16.7,12C156.2,157.9,158.5,155.6,160.7,153.1z"/>
</g>
</svg>
