<!-- Generator: Adobe Illustrator 21.0.0, SVG Export Plug-In  -->
<svg version="1.1"
	 xmlns="http://www.w3.org/2000/svg" xmlns:xlink="http://www.w3.org/1999/xlink" xmlns:a="http://ns.adobe.com/AdobeSVGViewerExtensions/3.0/"
	 x="0px" y="0px" width="213.4px" height="213.4px" viewBox="0 0 213.4 213.4" style="enable-background:new 0 0 213.4 213.4;"
	 xml:space="preserve">
<style type="text/css">
	.st0{fill:#1B9DB4;}
	.st1{opacity:0.7;}
	.st2{opacity:0.84;fill:#877731;}
	.st3{fill:#877731;}
	.st4{opacity:0.7;fill:#877731;}
	.st5{fill:#FFFFFF;}
	.st6{opacity:0.78;fill:#5D2967;}
</style>
<defs>
</defs>
<g>
	<circle class="st0" cx="106.7" cy="106.7" r="106.7"/>
	<g class="st1">
		<path class="st2" d="M43.5,42.8c0-0.8,1.3-1.1,1.6-1.5c2-5.9,18.2-8.4,19-0.1c-1.4,4.5-9.2,7-14.5,5.2
			C47.5,45.6,45,44.2,43.5,42.8z"/>
		<path class="st2" d="M67.4,35.6c-0.3,0-0.5,0.2-0.7,0.4c-2.8,1.3-6.5,1.4-9.4-0.4c-0.3-0.4-0.9-0.7-0.6-1.2
			c-0.1-0.7,0.7-0.6,1-1.2c1.7-1.1,4-1.4,6.2-1c1.7,0.7,3.5,1.2,5.1,2.3l0.2,0l0.1,0.3C68.6,35,68.1,35.6,67.4,35.6z"/>
	</g>
	<g class="st1">
		<path class="st3" d="M60.4,117.8L60.4,117.8c-0.3,0-0.6,0-0.9,0.1c0,0.2,0.1,0.3,0.1,0.5C59.8,118.1,60.1,118,60.4,117.8z"/>
	</g>
	<g class="st1">
		<path class="st2" d="M135.7,205c-8.6,4.1-11.5-13.8-9.8-18.9c3.1-0.4,11.8,10.2,11.3,16.3C137.2,203.6,136.2,204.1,135.7,205z"/>
		<path class="st2" d="M126.7,211.5c-0.6,0.1,0.3-1.2,0.5-1.7c1.6-3.7,3.8-7.6,7.8-6.5c0.1,0.1,0.1,0.1,0.2,0.1l0-0.1l0.1,0
			c0,0-0.1,0-0.1,0.1c0.2,0,0.6,0.2,0.7,0.1c0.3-0.1,0.3,0.4,0.4,0.6c0.5,1.9,0.9,3.9,0.1,5.2C135.3,209.6,129.3,211,126.7,211.5z"
			/>
		<path class="st2" d="M122.1,201.1c0.5,0,1-0.4,1.5-0.7c5.6-2.2,12.3-2.5,16.1,0c0.3,0.6,1.1,1,0.2,1.8c-0.4,1.1-1.7,1-2.5,1.9
			c-3.6,1.8-7.9,2.4-11.3,1.9c-2.6-0.9-5.3-1.6-7.4-3.2l-0.3,0l0.1-0.5C119.6,202.2,120.9,201.2,122.1,201.1z"/>
	</g>
	<path class="st4" d="M96,65.1c0.3-0.2,0.4-0.6,0.6-0.9c2.3-3.1,6.3-5.6,10.1-5.6c0.5,0.2,1.3,0.1,1.2,0.9c0.4,0.7-0.5,1.1-0.4,1.9
		c-1.2,2.2-3.5,4-6,5c-2.2,0.4-4.3,1-6.6,0.9l-0.2,0.1l-0.2-0.3C95.1,66.6,95.2,65.6,96,65.1z"/>
	<path class="st4" d="M94,56.8c0.3,0,0.4-0.2,0.5-0.3c1.9-1,5.5-0.8,9.2,1c0.5,0.4,1.2,0.7,1.2,1.1c0.5,0.7-0.4,0.5-0.3,1
		c-1,0.8-3.9,1.7-6.2,1.2c-2-0.7-3.2-2-5.4-3.2l-0.2,0l-0.2-0.3C93.2,57.3,93.3,56.8,94,56.8z"/>
	<path class="st4" d="M104.3,59.8c5.4-4.8,11.1,7.7,10.9,11.8c-2.2,0.9-10.7-5.1-11.6-9.6C103.5,61.2,104.2,60.6,104.3,59.8z"/>
	<path class="st4" d="M111.3,60c-0.2,0.1-0.3,0-0.4-0.1c-1.5-0.2-3.3,0.4-4.5,1.8c-0.1,0.2-0.4,0.5-0.2,0.7c0,0.4,0.4,0.2,0.6,0.4
		c0.9,0.2,2.1,0,3.1-0.6c0.8-0.6,1.6-1.2,2.3-2l0.1,0l0-0.2C111.9,60.2,111.7,59.9,111.3,60z"/>
	<g class="st1">
		<path class="st2" d="M28.8,60.5c0-0.8,1-1.2,1.2-1.6c1.5-6.3,13.8-9,14.4-0.1c-1,4.9-6.9,7.4-11,5.5
			C31.8,63.6,29.9,62.1,28.8,60.5z"/>
		<path class="st2" d="M47.6,55.2c-0.2,0-0.4,0.3-0.6,0.4c-2.1,1.4-4.9,1.5-7.1-0.4c-0.2-0.4-0.7-0.7-0.4-1.3c0-0.8,0.6-0.7,0.7-1.3
			c1.3-1.2,3-1.5,4.6-1.1c1.3,0.7,2.6,1.3,3.9,2.5l0.1,0l0.1,0.3C48.4,54.4,48.1,55.1,47.6,55.2z"/>
	</g>
	<g class="st1">
		<path class="st2" d="M160,178.3c0.1,0.6,0.2,0.7,0.5,0.9c3,3.4,17.4-3.8,16.3-10.6c-2.1-2.7-9.3-0.2-13.5,4.2
			C161.6,174.5,161,176.3,160,178.3z"/>
		<path class="st2" d="M176.5,181.2c-1,2-2.6,4.8-3.9,5.7c-2.3-2.6-7.2-14-3.4-20.7c0.3-0.2,0.7-0.5,1-0.7
			C176.8,163.3,177.3,175.7,176.5,181.2z"/>
		<path class="st2" d="M188.1,166.7c-0.6,0.1-1.1-0.3-1.6-0.6c-5.9-1.9-13.1-0.6-17.8,4.4c-0.4,1-1.4,1.8-0.6,3
			c0.2,1.7,1.7,1.1,2.4,2.3c3.7,1.8,8.3,1.7,12.2,0c3-2.1,6.1-4,8.8-7.2l0.3,0l0-0.7C190.6,167.8,189.5,166.5,188.1,166.7z"/>
		<path class="st2" d="M176.7,174.2c-0.2,0-0.3-0.1-0.4-0.2c-1.2,1.2-3,1.3-4.7,0.9c-1-0.4-1.9-0.9-2.7-1.4c-0.1,0,0.1,0.1,0.1,0
			c-0.2-0.2-0.6-0.3-0.8-0.3l0.1,0c-0.2-0.1-0.5-0.2-0.7-0.3c-2.7-1.2-4.5-3.4-6.7-5.2c-0.6-0.7-1.2-1.2-1.6-2
			c-0.6-0.2-1-1.3-1.4-1.7c-0.8-1.4-1.5-2.9-1.3-4.4c0.1-0.3,0.2-0.6,0.6-0.7c0.1,0.1,0.4,0,0.6,0c0.5-0.7,1.4,0,2.1,0
			c1.3,0.2,2.5,1.3,3.9,1.7c3.7,2.3,7.7,4.4,10.6,7.9c1.7,1.3,2.5,3.4,2.6,5.3c0.1,0,0.2,0.1,0.2,0.2
			C176.9,174,176.9,174.2,176.7,174.2z"/>
		<path class="st2" d="M176.5,153.6c-2.1-1.9-4.6,3.4-5.3,5.5c-1,3.1-3.4,11.2-0.5,13.3c0.6,0.2,1.2,0.4,1.9,0.6c0,0.5,0,1.1,0.6,1
			c0.1-0.4,0-0.6,0-1c0.1-0.1,0.1-0.1,0.1-0.2c5.5-1,5.7-12.4,4.8-15.6C177.8,155.9,176.9,155,176.5,153.6z"/>
	</g>
	<path class="st4" d="M116.5,58.9c-0.3,0-0.5,0.2-0.7,0.4c-2.8,1.3-6.5,1.4-9.4-0.4c-0.3-0.4-0.9-0.7-0.6-1.2
		c-0.1-0.7,0.7-0.6,1-1.2c1.7-1.1,4-1.4,6.2-1c1.7,0.7,3.5,1.2,5.1,2.3l0.2,0l0.1,0.3C117.6,58.3,117.2,58.9,116.5,58.9z"/>
	<path class="st4" d="M118.9,149.7c1.7,1,3.3,2.6,5.3,2.8c3,0,5.8,0.9,8.4,2.7c3.9,3,8,6.8,7,12.3c-0.1,0.1-0.1,0.2-0.1,0.3l0.1,0
		l0,0.2c0,0,0-0.1-0.1-0.1c0,0.3-0.2,0.7,0,1c0.1,0.4-0.4,0.4-0.6,0.4c-2.4,0.5-4.7-0.6-6.8-1.4c-0.4-0.2-1-0.5-1.2-0.8
		c-0.6-0.5-1.2-1-1.7-1.8l0.1-0.1c-1.3-1.1-2-2.6-3.4-3.5c-0.2-0.3-0.4-0.5-0.6-0.9l0,0c-0.3-0.7-1-1.2-1.2-2.1
		c-0.6-0.9-0.7-1.8-1-2.9l-0.1,0c0.2-0.2-0.1-0.6-0.2-0.9c-0.5-0.6-0.7-1.3-1.2-1.8c-1-1.1-2.2-2-3.3-3.1l0.1-0.3L118.9,149.7z"/>
	<path class="st4" d="M150.7,150.1c0.7,5.2-1.6,12.2-5.7,14.9c-2.4,1.5-4.9,1-6.9,1.3c-1.2,0.1-1.2,1.4-2,1.9
		c-0.1,0-0.2-0.1-0.3-0.1c-0.1-0.3-0.1-0.4-0.1-0.6c2-1.6,0.6-4.1,0.7-6.6c0.2-4.2,3.5-8.6,8.9-9.6
		C147.3,150.8,149.3,149.4,150.7,150.1z"/>
	<path class="st4" d="M138.1,159.7c10.9-0.8,2.4-17.6-2.5-21.1c-3.3,1.2-4.9,14.7-0.7,19.7C135.7,159.2,137,159.2,138.1,159.7z"/>
	<g>
		<path class="st5" d="M136.6,64c0-0.8,0.1-1.5,0.4-2.3c0.3-0.8,0.7-1.4,1.2-2c0.5-0.6,1.1-1.1,1.9-1.5s1.6-0.6,2.6-0.6
			c1.1,0,2.1,0.3,2.9,0.8c0.8,0.5,1.4,1.2,1.8,2l-0.8,0.4c-0.2-0.4-0.5-0.8-0.8-1.1c-0.3-0.3-0.6-0.5-1-0.7
			c-0.4-0.2-0.7-0.3-1.1-0.4c-0.4-0.1-0.8-0.1-1.1-0.1c-0.8,0-1.5,0.2-2.2,0.5c-0.6,0.3-1.2,0.8-1.6,1.3c-0.4,0.5-0.8,1.1-1,1.8
			c-0.2,0.7-0.3,1.3-0.3,2c0,0.8,0.1,1.5,0.4,2.2c0.3,0.7,0.6,1.3,1.1,1.8c0.5,0.5,1,0.9,1.6,1.3c0.6,0.3,1.3,0.5,2,0.5
			c0.4,0,0.8,0,1.2-0.1c0.4-0.1,0.8-0.2,1.2-0.5c0.4-0.2,0.7-0.5,1-0.8c0.3-0.3,0.6-0.7,0.8-1.1l0.8,0.4c-0.2,0.5-0.5,0.9-0.9,1.3
			s-0.8,0.7-1.2,0.9s-0.9,0.4-1.4,0.6s-1,0.2-1.5,0.2c-0.9,0-1.7-0.2-2.4-0.6c-0.7-0.4-1.4-0.9-1.9-1.5c-0.5-0.6-0.9-1.3-1.2-2.1
			S136.6,64.9,136.6,64z"/>
		<path class="st5" d="M152.5,70.7c-2,0-3-1.4-3-4.1v-5.4h0.9v5.3c0,2.3,0.8,3.5,2.4,3.5c0.4,0,0.8-0.1,1.2-0.2
			c0.4-0.1,0.7-0.3,1-0.6c0.3-0.2,0.6-0.5,0.9-0.9c0.2-0.3,0.4-0.7,0.6-1.2v-5.9h0.9v8.1c0,0.3,0.1,0.5,0.4,0.5v0.8
			c-0.1,0-0.1,0-0.2,0s-0.1,0-0.1,0c-0.2,0-0.5-0.1-0.6-0.2c-0.2-0.1-0.3-0.4-0.3-0.6v-1.4c-0.4,0.8-1,1.3-1.7,1.8
			S153.3,70.7,152.5,70.7z"/>
		<path class="st5" d="M160.2,59v-1.7h0.9V59H160.2z M160.2,70.5v-9.4h0.9v9.4H160.2z"/>
		<path class="st5" d="M167.7,70.7c-0.6,0-1.2-0.1-1.8-0.4c-0.6-0.3-1-0.6-1.4-1.1c-0.4-0.5-0.7-1-0.9-1.5c-0.2-0.6-0.3-1.2-0.3-1.8
			c0-0.6,0.1-1.3,0.3-1.9c0.2-0.6,0.5-1.1,0.9-1.5c0.4-0.4,0.8-0.8,1.4-1.1c0.5-0.3,1.1-0.4,1.7-0.4c0.4,0,0.8,0.1,1.2,0.2
			c0.4,0.1,0.7,0.3,1,0.5c0.3,0.2,0.6,0.4,0.8,0.7c0.3,0.3,0.5,0.5,0.6,0.8v-5.8h0.9v11.9c0,0.3,0.1,0.5,0.4,0.5v0.8
			c-0.1,0-0.1,0-0.2,0c0,0-0.1,0-0.1,0c-0.2,0-0.4-0.1-0.6-0.3c-0.2-0.2-0.3-0.4-0.3-0.6v-1c-0.4,0.6-0.9,1.1-1.5,1.5
			S168.4,70.7,167.7,70.7z M167.9,69.9c0.3,0,0.7-0.1,1-0.2s0.7-0.3,1-0.5c0.3-0.2,0.6-0.5,0.8-0.8c0.2-0.3,0.4-0.6,0.4-1v-3.1
			c-0.1-0.3-0.3-0.7-0.6-1c-0.2-0.3-0.5-0.6-0.8-0.8c-0.3-0.2-0.6-0.4-1-0.5c-0.4-0.1-0.7-0.2-1-0.2c-0.5,0-1,0.1-1.5,0.4
			c-0.4,0.2-0.8,0.5-1.1,0.9c-0.3,0.4-0.6,0.8-0.7,1.3c-0.2,0.5-0.3,1-0.3,1.5c0,0.5,0.1,1,0.3,1.5c0.2,0.5,0.5,0.9,0.8,1.3
			s0.7,0.7,1.2,0.9C166.9,69.8,167.4,69.9,167.9,69.9z"/>
		<path class="st5" d="M177.2,70.7c-0.4,0-0.8-0.1-1.2-0.2c-0.4-0.2-0.7-0.4-1-0.6c-0.3-0.3-0.5-0.6-0.7-0.9
			c-0.2-0.4-0.2-0.7-0.2-1.1s0.1-0.8,0.3-1.1c0.2-0.3,0.5-0.6,0.8-0.9c0.3-0.2,0.8-0.4,1.2-0.6c0.5-0.1,1-0.2,1.6-0.2
			c0.5,0,1,0,1.5,0.1c0.5,0.1,1,0.2,1.4,0.4v-0.9c0-0.9-0.3-1.6-0.8-2.1c-0.5-0.5-1.2-0.8-2.1-0.8c-0.5,0-0.9,0.1-1.4,0.3
			c-0.5,0.2-1,0.5-1.6,0.8l-0.3-0.6c1.2-0.8,2.3-1.2,3.4-1.2c1.1,0,2,0.3,2.7,1c0.6,0.7,1,1.6,1,2.7v4.6c0,0.3,0.1,0.5,0.4,0.5v0.8
			c-0.1,0-0.1,0-0.2,0c-0.1,0-0.1,0-0.2,0c-0.2,0-0.4-0.1-0.6-0.2c-0.1-0.2-0.2-0.4-0.3-0.6V69c-0.4,0.6-1,1-1.7,1.3
			C178.8,70.6,178,70.7,177.2,70.7z M177.4,70c0.7,0,1.3-0.1,1.9-0.4c0.6-0.3,1-0.6,1.3-1c0.2-0.3,0.3-0.5,0.3-0.7v-1.7
			c-0.4-0.2-0.9-0.3-1.4-0.4c-0.5-0.1-1-0.1-1.5-0.1c-0.5,0-0.9,0.1-1.3,0.2c-0.4,0.1-0.7,0.2-1,0.4c-0.3,0.2-0.5,0.4-0.6,0.7
			c-0.2,0.3-0.2,0.5-0.2,0.9c0,0.3,0.1,0.6,0.2,0.9c0.1,0.3,0.3,0.5,0.5,0.7c0.2,0.2,0.5,0.4,0.8,0.5S177.1,70,177.4,70z"/>
	</g>
	<path class="st0" d="M61.3,117.8c-0.3-0.1-0.6-0.1-0.9-0.1v-0.5h-1c0,0.2,0.1,0.4,0.1,0.6c-2.1,0.5-3.7,2.8-5.1,4.8
		c-0.6,0.8-1.1,1.6-1.6,2.2c-1.9,2.3-4,4.9-4.6,7.9c-0.5,2.7-1.8,6.2-1.7,9c0.1,2.8,1.4,5.4,2.7,7.9c0.3,0.6,0.7,2,1.4,2.4
		c2.2,1.3,7.3,0.1,9.4-1c5.3-2.9,5.5-8.9,6-14.2c0.3-3.4,0.9-7.2,0.1-10.6C65.5,124,63.8,118.4,61.3,117.8z"/>
	<path class="st0" d="M42.7,149.1c-0.5,0-1.1,1.9-1.6,2.3c-0.6,0.6-1.6,0.9-2.4,1.2c-1.1,2.1-0.6,5.1-0.5,7.4
		c0.3,5.3,6.4,1.2,8.3-1.3c1.5-1.9,0.1-2.5-1-4.8C45.1,153.2,43.9,149.1,42.7,149.1z"/>
	<path class="st6" d="M1.3,94.8c8.9-6.3,11.3-13.1,12.5-23.6c0.4-3.6,0.1-6.2,2.6-9.2c2.3-2.7,4.4-5.5,7.4-7.4
		c3-1.9,6.4-3.7,8.5-6.7c1.2-1.7,1.2-3.2,1.6-5.1c0.9-3.8,2.3-6.2,5.6-8.4c2.6-1.8,5.9-3.2,6.6-6.6c0.8-3.5-0.7-5.6-3.1-6.8
		c-4,3-7.8,6.3-11.4,9.8c0.9,2.4,0.8,4.2-3.8,4.2c-0.1,0-0.1,0-0.2,0C12.9,51.3,3.1,72.2,0.6,95.3C0.8,95.1,1.1,95,1.3,94.8z"/>
	<path class="st6" d="M94.3,197.8c3.1-2.7,6.8-2.3,8,2.3c-0.6-2.4-0.1-4.7-0.6-6.7c-1-3.4-4.4-3.4-7-2.4c-3.6,1.4-4.9,4.2-7.4,7
		c-4.6,5.1-12.9,3.1-19.2,5.1c-1.3,0.4-2.4,1.2-3.6,1.6c0,0-0.1,0-0.1,0c7.5,3.2,15.3,5.6,23.6,7c0.5-1,0.9-2,1.2-3.1
		C90.4,204.6,90.9,200.8,94.3,197.8z"/>
	<path class="st6" d="M123.6,161.8c-6.6-1.5-13.3-2.3-20-3c-1.5-0.2-10-2.3-11-1.7c5.8-3.6,24.4-25.5,67.4-19.5
		c4,0.6,10.9,6.6,14.7,4.5c-17.4-21.1-49.5-15.9-53.5-17.2c0.1-2.4,1.1-14.8,0.3-15c4.7,1.1,10.2,4.1,15.3,3.9
		c4.3-0.2,7.3-2.9,8.6-6.7c1.9-5.5-0.4-15.6-6.9-17.4c-0.2,3.8,2.9,10.4-0.8,13.1c-5.5,3.9-11-2.5-14.4-6.2
		c-1.3-1.4-4.5-3.5-5.2-5.2c-1-2.6,1.2-5.4,0-8.3c-1.6-3.8-4.7-7.6-9.2-5.7c-3.5,1.4-6.7,6.4-3.8,9.9c1,1.2,7.1,2.9,5.1,5.1
		c-2.5,2.9-8-3.7-9.4-5c-5-4.8-5.4-12.4-10.5-17.3c-3.1-2.9-5.9-2.8-9.9-3.9c8.5,1.8,7.5,10,8.7,16.5c1.3,7.4,6.6,10.8,10.2,16.6
		c3.7,5.9,3,14,2.3,20.5c-0.7,5.9-1.7,12.1-5.6,16.9c-2.1,2.5-8,10.5-11.7,7c-2.2-2,0.4-10.1-0.3-13c-1-4-3.5-7.2-4.2-11.5
		c-1-6.7,0.3-13.5-1.7-20.1c-2.2-7.5-5.8-15.1-8.9-22.5c-3.2-7.5-3.6-15.6-6.8-23c-1.4-3.3-3.1-7.1-5.2-9.9c-1.7-2.3-5-4.1-5.7-6.9
		c0.1,4.4,3,8.2,3.8,12.6c0.9,5.1,1.7,10,2.5,15.1c-6.3-8.1-27.5-7.8-31.8,3c-1.3,3.3-0.4,8,1.7,11.3c-2-4.7,4.2-13.5,12.6-12
		c19.4,3.6,33,30.7,18.9,46.3c-1.6,1.7-3.6,2.2-5.3,3.7c-1.3,1.1-2.4,2.4-3.8,3.4c-3.8,2.5-7.1-2.2-8.4-7.3c-1.2-4.9-1.2-6-0.5-11.1
		c0.3-2.2,1.8-7.2-0.6-8.8c-2.1-1.4-3.7,1-5.3,2.1c-2.3,1.6-6.2,4.1-5.3,7.1c0.3,0.8,1.1,1.6,1.3,2.5c0.4,1.4,0.3,2.9,0.4,4.4
		c0.3,2.5,0.4,5.2,0.5,7.8c0.3,5.8,0.1,11.7-0.5,17.4c-0.5,4.3-2.2,11.6-7.3,12.5c-4.3,0.7-11.8-1.1-12.8-5.9
		c-0.5-2.5,0.4-5.8,1.6-8c1.5-2.6,4.2-2.7,7-2.8c-2.4-3.6-9.6-1.3-11.7,1.4c-1,1.2-1.4,2.6-1.7,4.1c-0.2,1.2,0.2,3.5-0.4,4.6
		c-0.2,0.4-0.5,0.6-0.7,0.8c0.8,2.5,1.8,4.9,2.8,7.3c0-0.2,0-0.3,0-0.5c9.6,5.1,12.4,2.6,23.7,4.7c0.5,4.3,1,8.5,1.6,12.8
		c-0.8,2.3-6.5,5.9-10.9,7.3c4.8,6.2,10.3,11.8,16.4,16.7c1.1-0.6,2-1.1,2.2-1.2c10.5-5.6,22-9.4,33.8-11.2
		c19.3-2.9,46.3-0.1,64.1,7.8c5.3,2.3,13.9,7.7,23.6,12.8c5-3.1,9.7-6.6,14.1-10.4c-2.1-1.2-4.5-2-6.6-3.3
		C155.4,174.6,140.9,165.6,123.6,161.8z M46.6,158.8c-1.9,2.5-8,6.5-8.3,1.3c-0.1-2.3-0.7-5.3,0.5-7.4c0.8-0.3,1.8-0.6,2.4-1.2
		c0.5-0.5,1-2.3,1.6-2.3c1.2,0,2.4,4,2.8,4.8C46.7,156.3,48,156.8,46.6,158.8z M66,136.8c-0.5,5.2-0.7,11.3-6,14.2
		c-2.1,1.1-7.2,2.4-9.4,1c-0.7-0.4-1.1-1.8-1.4-2.4c-1.2-2.5-2.5-5.1-2.7-7.9c-0.1-2.7,1.2-6.2,1.7-9c0.6-3,2.7-5.6,4.6-7.9
		c0.5-0.6,1-1.4,1.6-2.2c1.4-2,3-4.3,5.1-4.8c0-0.2-0.1-0.4-0.1-0.6h1v0.5c0.3,0,0.6,0,0.9,0.1c2.5,0.6,4.2,6.2,4.8,8.4
		C66.9,129.6,66.3,133.4,66,136.8z"/>
</g>
</svg>
