<!-- Generator: Adobe Illustrator 21.0.0, SVG Export Plug-In  -->
<svg version="1.1"
	 xmlns="http://www.w3.org/2000/svg" xmlns:xlink="http://www.w3.org/1999/xlink" xmlns:a="http://ns.adobe.com/AdobeSVGViewerExtensions/3.0/"
	 x="0px" y="0px" width="208.9px" height="203.4px" viewBox="0 0 208.9 203.4" style="enable-background:new 0 0 208.9 203.4;"
	 xml:space="preserve">
<style type="text/css">
	.st0{fill:#3B532F;}
	.st1{opacity:0.7;fill:#9ED44E;}
	.st2{opacity:0.84;fill:#9ED44E;}
	.st3{fill:#FFFFFF;}
	.st4{fill:none;stroke:#3B532F;stroke-miterlimit:10;}
	.st5{fill:#9ED44E;}
</style>
<defs>
</defs>
<g>
	<ellipse class="st0" cx="104.4" cy="101.7" rx="103.9" ry="101.2"/>
	<path class="st1" d="M86,136.4c3.3,2.5,5.1-2.5,2.1-3.6c-1.7-0.6-3.4,1.1-3,2.1C85.4,135.4,85.7,135.9,86,136.4z"/>
	<path class="st2" d="M93.2,145.3L93.2,145.3c-0.2-0.1-0.2-0.1-0.4-0.2c-0.4-0.2-0.7-0.5-1.2-0.7l-0.1,0c-0.2-0.1-0.5-0.2-0.7-0.3
		c0,0-0.1,0-0.1,0L90,144l0,0l-0.7-0.2c-0.1,0-0.2,0-0.3,0c-0.2,0-0.4-0.1-0.6-0.1l0,0c-0.5,0-0.9-0.1-1.3-0.1l0,0
		c-0.3,0-0.5-0.1-0.8-0.1c-0.1,0.1-0.2,0-0.3,0l-0.6,0c-0.1,0.1-0.2,0-0.4,0c-0.2,0-0.5,0-0.7,0.1c-0.3,0.1-0.7,0.1-0.9,0.2
		c-0.4,0-0.5,0.2-0.8,0.1c-0.2,0.1-0.4,0.1-0.6,0.2l-0.6,0.2l0,0c-0.4,0.1-0.9,0.2-1.2,0.3l-0.1,0.1c-0.3,0.1-0.9,0.1-0.9,0.4
		c-0.4,0-0.8,0.2-1,0.4c0,0.2,0.3,0.3,0.6,0.3c0,0.2,0.5,0.2,0.5,0.5c0.1,0.2,0.6,0.2,0.6,0.4c0.3,0.1,0.5,0.3,0.9,0.3
		c0,0.1-0.1,0.1,0,0.1c0.1,0.2,0.5,0.2,0.6,0.3c0.3,0.1,0.5,0.3,0.8,0.4c0.8,0.4,1.7,0.6,2.7,0.7c0.3,0,0.6,0.1,0.9,0.1
		c0.1,0,0.2,0,0.3,0c0.3,0,0.5,0,0.8-0.1c0.4,0,0.8,0.1,1.2,0.1c0.1,0.1,0.2,0,0.3,0c0.3,0,0.5,0,0.8,0c0.4,0,0.8-0.1,1.2-0.2l0,0
		c0.1,0,0.1,0,0.1,0c0.4-0.1,0.9-0.2,1.3-0.3l0,0c0.7-0.2,1.2-0.5,1.8-0.8c0.2,0.2,0.3,0.4,0.6,0.6c0.1,0,0.2,0,0.3-0.1
		c0.1,0,0.1,0,0.2,0c-0.2-0.3-0.6-0.7-0.4-1c-0.1-0.5-0.3-1-0.7-1.4C93.4,145.5,93.3,145.4,93.2,145.3z"/>
	<path class="st2" d="M94.9,127.6c-0.4,1.2-0.4,2.7-1.2,3.7c-1.3,1.4-2.1,3.2-2.6,5.2c-0.6,3.1-0.9,6.7,1.6,8.6c0.1,0,0.1,0,0.2,0.1
		l-0.1,0l0.1,0c0,0-0.1-0.1,0-0.1c0.1,0.1,0.4,0.2,0.4,0.4c0.1,0.2,0.3,0,0.4-0.1c1.2-1,1.8-2.5,2.4-3.8c0.1-0.3,0.2-0.7,0.2-0.9
		c0.1-0.5,0.1-1,0.1-1.5l-0.1,0c0.2-1.1-0.1-2,0.1-3.1c0-0.2,0-0.4-0.1-0.6l0,0c-0.1-0.5,0-1-0.3-1.5c-0.1-0.7-0.4-1.1-0.7-1.7
		l0.1,0c-0.2,0-0.2-0.3-0.3-0.5c0-0.5-0.2-0.8-0.2-1.3c0-0.9,0.2-1.9,0.3-2.9l-0.1-0.1L94.9,127.6z"/>
	<path class="st2" d="M78.1,138.4c4.5,3.2,12.4,7,17.3,8.1c2.8,0.6,3.8,0,5.2-0.2c0.8-0.1,2,0.7,2.9,0.9c0,0,0-0.1,0-0.1
		c-0.2-0.2-0.3-0.2-0.5-0.4c-2.7-0.7-4.2-2.4-6.7-3.9c-4-2.4-10.1-4.6-14.2-4.5C80.7,138.3,78.2,137.7,78.1,138.4z"/>
	<path class="st2" d="M102.5,138.6c-0.3,0.3-0.5,0.9-0.7,1.4c-2.7,5-6.3,9-8.9,9c-0.3-0.3-0.8-0.2-0.5-1.4c0-1.1,0.7-1.8,1-3
		c1.7-3.5,3.9-6.5,6-8c1.6-0.7,3.3-1.6,4.7-1.4l0.2-0.2l0.1,0.4C103.6,136.3,103.1,137.9,102.5,138.6z"/>
	<path class="st2" d="M94.7,146.3c0.1,0.7,0.2,1.2,0.5,1.8c4.7,2.6,8.1-0.4,9.8-1.7c0.5-0.4,1.5-2.1,1.1-3.3c0,0-0.1,0-0.1-0.1
		c-0.1,0-0.1,0-0.2,0c-0.6,0.4-4.4-0.1-5.6,0C97.7,143.2,96.2,144.8,94.7,146.3z"/>
	<path class="st2" d="M96.6,145.2c-0.3-0.1-0.6-0.1-1-0.1c-4.3,0.4-4.9,5.4-4.7,8.3c0.1,3.4,0.6,6.1,1.4,6.5
		c1.8,1.1,4.3-6.1,4.5-8.5C96.9,150.1,98.5,145.8,96.6,145.2z"/>
	<path class="st2" d="M91.3,147.2c5,2.3-4.7,9.8-8.3,10.9c-1.2-1.2,2.5-8.8,6.3-10.7C90,147,90.6,147.3,91.3,147.2z"/>
	<path class="st1" d="M137.7,138.6c-1,0-2,0.3-2.9-0.2c-1.4-0.9-2.9-1.3-4.4-1.2c-2.3,0.3-4.8,1-5.1,4c0,0.1,0,0.1,0,0.2l0,0v0.1
		c0,0,0-0.1,0,0c0,0.2,0,0.4-0.1,0.5c-0.1,0.2,0.1,0.3,0.2,0.4c1.1,1,2.3,1.1,3.5,1.3c0.2,0,0.5,0,0.7-0.1c0.4-0.1,0.7-0.1,1-0.4
		l0-0.1c0.8-0.1,1.3-0.7,2.1-0.7c0.1-0.1,0.3-0.1,0.4-0.3h0c0.3-0.3,0.7-0.3,0.9-0.7c0.4-0.3,0.6-0.7,0.9-1.1l0.1,0.1
		c-0.1-0.1,0.1-0.3,0.2-0.4c0.3-0.1,0.5-0.4,0.8-0.6c0.7-0.2,1.3-0.4,2-0.5v-0.2L137.7,138.6z"/>
	<path class="st1" d="M110.5,150.5c2.9-1.7,3.6-3.2,5.8-6.7c2.8-4.4,7.7-4.2,10.4-3.4c1,0.3,3,0.6,3.8,2.7c1.3,3.5-0.7,7.8-4.1,9.4
		c-4.8,2.3-7.6,0.2-12.2-0.9c-1.2,0.2-2.4,0.3-3.6,0.5c-0.1-0.3-0.3-0.6-0.4-0.9C110.3,151,110.4,150.8,110.5,150.5z"/>
	<path class="st1" d="M149,47.8c-8.9-0.5-3.2,15.6,0.5,19.3c2.7-0.7,5.1-12.7,2-17.6C150.9,48.5,149.8,48.4,149,47.8z"/>
	<path class="st1" d="M132.3,36.5c1.1,1.2,2.6,2.1,3.3,3.8c1,2.5,2.4,4.7,4.3,6.5c3,2.6,6.5,5,9.3,2.8c0-0.1,0.1-0.1,0.1-0.2l0,0.1
		l0.1-0.1c0,0-0.1,0-0.1,0c0.2-0.1,0.4-0.4,0.6-0.3c0.2,0,0.1-0.4,0-0.6c-0.5-2.2-1.8-3.8-3-5.4c-0.3-0.3-0.6-0.7-0.9-0.8
		c-0.5-0.4-1-0.8-1.5-1l0,0.1c-1-0.8-2.1-1-3.1-2c-0.2-0.1-0.4-0.2-0.7-0.3l0,0c-0.5-0.1-1-0.5-1.6-0.4c-0.7-0.3-1.3-0.1-2-0.1
		l0-0.1c0,0.2-0.4,0.1-0.6,0.1c-0.5-0.3-0.9-0.2-1.4-0.5c-0.9-0.6-1.9-1.3-2.8-2l-0.1,0.1L132.3,36.5z"/>
	<path class="st1" d="M139.6,55.8c0.5-0.2,1,0,1.5,0c5.6-0.1,11.2-2.1,13.2-5.6c0-0.6,0.4-1.2-0.6-1.6c-0.8-0.8-1.8-0.3-2.9-0.7
		c-3.7-0.2-7.5,0.7-10.2,2.3c-1.7,1.6-3.6,3.2-4.7,5.2l-0.3,0.1l0.3,0.4C137.1,55.7,138.6,56.2,139.6,55.8z"/>
	<g>
		<path class="st3" d="M13.2,108.8V96h5.3c0.5,0,1,0.1,1.5,0.3s0.8,0.5,1.2,0.9c0.3,0.4,0.6,0.8,0.8,1.3c0.2,0.5,0.3,1,0.3,1.4
			c0,0.5-0.1,1-0.3,1.5c-0.2,0.5-0.4,0.9-0.7,1.3c-0.3,0.4-0.7,0.7-1.1,0.9c-0.4,0.2-0.9,0.3-1.5,0.3h-4.4v4.8H13.2z M14.2,103.1
			h4.4c0.4,0,0.8-0.1,1.1-0.3c0.3-0.2,0.6-0.4,0.9-0.7c0.2-0.3,0.4-0.6,0.5-1c0.1-0.4,0.2-0.8,0.2-1.2c0-0.4-0.1-0.8-0.2-1.2
			c-0.2-0.4-0.4-0.7-0.6-1c-0.3-0.3-0.6-0.5-0.9-0.7c-0.3-0.2-0.7-0.3-1.1-0.3h-4.3V103.1z"/>
		<path class="st3" d="M28.6,100.2c-0.8,0-1.6,0.3-2.2,0.7c-0.6,0.5-1.1,1.1-1.3,2v5.8h-0.9v-9.4H25v2.3c0.3-0.7,0.8-1.2,1.3-1.6
			c0.5-0.4,1.1-0.7,1.7-0.7c0.1,0,0.2,0,0.3,0c0.1,0,0.2,0,0.2,0V100.2z"/>
		<path class="st3" d="M33.7,109c-0.7,0-1.3-0.1-1.8-0.4s-1-0.6-1.4-1.1c-0.4-0.4-0.7-1-1-1.5c-0.2-0.6-0.3-1.2-0.3-1.9
			c0-0.7,0.1-1.3,0.4-1.9c0.2-0.6,0.6-1.1,1-1.5c0.4-0.4,0.9-0.8,1.4-1.1c0.6-0.3,1.2-0.4,1.8-0.4s1.2,0.1,1.8,0.4
			c0.6,0.3,1,0.6,1.4,1.1c0.4,0.4,0.7,1,1,1.5c0.2,0.6,0.4,1.2,0.4,1.9c0,0.6-0.1,1.3-0.4,1.9c-0.2,0.6-0.6,1.1-1,1.5
			c-0.4,0.4-0.9,0.8-1.4,1.1C35,108.8,34.4,109,33.7,109z M30.1,104.2c0,0.6,0.1,1.1,0.3,1.6c0.2,0.5,0.5,0.9,0.8,1.3
			c0.3,0.4,0.7,0.6,1.2,0.9c0.4,0.2,0.9,0.3,1.4,0.3s1-0.1,1.4-0.3s0.8-0.5,1.2-0.9c0.3-0.4,0.6-0.8,0.8-1.3c0.2-0.5,0.3-1,0.3-1.6
			c0-0.6-0.1-1.1-0.3-1.6c-0.2-0.5-0.5-0.9-0.8-1.3c-0.3-0.4-0.7-0.7-1.2-0.9c-0.4-0.2-0.9-0.3-1.4-0.3s-1,0.1-1.4,0.3
			c-0.4,0.2-0.8,0.5-1.2,0.9c-0.3,0.4-0.6,0.8-0.8,1.3C30.2,103.1,30.1,103.6,30.1,104.2z"/>
		<path class="st3" d="M44.3,109c-0.6,0-1.2-0.1-1.8-0.4c-0.6-0.3-1-0.6-1.4-1.1c-0.4-0.5-0.7-1-0.9-1.5s-0.3-1.2-0.3-1.8
			c0-0.6,0.1-1.3,0.3-1.9c0.2-0.6,0.5-1.1,0.9-1.5c0.4-0.4,0.8-0.8,1.4-1.1c0.5-0.3,1.1-0.4,1.7-0.4c0.4,0,0.8,0.1,1.2,0.2
			s0.7,0.3,1,0.5c0.3,0.2,0.6,0.4,0.8,0.7c0.3,0.3,0.5,0.5,0.6,0.8v-5.8h0.9v11.9c0,0.3,0.1,0.5,0.4,0.5v0.8c-0.1,0-0.1,0-0.2,0
			c0,0-0.1,0-0.1,0c-0.2,0-0.4-0.1-0.6-0.3c-0.2-0.2-0.3-0.4-0.3-0.6v-1c-0.4,0.6-0.9,1.1-1.5,1.5C45.7,108.8,45,109,44.3,109z
			 M44.5,108.2c0.3,0,0.7-0.1,1-0.2s0.7-0.3,1-0.5c0.3-0.2,0.6-0.5,0.8-0.8s0.4-0.6,0.4-1v-3.1c-0.1-0.3-0.3-0.7-0.6-1
			c-0.2-0.3-0.5-0.6-0.8-0.8c-0.3-0.2-0.6-0.4-1-0.5c-0.4-0.1-0.7-0.2-1-0.2c-0.5,0-1,0.1-1.5,0.4c-0.4,0.2-0.8,0.5-1.1,0.9
			s-0.6,0.8-0.7,1.3s-0.3,1-0.3,1.5c0,0.5,0.1,1,0.3,1.5c0.2,0.5,0.5,0.9,0.8,1.3c0.3,0.4,0.7,0.7,1.2,0.9
			C43.5,108.1,44,108.2,44.5,108.2z"/>
		<path class="st3" d="M54.4,109c-2,0-3-1.4-3-4.1v-5.4h0.9v5.3c0,2.3,0.8,3.5,2.4,3.5c0.4,0,0.8-0.1,1.2-0.2c0.4-0.1,0.7-0.3,1-0.6
			c0.3-0.2,0.6-0.5,0.9-0.9c0.2-0.3,0.4-0.7,0.6-1.2v-5.9h0.9v8.1c0,0.3,0.1,0.5,0.4,0.5v0.8c-0.1,0-0.1,0-0.2,0c0,0-0.1,0-0.1,0
			c-0.2,0-0.5-0.1-0.6-0.2c-0.2-0.1-0.3-0.4-0.3-0.6v-1.4c-0.4,0.8-1,1.3-1.7,1.8C56,108.8,55.3,109,54.4,109z"/>
		<path class="st3" d="M61.5,104.1c0-0.7,0.1-1.3,0.3-1.9c0.2-0.6,0.5-1.1,1-1.5c0.4-0.4,0.9-0.8,1.5-1s1.2-0.4,1.9-0.4
			c0.9,0,1.6,0.2,2.3,0.6c0.6,0.4,1.1,0.9,1.5,1.6l-0.9,0.3c-0.3-0.5-0.7-0.9-1.2-1.2c-0.5-0.3-1.1-0.4-1.7-0.4
			c-0.5,0-1,0.1-1.4,0.3c-0.4,0.2-0.8,0.5-1.2,0.8s-0.6,0.8-0.8,1.3c-0.2,0.5-0.3,1-0.3,1.6s0.1,1.1,0.3,1.6
			c0.2,0.5,0.5,0.9,0.8,1.3c0.3,0.4,0.7,0.7,1.2,0.9s0.9,0.3,1.4,0.3c0.3,0,0.6,0,1-0.1c0.3-0.1,0.6-0.2,0.9-0.4
			c0.3-0.2,0.5-0.3,0.7-0.5c0.2-0.2,0.3-0.4,0.4-0.7l0.9,0.3c-0.1,0.3-0.3,0.6-0.5,0.9c-0.2,0.3-0.5,0.5-0.9,0.7s-0.7,0.4-1.1,0.5
			c-0.4,0.1-0.8,0.2-1.3,0.2c-0.7,0-1.3-0.1-1.8-0.4s-1.1-0.6-1.5-1.1c-0.4-0.5-0.7-1-1-1.6S61.5,104.7,61.5,104.1z"/>
		<path class="st3" d="M75.8,109c-0.7,0-1.3-0.1-1.8-0.4s-1.1-0.6-1.5-1.1c-0.4-0.5-0.7-1-1-1.6s-0.4-1.2-0.4-1.9
			c0-0.7,0.1-1.3,0.4-1.9s0.6-1.1,1-1.5c0.4-0.4,0.9-0.8,1.4-1s1.2-0.4,1.8-0.4c0.7,0,1.3,0.1,1.8,0.4c0.6,0.3,1,0.6,1.5,1
			c0.4,0.4,0.7,0.9,1,1.5c0.2,0.6,0.3,1.2,0.3,1.8c0,0.1,0,0.1,0,0.2s0,0.1,0,0.2h-8.2c0,0.5,0.2,1,0.4,1.5c0.2,0.5,0.5,0.9,0.8,1.2
			c0.3,0.3,0.7,0.6,1.1,0.8c0.4,0.2,0.9,0.3,1.4,0.3c0.3,0,0.6,0,1-0.1c0.3-0.1,0.6-0.2,0.9-0.4s0.5-0.3,0.7-0.6
			c0.2-0.2,0.4-0.5,0.5-0.7l0.8,0.2c-0.1,0.3-0.3,0.6-0.6,0.9c-0.3,0.3-0.6,0.5-0.9,0.7c-0.3,0.2-0.7,0.4-1.1,0.5
			C76.7,108.9,76.2,109,75.8,109z M79.5,103.7c0-0.6-0.2-1.1-0.4-1.5s-0.5-0.8-0.8-1.2s-0.7-0.6-1.1-0.8s-0.9-0.3-1.4-0.3
			c-0.5,0-1,0.1-1.4,0.3s-0.8,0.4-1.1,0.8s-0.6,0.7-0.8,1.2c-0.2,0.5-0.3,1-0.4,1.5H79.5z"/>
	</g>
	<ellipse class="st4" cx="104.4" cy="101.7" rx="103.9" ry="101.2"/>
	<path class="st0" d="M170.8,91.8c-3.4-3.7-12.4-4.3-17-4.3c-2,0-6.5-0.2-6.3,2.6c0.3,2.7,8,6.5,10,7.5c3.5,1.6,7.3,2.4,11.1,2.7
		c1.3,0.1,7.5,0.8,8.5-0.4c0.1-0.1,0.1-0.1,0.1-0.2c-0.1-0.3-0.2-0.7-0.3-1C175.1,96.4,173,94.1,170.8,91.8z"/>
	<path class="st5" d="M180.8,99.8c-3.2-5.4-0.1-7.7-0.3-12.1c4.4-4.7,14.9-4,20.4-7.5c0.1-1,0.2-1.9,0.3-2.9
		c-2.5-1.2-5.1-2.5-7.6-3.7c-7-1.5-8.8,3.8-14.5,4.5c-10.3,1.3-17.9-6.7-26.9-4c-3.6,2.7-7.2,5.4-10.8,8.2
		c-4.1-2.5-8.3-5.1-12.4-7.6c-7-4.3-15.7-4.7-23.4-5.6c-0.3-3,3.9-3.3,6-3.6c3.2-0.4,6.4-0.6,9.3-2.4c2.6-1.6,8.7-8.2,8.4-11.6
		c-0.3,0.3-0.7,0.6-1,1c0.1-0.7,0-1.6,0.2-2.4c-0.3,0.3-1.3,0.8-1.6,1.1c0-0.2,0-0.5,0-0.7C124,59,115.7,60.9,108.1,62
		c-8.7,1.2-13.2,8.4-21,11c-1,0.3-2.4,0.5-3.3,0.1c-2-0.9-1-1.2-1.3-3c-0.3-2.5-0.4-3.8-3.5-4.2c-2-0.2-4.6,0.6-6.1,2
		c-5.5,5-1.4,14.8,5.5,15.7c2.8,0.4,6.5-0.9,9,0.3c4.2,1.9,5.1,9.5,6,13.4c1.4,6.7,2.1,13.3-0.7,19.7c-0.5,1.2-1.5,4.2-2.6,4.9
		c-0.4,0.3-5.9,0.2-5.8,0.8c1.3-0.1,2.5,0.1,3.7,0.3c0.2,2.7-1.5,4.9-1.3,7.5c0.3-0.8,0.9-1.4,1.3-2.1c-0.1,1.5,0.1,2.9,0.2,4.4
		c0.1-1.5,0.9-2.9,1.7-4.2c0,0.6,0.4,1.7,0.4,2.1c3.9-5.1,7.3-12.2,9.5-18.3c1.9-5,1.1-10.9,1-16.2c0-2.2-1.4-5.3-0.3-7.3
		c1.3-2.7,5.6-2.2,8.1-2c5.5,0.3,10.5,2.4,14.8,5.9c8,6.5,13.3,16.4,23.3,20.3c6.8,2.7,28.8,9.9,60.7,1c0.5-4,0.8-8.1,0.8-12.2
		c0-2.6-0.1-5.2-0.3-7.7C196.8,98.8,186,102,180.8,99.8z M177.4,99.7L177.4,99.7c0,0-0.1,0.1-0.1,0.2c-1,1.2-7.2,0.5-8.5,0.4
		c-3.8-0.2-7.7-1.1-11.1-2.7c-2.1-1-9.8-4.8-10-7.5c-0.3-2.8,4.2-2.6,6.3-2.6c4.6,0,13.6,0.7,17,4.3c2.1,2.3,4.2,4.6,6.3,6.8
		C177.3,99,177.3,99.3,177.4,99.7L177.4,99.7L177.4,99.7C177.1,100.1,177.4,99.8,177.4,99.7z"/>
	<path class="st5" d="M94.7,24.4C83,35,86.4,56.7,89.7,54.1c4.2-21.7,26.4-26.7,40.6-25.2c19.9,2,36.7,12.5,50.3,21.6
		c3.5,2.3,10.3,6.9,19.4,11.3c-6.8-15.5-17.6-29-30.9-39.4C144.3,11.5,116,5.1,94.7,24.4z"/>
	<path class="st5" d="M202.9,121.5c-11.5,7.9-23.7,14.9-36.4,20.8c-9.8,4.5-20,8.3-30.6,10.9c-9.6,2.3-18.8,3.4-28.6,3.4
		c-3,0-5.9-0.4-8.9-0.5c-5.6-0.3-9.8-1.3-14.8-3.8c-3.9-1.9-6.3-4.6-8.4-8.4c-2-3.7-1.4-5.7-1.3-9.4c-3.7,1.1-5.8,6.1-5.4,9.5
		c0.9,8.7,8.7,16,16,19.7c25.1,12.6,56.2,6,81.3-3.6c11.8-4.5,23-10.3,33.6-17.1c3.5-7.6,6.1-15.8,7.5-24.2
		C205.6,119.7,204.3,120.6,202.9,121.5z"/>
</g>
</svg>
